<svg width="120" height="120" viewBox="0 0 120 120" fill="none" xmlns="http://www.w3.org/2000/svg">
<path fill-rule="evenodd" clip-rule="evenodd" d="M59.2855 37.106C65.8752 37.0821 79.2091 36.0569 84.0003 28.5001C85.4078 26.2802 86.2243 23.8355 86.4889 21.3876C98.2914 29.7149 106 43.4572 106 58.9999C106 84.405 85.4051 105 60 105C34.5949 105 14 84.405 14 58.9999C14 34.025 33.9033 13.6988 58.7136 13.0176C57.4872 16.7751 58.3935 21.0268 59.0426 24.0719C59.2433 25.0133 59.4194 25.8394 59.5003 26.4999C59.8078 29.0109 58.6992 31.768 57.5718 33.8266C56.799 35.2378 57.6766 37.1118 59.2855 37.106Z" fill="#FFB057"/>
<circle cx="106" cy="60" r="8" fill="#FFB057"/>
<circle cx="14" cy="60" r="8" fill="#FFB057"/>
<path d="M71 68C71 74.0751 66.0751 79 60 79C53.9249 79 49 74.0751 49 68" stroke="white" stroke-width="4" stroke-linecap="round"/>
<circle cx="74" cy="55" r="4" fill="white"/>
<circle cx="46" cy="55" r="4" fill="white"/>
<path d="M81.5 27C76 35.4996 60 34.5001 60 34.5001C60 34.5001 62.9998 30.5 62.4998 26.5C61.9998 22.5 55.9998 10.5 70 8.00015C82.5 6.50015 87 18.5004 81.5 27Z" fill="#FFB057"/>
<path d="M21 110C21 110.552 20.5523 111 20 111C19.4477 111 19 110.552 19 110H21ZM19 104C19 103.448 19.4477 103 20 103C20.5523 103 21 103.448 21 104H19ZM19 110V104H21V110H19Z" fill="#FFB057"/>
<path d="M17 108C16.4477 108 16 107.552 16 107C16 106.448 16.4477 106 17 106V108ZM23 106C23.5523 106 24 106.448 24 107C24 107.552 23.5523 108 23 108V106ZM17 106H23V108H17V106Z" fill="#FFB057"/>
<path d="M9 118C9 119.105 8.10457 120 7 120C5.89543 120 5 119.105 5 118H9ZM5 108C5 106.895 5.89543 106 7 106C8.10457 106 9 106.895 9 108H5ZM5 118V108H9V118H5Z" fill="#FFB057"/>
<path d="M2 115C0.89543 115 0 114.105 0 113C0 111.895 0.89543 111 2 111L2 115ZM12 111C13.1046 111 14 111.895 14 113C14 114.105 13.1046 115 12 115V111ZM2 111H12V115H2L2 111Z" fill="#FFB057"/>
<path d="M107 16C107 15.4477 106.552 15 106 15C105.448 15 105 15.4477 105 16H107ZM105 22C105 22.5523 105.448 23 106 23C106.552 23 107 22.5523 107 22H105ZM105 16V22H107V16H105Z" fill="#FFB057"/>
<path d="M103 18C102.448 18 102 18.4477 102 19C102 19.5523 102.448 20 103 20V18ZM109 20C109.552 20 110 19.5523 110 19C110 18.4477 109.552 18 109 18V20ZM103 20H109V18H103V20Z" fill="#FFB057"/>
<path d="M115 2C115 0.89543 114.105 0 113 0C111.895 0 111 0.89543 111 2H115ZM111 12C111 13.1046 111.895 14 113 14C114.105 14 115 13.1046 115 12H111ZM111 2V12H115V2H111Z" fill="#FFB057"/>
<path d="M108 5C106.895 5 106 5.89543 106 7C106 8.10457 106.895 9 108 9V5ZM118 9C119.105 9 120 8.10457 120 7C120 5.89543 119.105 5 118 5V9ZM108 9H118V5L108 5V9Z" fill="#FFB057"/>
</svg>
