<svg width="120" height="120" viewBox="0 0 120 120" fill="none" xmlns="http://www.w3.org/2000/svg">
<path d="M98.1354 103.561L93.3123 108.384C91.5966 110.099 88.7607 109.905 87.2955 107.971L75.1438 91.9305C73.3942 89.621 70.7289 88.1839 67.8379 87.9912L51.1758 86.8806L76.6316 61.4248L77.7427 78.0865C77.9355 80.9774 79.3726 83.6425 81.682 85.3921L97.7224 97.5439C99.6565 99.0091 99.8511 101.845 98.1354 103.561Z" fill="#FFB057"/>
<path d="M29.2565 98.9017L26.4277 96.0731L84.4105 38.0903L87.2391 40.9189C88.8012 42.481 88.8012 45.0137 87.2391 46.5758L34.9133 98.9016C33.3512 100.464 30.8186 100.464 29.2565 98.9017Z" fill="#FFB057"/>
<path d="M83.0001 37C83.0001 37 50.5 2 0.00012502 0C-0.000275285 14.5 0.000413745 89 0.000413745 89C0.000413745 89 13.9997 81 25 94.5C47 73 83.0001 37 83.0001 37Z" fill="#FFB057"/>
<path d="M28 53L30.1213 60.8787L38 63L30.1213 65.1213L28 73L25.8787 65.1213L18 63L25.8787 60.8787L28 53Z" fill="white"/>
<path d="M49 36L50.6971 42.3029L57 44L50.6971 45.6971L49 52L47.3029 45.6971L41 44L47.3029 42.3029L49 36Z" fill="white"/>
<path d="M24.5 17L27.788 29.212L40 32.5L27.788 35.788L24.5 48L21.212 35.788L9 32.5L21.212 29.212L24.5 17Z" fill="white"/>
<path d="M120 59.7143C120 64.8833 115.943 70 109.5 70C103.057 70 99 64.8833 99 59.7143C99 55.2445 101.5 52.5714 102.5 51.2857C103.5 50 109.5 43 109.5 43C109.5 43 116 50.5 117.083 51.8571C118.167 53.2143 120 56.3874 120 59.7143Z" fill="#FFB057"/>
<ellipse cx="103.773" cy="55.1003" rx="1.67026" ry="3.5" transform="rotate(28.7958 103.773 55.1003)" fill="white"/>
<path d="M103.444 75.9048C103.444 78.9679 101.04 82 97.2222 82C93.404 82 91 78.9679 91 75.9048C91 73.256 92.4815 71.672 93.0741 70.9101C93.6667 70.1481 97.2222 66 97.2222 66C97.2222 66 101.074 70.4444 101.716 71.2487C102.358 72.0529 103.444 73.9332 103.444 75.9048Z" fill="#FFB057"/>
<ellipse cx="94.1424" cy="73.2164" rx="1" ry="1.81734" transform="rotate(26.6949 94.1424 73.2164)" fill="white"/>
</svg>
