<svg width="120" height="120" viewBox="0 0 120 120" fill="none" xmlns="http://www.w3.org/2000/svg">
<path d="M72.0099 58.2036C121.01 23.2036 84.7271 -6.51716 69.5097 15.7039C38.5103 -14.7963 16.5099 34.2036 72.0099 58.2036Z" fill="#BFD08B"/>
<path d="M74.5093 65.7037C78.8047 62.9706 106.509 41.7039 119.009 68.2039C90.4995 39.5002 72.0093 95.2039 42.0093 98.2039C76.5097 97.2039 93.0094 44.2041 116.509 73.2038C125.509 87.2038 95.5093 111.84 65.5094 113.204C56.8869 113.596 25.0094 113.704 24.0094 109.204C23.2094 105.604 27.9999 101.5 30 100C18.4992 93 -2.49073 77.2039 1.5093 72.7039C6.50931 67.079 33.8942 90.3579 35.5094 88.2039C37.009 86.2041 -0.490058 64.7039 5.51003 56.7038C10.01 50.7038 44.3122 80.9665 46.0094 78.7038C47.5094 76.7039 11.5094 52.6039 16.0094 47.2039C21.426 40.7039 57.0094 74.2039 60.5097 72.2038C62.5094 71.0612 29.0095 51.7039 34.0093 45.7038C38.176 40.7035 69.0089 69.2036 74.5093 65.7037Z" fill="#BFD08B"/>
</svg>
