<svg width="120" height="120" viewBox="0 0 120 120" fill="none" xmlns="http://www.w3.org/2000/svg">
<path d="M93.4854 90.11C93.4854 77.696 75.2334 52.3716 59.9412 52.3716L56.9815 77.696L59.9412 102.027C66.3537 102.027 72.5696 106 79.6731 106C88.5524 106 93.4854 99.5446 93.4854 90.11Z" fill="#BFD08B"/>
<path d="M26.3975 90.11C26.3975 77.696 44.6494 52.3716 59.9416 52.3716V102.027C53.5291 102.027 47.3132 106 40.2097 106C31.3304 106 26.3975 99.5446 26.3975 90.11Z" fill="#BFD08B"/>
<path d="M105.442 58.1432C110.427 49.1108 107.415 38.7775 102.482 37.2876C98.0425 35.9465 91.1362 39.2735 87.6832 47.7152C82.6929 59.9154 88.6694 66.0881 92.1225 67.0812C94.541 67.7768 100.509 67.0813 105.442 58.1432Z" fill="#BFD08B"/>
<path d="M84.3266 33.9989C86.7162 22.5782 82.3529 15.2396 77.4199 14.1364C72.9803 13.1436 65.88 17.5983 64.1014 26.5502C61.6349 38.9645 66.0746 45.4199 71.0069 46.4128C75.8745 47.3927 82.3525 43.4334 84.3266 33.9989Z" fill="#BFD08B"/>
<path d="M34.6734 33.9989C32.2838 22.5782 36.6471 15.2396 41.5801 14.1364C46.0197 13.1436 53.12 17.5983 54.8986 26.5502C57.3651 38.9645 52.9254 45.4199 47.9931 46.4128C43.1255 47.3927 36.6475 43.4334 34.6734 33.9989Z" fill="#BFD08B"/>
<path d="M14.558 58.1432C9.57298 49.1108 12.5853 38.7775 17.5178 37.2876C21.9575 35.9465 28.8638 39.2735 32.3168 47.7152C37.3071 59.9154 31.3306 66.0881 27.8775 67.0812C25.459 67.7768 19.4909 67.0813 14.558 58.1432Z" fill="#BFD08B"/>
</svg>
