<svg width="19" height="21" viewBox="0 0 19 21" fill="none" xmlns="http://www.w3.org/2000/svg">
<path d="M16.6166 2.92834C17.6937 3.84503 18.2666 5.0138 18.3354 6.43466C18.4041 7.85552 17.9458 9.05867 16.9603 10.0441L10.3258 16.9192C10.0967 17.1484 9.83312 17.263 9.5352 17.263C9.23728 17.263 8.97373 17.1484 8.74456 16.9192L2.11006 10.0441C1.12463 9.05867 0.666284 7.85552 0.735035 6.43466C0.803787 5.0138 1.37671 3.84503 2.45382 2.92834C3.39342 2.12625 4.47052 1.78249 5.68513 1.89708C6.92265 1.98874 7.97684 2.48146 8.84769 3.37523L9.5352 4.06274L10.2227 3.37523C11.0936 2.48146 12.1363 1.98874 13.3509 1.89708C14.5884 1.78249 15.677 2.12625 16.6166 2.92834Z" fill="#749B27"/>
</svg>
