<svg width="55" height="50" viewBox="0 0 55 50" fill="none" xmlns="http://www.w3.org/2000/svg">
<path d="M27.3011 9.57877L36.9988 19.2723C37.3422 19.6156 37.808 19.8084 38.2935 19.8084H51.6475V44.8013H2.95452V19.8085H16.3085C16.7941 19.8085 17.2598 19.6157 17.6032 19.2724L27.3011 9.57877Z" fill="#FFC380"/>
<path opacity="0.1" d="M38.2936 19.8085C37.8081 19.8085 37.3424 19.6157 36.999 19.2724L27.3011 9.57877L17.6033 19.2723C17.2599 19.6156 16.7942 19.8084 16.3086 19.8084H2.95452V22.1785H16.3128C17.4351 22.1785 18.4902 21.7414 19.2836 20.9479L26.5392 13.6922C26.9599 13.2715 27.642 13.2715 28.0627 13.6922L35.3182 20.9478C36.1117 21.7414 37.1669 22.1785 38.2891 22.1785H48.2001C48.7951 22.1785 49.2774 22.6608 49.2774 23.2558V44.8013H51.6475V19.8085H38.2936Z" fill="black"/>
<path d="M26.0061 5.69386C26.7212 4.9787 27.8808 4.9787 28.5959 5.69386L39.0479 16.1457H51.6476L46.5674 2.46819C46.2539 1.62399 45.4483 1.06379 44.5477 1.06379H10.0545C9.15385 1.06379 8.34826 1.62389 8.03473 2.46819L2.95452 16.1457H15.5542L26.0061 5.69386Z" fill="#749B27"/>
<path opacity="0.2" d="M46.5674 2.46819C46.2539 1.62399 45.4483 1.06379 44.5477 1.06379H41.3158C42.2164 1.06379 43.022 1.62389 43.3355 2.46819L48.4158 16.1457H51.6476L46.5674 2.46819Z" fill="black"/>
<path d="M53.8021 18.7312C53.8021 19.3262 53.3198 19.8085 52.7248 19.8085H38.2893C37.8036 19.8085 37.3378 19.6156 36.9944 19.2721L27.3011 9.57878L17.6077 19.2721C17.2643 19.6155 16.7985 19.8085 16.3128 19.8085H1.87719C1.28222 19.8085 0.799873 19.3262 0.799873 18.7312V17.223C0.799873 16.6281 1.28222 16.1457 1.87719 16.1457H15.5542L26.0062 5.69384C26.7213 4.97868 27.8809 4.97868 28.596 5.69384L39.048 16.1457H52.7249C53.3199 16.1457 53.8022 16.6281 53.8022 17.223V18.7312H53.8021Z" fill="#E7ECF6"/>
<path d="M52.7249 16.1457H49.0621C49.6571 16.1457 50.1394 16.6281 50.1394 17.223V18.7312C50.1394 19.3261 49.6571 19.8085 49.0621 19.8085H52.7249C53.3199 19.8085 53.8022 19.3261 53.8022 18.7312V17.223C53.8021 16.6281 53.3199 16.1457 52.7249 16.1457Z" fill="#D8E2F1"/>
<path d="M37.3197 27.7804H48.0925V38.5531H37.3197V27.7804Z" fill="#D6E7FF"/>
<path d="M37.3197 38.5531H48.0925V42.0004H37.3197V38.5531Z" fill="#AA8080"/>
<path d="M6.50949 27.7804H17.2823V38.5531H6.50949V27.7804Z" fill="#D6E7FF"/>
<path d="M6.50949 38.5531H17.2823V42.0004H6.50949V38.5531Z" fill="#AA8080"/>
<path d="M21.2683 27.7804H33.3338V44.8014H21.2683V27.7804Z" fill="#8B5E5E"/>
<path d="M24.7156 31.2276H29.8865V34.6749H24.7156V31.2276Z" fill="#9DC6FB"/>
<path d="M27.3011 23.7943C29.2049 23.7943 30.7483 22.2509 30.7483 20.3471C30.7483 18.4432 29.2049 16.8998 27.3011 16.8998C25.3972 16.8998 23.8538 18.4432 23.8538 20.3471C23.8538 22.2509 25.3972 23.7943 27.3011 23.7943Z" fill="#9DC6FB"/>
<path d="M0.799965 44.8014H53.8022V48.4642H0.799965V44.8014Z" fill="#749B27"/>
<path opacity="0.4" d="M50.1395 44.8014H53.8023V48.4642H50.1395V44.8014Z" fill="black"/>
<path d="M52.7248 15.3459H52.2036L47.3171 2.18973C46.8892 1.03786 45.7763 0.263947 44.5476 0.263947H10.0545C8.82581 0.263947 7.71277 1.03786 7.28491 2.18973L2.39847 15.3459H1.8773C0.842215 15.3459 0.000152588 16.1879 0.000152588 17.223V18.7312C0.000152588 19.7663 0.842215 20.6083 1.8773 20.6083H2.15479V38.1396C2.15479 38.5813 2.5128 38.9394 2.95462 38.9394C3.39645 38.9394 3.75445 38.5813 3.75445 38.1396V20.6083H16.3129C17.0157 20.6083 17.6764 20.3347 18.1735 19.8376L27.3011 10.7098L36.4288 19.8376C36.9258 20.3346 37.5866 20.6082 38.2894 20.6082H50.8478V22.7288C50.8478 23.1705 51.2058 23.5286 51.6476 23.5286C52.0894 23.5286 52.4474 23.1705 52.4474 22.7288V20.6082H52.7249C53.7599 20.6082 54.6021 19.7662 54.6021 18.7311V17.2229C54.602 16.1879 53.7599 15.3459 52.7248 15.3459ZM8.78443 2.74662C8.98066 2.21841 9.49106 1.86361 10.0545 1.86361H44.5476C45.111 1.86361 45.6214 2.21852 45.8176 2.74662L50.4972 15.3459H39.3793L29.1616 5.12831C28.6646 4.63134 28.004 4.35759 27.3011 4.35759C26.5982 4.35759 25.9375 4.63124 25.4405 5.12831L15.2229 15.3459H4.10478L8.78443 2.74662ZM53.0023 18.7312C53.0023 18.8842 52.8779 19.0087 52.7248 19.0087H38.2894C38.0138 19.0087 37.7546 18.9014 37.5599 18.7066L27.8666 9.01325C27.7165 8.8632 27.5132 8.77895 27.301 8.77895C27.0887 8.77895 26.8855 8.8632 26.7353 9.01325L17.0421 18.7066C16.8473 18.9014 16.5881 19.0087 16.3126 19.0087H1.8773C1.72427 19.0087 1.59982 18.8842 1.59982 18.7312V17.223C1.59982 17.07 1.72427 16.9455 1.8773 16.9455H15.5542C15.7663 16.9455 15.9697 16.8613 16.1198 16.7112L26.5718 6.25937C26.7666 6.06454 27.0256 5.95725 27.3012 5.95725C27.5767 5.95725 27.8358 6.06454 28.0305 6.25937L38.4825 16.7112C38.6325 16.8613 38.8359 16.9455 39.0481 16.9455H52.725C52.8781 16.9455 53.0025 17.07 53.0025 17.223V18.7312H53.0023Z" fill="black"/>
<path d="M48.0926 42.8003C48.5344 42.8003 48.8924 42.4421 48.8924 42.0004V27.7804C48.8924 27.3387 48.5344 26.9806 48.0926 26.9806H37.3197C36.8779 26.9806 36.5199 27.3387 36.5199 27.7804V42.0004C36.5199 42.4421 36.8779 42.8003 37.3197 42.8003H48.0926ZM47.2928 37.7533H43.5059V33.9666H47.2928V37.7533ZM41.9063 37.7533H38.1196V33.9666H41.9063V37.7533ZM47.2928 41.2006H38.1196V39.353H47.2928V41.2006ZM47.2928 32.3668H43.5059V28.5801H47.2928V32.3668ZM41.9063 28.5802V32.3669H38.1196V28.5802H41.9063Z" fill="black"/>
<path d="M17.2824 42.8003C17.7242 42.8003 18.0822 42.4421 18.0822 42.0004V27.7804C18.0822 27.3387 17.7242 26.9806 17.2824 26.9806H6.50951C6.06768 26.9806 5.70968 27.3387 5.70968 27.7804V42.0004C5.70968 42.4421 6.06768 42.8003 6.50951 42.8003H17.2824ZM16.4826 37.7533H12.6958V33.9666H16.4826V37.7533ZM11.0962 37.7533H7.30934V33.9666H11.0962V37.7533ZM16.4826 41.2006H7.30934V39.353H16.4826V41.2006ZM16.4826 32.3668H12.6958V28.5801H16.4826V32.3668ZM11.0962 28.5802V32.3669H7.30934V28.5802H11.0962Z" fill="black"/>
<path d="M29.8865 30.4278H24.7156C24.2738 30.4278 23.9157 30.7859 23.9157 31.2276V34.6749C23.9157 35.1166 24.2738 35.4747 24.7156 35.4747H29.8865C30.3284 35.4747 30.6864 35.1166 30.6864 34.6749V31.2276C30.6864 30.7859 30.3284 30.4278 29.8865 30.4278ZM29.0867 33.8751H25.5154V32.0275H29.0867V33.8751Z" fill="black"/>
<path d="M31.5482 20.3471C31.5482 18.0053 29.643 16.0999 27.3011 16.0999C24.9592 16.0999 23.054 18.0053 23.054 20.3471C23.054 22.6889 24.9592 24.5943 27.3011 24.5943C29.643 24.5943 31.5482 22.689 31.5482 20.3471ZM24.6536 20.3471C24.6536 18.8873 25.8413 17.6996 27.3011 17.6996C28.7608 17.6996 29.9485 18.8873 29.9485 20.3471C29.9485 21.8068 28.7608 22.9946 27.3011 22.9946C25.8413 22.9946 24.6536 21.8069 24.6536 20.3471Z" fill="black"/>
<path d="M53.8021 44.0015H52.4474V26.4702C52.4474 26.0285 52.0894 25.6704 51.6476 25.6704C51.2058 25.6704 50.8478 26.0285 50.8478 26.4702V44.0015H34.1336V27.7804C34.1336 27.3386 33.7756 26.9805 33.3338 26.9805H21.2683C20.8265 26.9805 20.4685 27.3386 20.4685 27.7804V44.0015H3.75435V41.881C3.75435 41.4392 3.39634 41.0811 2.95452 41.0811C2.51269 41.0811 2.15468 41.4392 2.15468 41.881V44.0015H0.799984C0.358157 44.0015 0.000152588 44.3596 0.000152588 44.8013V48.4641C0.000152588 48.9058 0.358157 49.2639 0.799984 49.2639H53.8021C54.244 49.2639 54.602 48.9058 54.602 48.4641V44.8013C54.602 44.3596 54.244 44.0015 53.8021 44.0015ZM22.0681 38.1679H23.2075C23.6493 38.1679 24.0074 37.8098 24.0074 37.3681C24.0074 36.9264 23.6493 36.5683 23.2075 36.5683H22.0681V28.5802H32.5341V44.0015H22.0681V38.1679ZM53.0023 47.6643H1.59981V45.6011H53.0023V47.6643Z" fill="black"/>
</svg>
