<svg width="62" height="56" viewBox="0 0 62 56" fill="none" xmlns="http://www.w3.org/2000/svg">
<path d="M20.292 1.17673V33.4224L50.5367 33.3727V1.17673H20.292Z" fill="#FFE999"/>
<path d="M58.6671 23.4375C57.1837 22.1872 54.9703 22.3701 53.7126 23.8545C52.3993 25.2128 47.9059 29.8584 45.7113 32.1279H45.7201C45.2843 30.6316 43.9025 29.5385 42.266 29.5385H28.6546C28.4193 29.5385 28.1899 29.4893 27.9706 29.4011C25.5113 28.3985 22.92 28.1489 20.292 28.529C15.5471 29.2186 11.6044 32.0263 9.71921 36.7505L20.1495 47.2052L21.8876 45.5273C23.1292 44.3303 24.7864 43.6605 26.5102 43.6605H42.0439C44.4858 43.6605 46.832 42.7081 48.5812 41.0045L59.0841 28.392C60.3372 26.9096 60.1506 24.6911 58.6671 23.4375Z" fill="#FED2A4"/>
<path d="M18.9961 51.2091L15.3821 54.8231L2.05069 41.5097L5.68268 37.8956C7.34996 36.2265 10.075 36.2021 11.768 37.8956L18.9961 45.1237C20.6717 46.7956 20.6841 49.5229 18.9961 51.2091Z" fill="#749B27"/>
<path d="M28.0134 37.2305C28.4722 36.7703 28.4722 36.0256 28.0134 35.5655C27.5533 35.1062 26.8081 35.1062 26.348 35.5655C25.8892 36.0256 25.8892 36.7703 26.348 37.2305C26.8081 37.6897 27.5533 37.6897 28.0134 37.2305Z" fill="black"/>
<path d="M28.4119 9.53248V11.7826C28.4119 15.5682 31.3516 18.7607 35.133 18.9391C39.1801 19.1303 42.534 15.8922 42.534 11.8861V9.53248C43.2414 9.53248 43.8027 8.90868 43.6984 8.181C43.6147 7.59719 43.0874 7.17888 42.4977 7.17888H40.2172C39.6274 7.17888 39.1001 7.59719 39.0165 8.181C38.9116 8.90868 39.4734 9.53248 40.1804 9.53248V11.8006C40.1804 14.2369 38.1968 16.4379 35.7651 16.5845C33.0332 16.7496 30.766 14.5831 30.766 11.8861V9.53248C31.473 9.53248 32.0347 8.90868 31.9299 8.181C31.8463 7.59719 31.319 7.17888 30.7292 7.17888H28.4487C27.8589 7.17888 27.3317 7.59719 27.248 8.181C27.1432 8.90868 27.7049 9.53248 28.4119 9.53248Z" fill="black"/>
<path d="M14.5505 55.6556C14.7804 55.885 15.0815 55.9999 15.3821 55.9999C15.6836 55.9999 15.9843 55.885 16.2141 55.6552L19.8277 52.0416C21.005 50.8657 21.5718 49.254 21.4081 47.6258L22.7044 46.3745C23.7323 45.3835 25.0842 44.8374 26.5102 44.8374H42.0044C44.7805 44.8374 47.4039 43.7713 49.3911 41.8356C49.4205 41.8071 49.4481 41.7772 49.4748 41.746L60.0173 29.0862C61.6919 27.104 61.4418 24.128 59.4578 22.4511C57.4862 20.7893 54.5327 21.0288 52.8526 22.9774L51.7135 24.1551V1.17674C51.7135 0.52674 51.1867 -6.10352e-05 50.5367 -6.10352e-05H20.292C19.642 -6.10352e-05 19.1152 0.52674 19.1152 1.17674V27.543C14.5574 28.4996 10.9429 31.3285 8.99612 35.4639C7.46123 35.3844 5.96356 35.9488 4.8525 37.0613L1.22189 40.674C1.14191 40.754 1.06928 40.8422 1.01641 40.9424C0.759446 41.4302 0.864255 41.9878 1.21913 42.3422L14.5505 55.6556ZM49.3599 2.35354V26.5892L45.9545 30.1099C45.0774 29.0329 43.7416 28.3617 42.2986 28.3617H28.6546C28.5788 28.3617 28.497 28.3442 28.4151 28.3111C26.5815 27.5642 24.6407 27.1849 22.6456 27.1849C22.2521 27.1849 21.8591 27.1992 21.4688 27.2249V2.35354H49.3599ZM20.4897 29.6939C22.8704 29.3491 25.2511 29.5514 27.5601 30.4924C27.9274 30.6404 28.3053 30.7158 28.6841 30.7158H42.328C43.6041 30.7158 44.6821 31.7565 44.6821 33.0694C44.6821 34.3671 43.6262 35.423 42.328 35.423H32.0899C31.4399 35.423 30.9131 35.9498 30.9131 36.5998C30.9131 37.2498 31.4399 37.7766 32.0899 37.7766H42.328C44.9239 37.7766 47.0357 35.6648 47.0357 33.0694C47.0357 32.8616 47.0205 32.6557 46.9934 32.452C47.2389 32.2001 54.3521 24.8433 54.5989 24.5881C54.6168 24.5693 54.6343 24.55 54.6509 24.5302C55.4893 23.5405 56.9783 23.415 57.9689 24.2498C58.9604 25.0878 59.0859 26.5763 58.2429 27.5738L47.7358 40.1908C46.1954 41.6701 44.1732 42.4838 42.0338 42.4838H26.5396C24.5014 42.4838 22.5698 43.2638 21.0997 44.6806L20.5802 45.1821C20.3725 44.8626 20.1307 44.5638 19.8576 44.2912L12.6295 37.0631C12.2438 36.6775 11.8053 36.3561 11.3313 36.1028C13.1292 32.5568 16.341 30.2965 20.4897 29.6939ZM6.54461 38.7272C7.78163 37.4893 9.75736 37.5196 10.9654 38.7277L18.1945 45.9567C19.4057 47.1657 19.4273 49.1446 18.1935 50.377L15.4111 53.1595L3.74741 41.5111L6.54461 38.7272Z" fill="black"/>
</svg>
