<svg width="20" height="24" viewBox="0 0 20 24" fill="none" xmlns="http://www.w3.org/2000/svg">
<path d="M17.6749 4.17262C15.8427 1.5209 12.939 -0.000244141 9.70876 -0.000244141C6.47856 -0.000244141 3.57479 1.5209 1.74259 4.17262C-0.0806175 6.81093 -0.501602 10.1511 0.614211 13.1021C0.912664 13.908 1.38709 14.6909 2.02093 15.4246L9.0699 23.7043C9.22932 23.8918 9.4629 23.9998 9.70876 23.9998C9.95462 23.9998 10.1882 23.8918 10.3476 23.7043L17.3946 15.4269C18.0313 14.689 18.5051 13.9069 18.8011 13.1075C19.9191 10.1511 19.4981 6.81093 17.6749 4.17262ZM17.2296 12.5197C17.0014 13.1365 16.6288 13.7463 16.1228 14.3329C16.1214 14.3343 16.1199 14.3357 16.1188 14.3374L9.70876 21.8663L3.29476 14.3326C2.78902 13.7466 2.41641 13.1368 2.18593 12.5142C1.26315 10.0736 1.61335 7.31193 3.12301 5.12704C4.6374 2.93516 7.03796 1.67807 9.70876 1.67807C12.3795 1.67807 14.7798 2.93512 16.2942 5.12704C17.8042 7.31193 18.1546 10.0736 17.2296 12.5197Z" fill="#749B27"/>
<path d="M9.70908 4.97876C7.11802 4.97876 5.00977 7.08673 5.00977 9.67807C5.00977 12.2694 7.11774 14.3774 9.70908 14.3774C12.3004 14.3774 14.4084 12.2694 14.4084 9.67807C14.4084 7.08701 12.3001 4.97876 9.70908 4.97876ZM9.70908 12.699C8.04333 12.699 6.68808 11.3438 6.68808 9.67803C6.68808 8.01228 8.04333 6.65703 9.70908 6.65703C11.3748 6.65703 12.7301 8.01228 12.7301 9.67803C12.7301 11.3438 11.3748 12.699 9.70908 12.699Z" fill="#749B27"/>
</svg>
