<svg width="184" height="62" viewBox="0 0 184 62" fill="none" xmlns="http://www.w3.org/2000/svg">
<rect width="184" height="62" fill="#E5E5E5"/>
<g clip-path="url(#clip0)">
<rect width="1440" height="930" transform="translate(-108 -18)" fill="white"/>
<g filter="url(#filter0_d)">
<rect x="-108" y="-18" width="1440" height="100" fill="white"/>
</g>
<path d="M114.634 50.8807C114.531 50.8807 114.444 50.8489 114.372 50.7853C114.308 50.7138 114.277 50.6263 114.277 50.5229V41.5656H114.992V50.5229C114.992 50.6263 114.956 50.7138 114.885 50.7853C114.821 50.8489 114.738 50.8807 114.634 50.8807ZM111.259 42.2097C111.164 42.2097 111.084 42.1819 111.021 42.1262C110.965 42.0626 110.937 41.9831 110.937 41.8877C110.937 41.7922 110.965 41.7167 111.021 41.661C111.084 41.5974 111.164 41.5656 111.259 41.5656H118.01C118.105 41.5656 118.181 41.5974 118.236 41.661C118.3 41.7167 118.332 41.7922 118.332 41.8877C118.332 41.9831 118.3 42.0626 118.236 42.1262C118.181 42.1819 118.105 42.2097 118.01 42.2097H111.259Z" fill="black"/>
<path d="M131.053 51C130.369 51 129.737 50.8807 129.157 50.6422C128.576 50.4037 128.067 50.0697 127.63 49.6403C127.201 49.203 126.867 48.6941 126.628 48.1136C126.39 47.5332 126.27 46.901 126.27 46.2172C126.27 45.5334 126.39 44.9052 126.628 44.3327C126.867 43.7523 127.201 43.2474 127.63 42.818C128.067 42.3806 128.576 42.0427 129.157 41.8042C129.737 41.5656 130.369 41.4464 131.053 41.4464C131.737 41.4464 132.365 41.5656 132.938 41.8042C133.518 42.0427 134.023 42.3806 134.452 42.818C134.89 43.2474 135.228 43.7523 135.466 44.3327C135.705 44.9052 135.824 45.5334 135.824 46.2172C135.824 46.901 135.705 47.5332 135.466 48.1136C135.228 48.6941 134.89 49.203 134.452 49.6403C134.023 50.0697 133.518 50.4037 132.938 50.6422C132.365 50.8807 131.737 51 131.053 51ZM131.053 50.2844C131.626 50.2844 132.158 50.185 132.651 49.9862C133.144 49.7795 133.574 49.4932 133.94 49.1275C134.313 48.7537 134.6 48.3204 134.798 47.8274C135.005 47.3344 135.108 46.7977 135.108 46.2172C135.108 45.6447 135.005 45.112 134.798 44.619C134.6 44.126 134.313 43.6966 133.94 43.3308C133.574 42.9571 133.144 42.6709 132.651 42.4721C132.158 42.2653 131.626 42.162 131.053 42.162C130.473 42.162 129.936 42.2653 129.443 42.4721C128.95 42.6709 128.517 42.9571 128.143 43.3308C127.777 43.6966 127.491 44.126 127.284 44.619C127.085 45.112 126.986 45.6447 126.986 46.2172C126.986 46.7977 127.085 47.3344 127.284 47.8274C127.491 48.3204 127.777 48.7537 128.143 49.1275C128.517 49.4932 128.95 49.7795 129.443 49.9862C129.936 50.185 130.473 50.2844 131.053 50.2844Z" fill="black"/>
<path d="M145.722 50.8807C145.619 50.8807 145.532 50.8489 145.46 50.7853C145.396 50.7138 145.365 50.6263 145.365 50.5229V41.9234C145.365 41.8121 145.396 41.7247 145.46 41.661C145.532 41.5974 145.619 41.5656 145.722 41.5656H147.869C148.553 41.5656 149.177 41.6809 149.742 41.9115C150.314 42.1342 150.807 42.4562 151.221 42.8776C151.642 43.2911 151.964 43.7801 152.187 44.3447C152.418 44.9092 152.533 45.5334 152.533 46.2172C152.533 46.901 152.418 47.5292 152.187 48.1017C151.964 48.6663 151.642 49.1593 151.221 49.5807C150.807 49.9942 150.314 50.3162 149.742 50.5468C149.177 50.7694 148.553 50.8807 147.869 50.8807H145.722ZM146.08 50.2367H147.869C148.641 50.2367 149.32 50.0617 149.909 49.7119C150.505 49.362 150.97 48.8849 151.304 48.2806C151.646 47.6763 151.817 46.9885 151.817 46.2172C151.817 45.4459 151.646 44.7621 151.304 44.1657C150.97 43.5614 150.505 43.0843 149.909 42.7345C149.32 42.3846 148.641 42.2097 147.869 42.2097H146.08V50.2367Z" fill="black"/>
<path d="M161.23 50.8807C161.079 50.8807 160.972 50.8211 160.908 50.7018C160.853 50.5826 160.853 50.4712 160.908 50.3679L164.522 41.8161C164.586 41.6491 164.701 41.5656 164.868 41.5656C165.027 41.5656 165.142 41.6491 165.214 41.8161L168.84 50.3679C168.903 50.4792 168.899 50.5945 168.828 50.7138C168.756 50.8251 168.653 50.8807 168.518 50.8807C168.438 50.8807 168.371 50.8648 168.315 50.833C168.267 50.7933 168.224 50.7336 168.184 50.6541L164.677 42.2932H165.059L161.564 50.6541C161.532 50.7336 161.489 50.7933 161.433 50.833C161.377 50.8648 161.31 50.8807 161.23 50.8807ZM162.113 48.543L162.399 47.899H167.361L167.635 48.543H162.113Z" fill="black"/>
<path d="M179.491 50.8807C179.388 50.8807 179.301 50.8489 179.229 50.7853C179.165 50.7138 179.134 50.6263 179.134 50.5229V47.398L175.842 42.1262C175.786 42.0308 175.762 41.9433 175.77 41.8638C175.786 41.7763 175.822 41.7048 175.877 41.6491C175.941 41.5935 176.021 41.5656 176.116 41.5656C176.18 41.5656 176.231 41.5775 176.271 41.6014C176.319 41.6253 176.362 41.661 176.402 41.7087L179.754 47.1714H179.229L182.533 41.7922C182.588 41.7048 182.64 41.6451 182.688 41.6133C182.743 41.5815 182.807 41.5656 182.879 41.5656C182.974 41.5656 183.05 41.5935 183.105 41.6491C183.161 41.7048 183.193 41.7763 183.201 41.8638C183.217 41.9513 183.197 42.0387 183.141 42.1262L179.849 47.398V50.5229C179.849 50.6263 179.813 50.7138 179.742 50.7853C179.678 50.8489 179.595 50.8807 179.491 50.8807Z" fill="black"/>
<path d="M113.505 34.0858L111.807 33.6541L123.117 19.5533L124.326 20.5029L113.505 34.0858ZM112.412 34.9779C111.894 34.9779 111.635 34.7189 111.635 34.2009C111.635 33.6829 111.894 33.4239 112.412 33.4239H123.664C124.182 33.4239 124.441 33.6829 124.441 34.2009C124.441 34.7189 124.182 34.9779 123.664 34.9779H112.412ZM112.412 20.7907C111.894 20.7907 111.635 20.5317 111.635 20.0137C111.635 19.4957 111.894 19.2367 112.412 19.2367H123.664C124.182 19.2367 124.441 19.4957 124.441 20.0137C124.441 20.5317 124.182 20.7907 123.664 20.7907H112.412Z" fill="black"/>
<path d="M134.949 35.1506C133.414 35.1506 132.033 34.8052 130.805 34.1146C129.596 33.4047 128.637 32.4455 127.927 31.2368C127.237 30.009 126.891 28.6373 126.891 27.1217C126.891 25.5869 127.237 24.2152 127.927 23.0066C128.637 21.7787 129.596 20.8195 130.805 20.1288C132.033 19.419 133.414 19.0641 134.949 19.0641C136.484 19.0641 137.855 19.419 139.064 20.1288C140.273 20.8195 141.222 21.7787 141.913 23.0066C142.623 24.2152 142.978 25.5869 142.978 27.1217L142.258 28.2728C142.258 29.5774 141.932 30.7476 141.28 31.7836C140.647 32.8196 139.783 33.6445 138.69 34.2585C137.596 34.8532 136.349 35.1506 134.949 35.1506ZM134.949 33.539C136.157 33.539 137.232 33.2608 138.172 32.7045C139.131 32.1289 139.879 31.3615 140.416 30.4023C140.973 29.4239 141.251 28.3303 141.251 27.1217C141.251 25.8939 140.973 24.8003 140.416 23.8411C139.879 22.8627 139.131 22.0953 138.172 21.5389C137.232 20.9634 136.157 20.6756 134.949 20.6756C133.759 20.6756 132.685 20.9634 131.726 21.5389C130.767 22.0953 130.009 22.8627 129.452 23.8411C128.896 24.8003 128.618 25.8939 128.618 27.1217C128.618 28.3303 128.896 29.4239 129.452 30.4023C130.009 31.3615 130.767 32.1289 131.726 32.7045C132.685 33.2608 133.759 33.539 134.949 33.539ZM142.143 34.9779C141.875 34.9779 141.654 34.9011 141.481 34.7477C141.328 34.575 141.251 34.364 141.251 34.1146V28.8483L141.798 27.1217H142.978V34.1146C142.978 34.364 142.901 34.575 142.747 34.7477C142.594 34.9011 142.393 34.9779 142.143 34.9779Z" fill="black"/>
<path d="M155.315 35.1506C153.818 35.1506 152.466 34.8052 151.257 34.1146C150.049 33.4239 149.089 32.4839 148.379 31.2944C147.689 30.1049 147.324 28.762 147.286 27.2656V13.3662C147.286 13.0976 147.363 12.8866 147.516 12.7331C147.689 12.5796 147.9 12.5029 148.149 12.5029C148.418 12.5029 148.629 12.5796 148.782 12.7331C148.936 12.8866 149.013 13.0976 149.013 13.3662V22.3447C149.626 21.3471 150.48 20.5509 151.574 19.9562C152.686 19.3614 153.933 19.0641 155.315 19.0641C156.85 19.0641 158.221 19.419 159.43 20.1288C160.658 20.8195 161.617 21.7691 162.308 22.9778C163.017 24.1864 163.372 25.5581 163.372 27.0929C163.372 28.6277 163.017 30.009 162.308 31.2368C161.617 32.4455 160.658 33.4047 159.43 34.1146C158.221 34.8052 156.85 35.1506 155.315 35.1506ZM155.315 33.539C156.523 33.539 157.598 33.2608 158.538 32.7045C159.497 32.1289 160.255 31.3615 160.811 30.4023C161.368 29.4239 161.646 28.3208 161.646 27.0929C161.646 25.8651 161.368 24.7716 160.811 23.8123C160.255 22.8531 159.497 22.0953 158.538 21.5389C157.598 20.9634 156.523 20.6756 155.315 20.6756C154.125 20.6756 153.051 20.9634 152.092 21.5389C151.132 22.0953 150.375 22.8531 149.818 23.8123C149.281 24.7716 149.013 25.8651 149.013 27.0929C149.013 28.3208 149.281 29.4239 149.818 30.4023C150.375 31.3615 151.132 32.1289 152.092 32.7045C153.051 33.2608 154.125 33.539 155.315 33.539Z" fill="black"/>
<path d="M174.883 35.1506C173.348 35.1506 171.967 34.8052 170.739 34.1146C169.53 33.4047 168.571 32.4455 167.861 31.2368C167.171 30.009 166.825 28.6373 166.825 27.1217C166.825 25.5869 167.171 24.2152 167.861 23.0066C168.571 21.7787 169.53 20.8195 170.739 20.1288C171.967 19.419 173.348 19.0641 174.883 19.0641C176.418 19.0641 177.789 19.419 178.998 20.1288C180.207 20.8195 181.156 21.7787 181.847 23.0066C182.557 24.2152 182.912 25.5869 182.912 27.1217L182.192 28.2728C182.192 29.5774 181.866 30.7476 181.214 31.7836C180.581 32.8196 179.717 33.6445 178.624 34.2585C177.53 34.8532 176.283 35.1506 174.883 35.1506ZM174.883 33.539C176.091 33.539 177.166 33.2608 178.106 32.7045C179.065 32.1289 179.813 31.3615 180.351 30.4023C180.907 29.4239 181.185 28.3303 181.185 27.1217C181.185 25.8939 180.907 24.8003 180.351 23.8411C179.813 22.8627 179.065 22.0953 178.106 21.5389C177.166 20.9634 176.091 20.6756 174.883 20.6756C173.693 20.6756 172.619 20.9634 171.66 21.5389C170.701 22.0953 169.943 22.8627 169.386 23.8411C168.83 24.8003 168.552 25.8939 168.552 27.1217C168.552 28.3303 168.83 29.4239 169.386 30.4023C169.943 31.3615 170.701 32.1289 171.66 32.7045C172.619 33.2608 173.693 33.539 174.883 33.539ZM182.077 34.9779C181.809 34.9779 181.588 34.9011 181.415 34.7477C181.262 34.575 181.185 34.364 181.185 34.1146V28.8483L181.732 27.1217H182.912V34.1146C182.912 34.364 182.835 34.575 182.681 34.7477C182.528 34.9011 182.327 34.9779 182.077 34.9779Z" fill="black"/>
<path fill-rule="evenodd" clip-rule="evenodd" d="M70.4965 26.3154C65.8175 36.8961 62.3433 48.3036 59.6256 57.7057C59.5916 57.8314 59.6084 57.9654 59.6722 58.0788C59.736 58.1923 59.8418 58.2762 59.9668 58.3125C60.0918 58.3488 60.2261 58.3346 60.3407 58.2729C60.4554 58.2113 60.5412 58.1071 60.5799 57.9828C63.2932 48.6026 66.7366 37.2347 71.4068 26.72C76.0771 16.2053 75.1756 15.7479 70.4965 26.3154Z" fill="#32663D"/>
<path d="M64.0275 44.4732C68.2096 37.0368 77.4227 30.8406 82.2908 25.4139C88.1089 18.9186 95.1715 13.6591 95.9235 14.3143C93.2849 25.4271 98.5093 35.2602 88.0078 48.695C73.3241 68.603 49.2646 60.2695 49.2646 60.2695C52.7564 51.184 65.4743 39.8469 64.0275 44.4732Z" fill="url(#paint0_linear)"/>
<path d="M38.8291 19.825C27.9494 2.63907 8.52503 6.6673 0.209118 9.42901C-1.14095 10.2734 4.81344 10.6735 5.13886 20.621C5.9876 46.3779 27.9713 61.5189 42.378 61.2067C46.1116 61.1187 48.3324 60.8989 51.0897 60.7669C54.1284 60.6262 55.7644 61.2551 57.8093 61.0924C65.725 60.4635 67.7479 58.9771 67.7479 58.9771C67.7479 58.9771 52.3914 39.9134 51.1644 38.3082C49.0844 34.8121 38.8291 19.825 38.8291 19.825Z" fill="#749B27"/>
<path opacity="0.2" d="M21.6605 36.3684C22.2146 35.8451 27.0476 50.9685 41.8896 58.9766C45.4824 60.9116 53.8731 60.7137 53.6224 60.6477C48.6663 60.9424 44.7084 61.6108 40.8034 59.5043C27.1091 52.1119 21.1196 36.8917 21.6605 36.3684Z" fill="#333329"/>
<path opacity="0.1" d="M33.1385 53.3564C24.2949 46.0564 20.9659 34.108 18.6132 23.7472C15.8163 11.4338 0.107937 9.61322 0.107937 9.61322H0.0111893C-0.270259 10.3872 4.84858 11.4338 5.13882 20.6205C5.98757 46.3774 27.9713 61.5184 42.3779 61.2062C45.5135 61.1314 47.5803 60.9687 49.7967 60.8412C49.7879 60.8412 41.9734 60.6521 33.1385 53.3564Z" fill="black"/>
<path opacity="0.05" d="M58.1 48.5674L60.9101 50.4892C56.64 45.1812 51.829 39.1872 51.1649 38.3165C49.0849 34.7984 38.5262 19.9168 38.5262 19.9168C27.8839 -2.52724e-05 0.13925 8.50939 0.0117188 9.61759C24.3658 15.7743 18.6225 34.794 25.1486 42.5998C31.6746 50.4056 58.1 48.5674 58.1 48.5674Z" fill="white"/>
<path opacity="0.2" d="M64.0757 56.8174C64.766 56.8086 65.4322 57.0707 65.9315 57.5474C66.0616 57.934 66.0723 58.3508 65.9623 58.7436C65.9007 59.0338 65.65 60.208 65.1399 60.2563C64.9438 60.2942 64.7417 60.2886 64.548 60.2399C64.3543 60.1913 64.1735 60.1008 64.0185 59.9749C63.7134 59.6656 63.5121 59.2691 63.4424 58.8403C63.4424 58.4533 62.7256 57.9608 62.0088 57.5474C61.292 57.134 59.1987 55.7576 58.1433 55.0144C55.298 53.0046 49.2249 51.5842 45.0999 51.8481C43.6443 51.9404 42.7164 51.637 42.3778 50.7443C41.9776 49.6844 42.4965 48.8005 42.3778 48.6158C42.259 48.4311 40.5528 48.0221 40.2537 46.9227C39.9723 45.9025 39.9855 44.4688 41.0145 44.0159C41.3375 43.917 41.6758 43.8782 42.0128 43.9016C41.6694 44.0055 41.3681 44.2165 41.153 44.5036C40.9378 44.7907 40.82 45.1391 40.8166 45.4979C40.7507 46.5885 41.8589 47.5956 42.1931 47.5296C42.5273 47.4636 43.3628 47.6351 43.3716 48.0133C43.2617 48.0705 42.1667 49.6668 43.7059 50.6519C44.8536 51.3907 47.5626 50.6519 48.8247 50.8762C50.0868 51.1005 54.933 51.892 57.3957 53.4092C59.8584 54.9264 60.8478 56.0478 61.9604 56.4172C63.073 56.7866 63.2885 56.8834 64.0757 56.8174Z" fill="#333329"/>
<path d="M40.0606 45.6694C39.9418 44.7634 39.8891 43.6069 40.8126 43.2595C41.7361 42.912 44.1592 43.4442 45.6896 43.5849C47.2199 43.7256 49.1197 44.2973 49.2648 44.1522C49.4099 44.0071 49.1505 43.2287 49.9289 42.5954C50.7072 41.9622 52.1277 41.8962 52.7873 41.9841C53.447 42.0721 55.1532 41.2541 56.1339 41.9534C57.1146 42.6526 59.9687 43.8663 61.0373 45.8541C62.1059 47.8418 62.1939 48.884 63.2361 49.0863C64.2783 49.2886 66.0902 49.0292 67.3039 48.5982C68.5176 48.1672 67.3391 47.4108 67.0225 46.7776C66.7058 46.1443 65.7691 42.978 67.3699 41.1222C68.0603 40.3174 68.3154 43.7212 69.6127 44.5568C70.91 45.3923 73.8256 47.2393 74.45 48.5674C75.0745 49.8955 74.9382 51.9712 74.1598 52.8683C73.3814 53.7654 72.5151 55.0011 70.8396 56.1841C69.1641 57.3671 68.201 58.6863 67.2907 59.0689C66.8509 59.258 65.5624 59.689 64.8544 59.4559C64.1464 59.2229 63.9749 58.2862 63.8034 57.886C63.4824 57.1076 60.6811 55.9466 59.4058 54.8516C57.6535 53.2852 55.4954 52.2442 53.1787 51.848C50.3203 51.4083 50.6413 51.1356 47.5849 50.9949C45.9578 50.9157 43.0026 51.6325 42.3474 50.1461C41.7845 48.8708 42.3913 48.4223 42.2462 47.8594C42.1275 47.5296 40.3069 47.5428 40.0606 45.6694Z" fill="#42855E"/>
<path opacity="0.2" d="M45.7467 46.6149C47.227 46.6674 48.6992 46.8573 50.1443 47.1822C50.1443 47.1822 49.577 46.7424 49.5242 46.5797C49.4715 46.417 47.2507 46.1135 45.4652 46.351C44.2406 46.4986 43.0869 47.005 42.1494 47.8066L42.2286 47.9342C43.2041 47.0851 44.4534 46.6166 45.7467 46.6149Z" fill="#333329"/>
<path d="M64.4718 56.0698C65.178 56.0597 65.8612 56.321 66.3804 56.7998C66.5519 57.0241 66.4859 57.6793 66.4112 57.9959C66.3364 58.3126 66.0902 59.4647 65.5668 59.5087C65.3659 59.5482 65.1587 59.5435 64.9598 59.4949C64.7608 59.4463 64.5748 59.3549 64.4147 59.2273C64.1018 58.922 63.8952 58.5242 63.8254 58.0927C63.8254 57.7057 63.0822 57.2132 62.3478 56.7998C61.6134 56.3864 59.4629 55.0099 58.3899 54.2667C55.4611 52.257 49.2208 50.8322 44.9815 51.096C43.4907 51.1884 42.5365 50.885 42.189 49.9922C41.7757 48.9324 42.3078 48.0485 42.189 47.8594C42.0703 47.6703 40.3113 47.2657 39.9902 46.1707C39.7044 45.1461 39.7132 43.7124 40.773 43.2595C41.1022 43.1617 41.4461 43.123 41.7889 43.1451C41.4404 43.2449 41.1332 43.4538 40.9123 43.7411C40.6915 44.0285 40.5686 44.3791 40.5619 44.7415C40.4959 45.8321 41.6305 46.8391 41.978 46.7732C42.3254 46.7072 43.1785 46.8831 43.1873 47.2613C43.073 47.3141 41.9472 48.9148 43.5347 49.8999C44.7089 50.6431 48.2973 50.4188 49.5946 50.6563C50.8919 50.8938 55.0081 51.5358 57.5368 53.0266C60.0654 54.5174 60.9537 55.8411 62.1015 56.1841C63.2493 56.5271 63.6627 56.1357 64.4718 56.0698Z" fill="#C1BC87"/>
<path d="M37.004 18.2722C37.7824 18.4745 38.5036 17.4366 41.0147 17.7533C43.5257 18.0699 51.6305 19.6486 51.6305 19.6486L58.7019 22.1773L64.951 24.9082C64.951 24.9082 68.9748 25.9812 69.0012 26.1351C69.0276 26.2891 76.3892 28.5274 76.4771 28.7737C76.5651 29.02 78.7287 30.911 78.7287 30.911C78.7287 30.911 78.8167 32.8239 78.7947 32.9295C78.7771 33.0254 78.7771 33.1238 78.7947 33.2197C78.7947 33.2197 78.3285 33.8618 77.7744 34.539C77.2203 35.2162 75.5405 37.0413 74.2168 37.2743C72.8931 37.5074 71.8201 37.3007 71.0988 37.7625C70.3776 38.2242 69.0496 38.598 68.966 39.3808C68.8824 40.1636 67.2333 40.533 68.7901 43.044C70.3469 45.5551 72.4049 45.8057 73.6583 47.3229C74.164 47.9386 75.5185 50.2209 75.0083 51.4479C74.2607 53.2421 72.1411 55.2738 71.3715 55.7444C70.7866 55.7444 73.5175 53.4576 73.4956 51.1884C73.4736 49.1743 72.1543 47.5516 71.2 47.3361C70.2457 47.1206 69.0583 48.0925 67.8006 48.4619C66.5429 48.8313 63.2315 49.9571 62.4795 48.6818C62.2772 48.3344 60.351 45.6474 60.351 45.6474C60.351 45.6474 59.3792 44.4161 58.4996 44.4161C57.6201 44.4161 56.5779 44.6536 56.6394 44.2182C56.701 43.7828 57.3782 43.5058 56.7934 42.8989C56.0941 42.1733 52.7871 42.0194 52.5452 41.971C51.4634 41.9754 46.8767 36.5003 43.5477 31.6849C40.2187 26.8695 37.6593 19.5123 36.4851 18.1534C36.0717 17.6917 37.004 18.2722 37.004 18.2722Z" fill="#E5E494"/>
<path opacity="0.07" d="M66.4638 40.9771C67.1058 41.518 67.4312 40.1548 67.9194 39.8381C68.4075 39.5215 68.7109 38.7915 69.2387 38.6552C70.0654 38.4397 71.2 37.5998 71.8289 37.5162C72.6468 37.4019 73.9177 37.4107 74.5246 37.2128C75.0406 37.0108 75.5193 36.7239 75.9406 36.364C77.0433 35.46 78.0091 34.4009 78.8079 33.2197C78.8079 33.2197 78.8695 33.1669 77.9855 32.78C76.9213 32.3402 76.376 32.2171 76.1913 33.0262C76.0629 33.5249 75.8309 33.991 75.5104 34.3941C75.1899 34.7972 74.7881 35.1282 74.3311 35.3658C73.368 35.8055 72.2994 35.9462 71.4771 36.5795C70.6547 37.2128 69.7752 38.1231 69.1551 38.3825C68.535 38.642 67.6379 38.6288 67.2201 39.0334C66.8577 39.4246 66.5873 39.8919 66.4286 40.401C66.4154 40.533 66.2879 40.8364 66.4638 40.9771Z" fill="#333329"/>
<path d="M77.6163 10.6203C77.1765 10.7126 74.8282 11.6625 73.4165 11.4998C72.0049 11.3371 67.7348 8.75128 66.1297 8.08284C64.5245 7.4144 62.2641 6.76355 61.5121 6.4997C59.7839 5.9368 59.0627 0 52.7213 0C46.1864 0 44.8363 5.76529 43.0069 7.56832C42.6815 7.88495 40.8081 10.7214 39.9286 11.6933C39.0491 12.6652 37.29 13.2808 36.2785 14.521C35.8635 15.0589 35.5232 15.6507 35.2671 16.28L36.5864 18.558C38.1457 17.8677 39.8633 17.6138 41.5557 17.8236C45.0938 18.3213 48.5905 19.0783 52.0177 20.0884C53.9306 20.7392 56.3845 21.5176 57.5103 21.9794C58.6361 22.4411 62.2905 24.6179 63.2272 25.0577C64.3618 25.6074 65.8658 25.4975 66.4375 25.7833C67.6521 26.4808 68.9376 27.0469 70.2722 27.472C72.0577 28.0041 75.2591 28.9276 76.297 29.4905C77.1765 29.9654 77.9901 30.436 78.2407 30.8098C78.6105 31.4569 78.7804 32.1991 78.7289 32.9426C78.9599 32.905 79.18 32.8179 79.3743 32.6873C79.5686 32.5568 79.7325 32.3859 79.8547 32.1862C80.1537 31.5574 80.0042 30.5855 80.1581 30.2557C80.3447 29.9012 80.4753 29.52 80.5451 29.1255C80.5671 28.7913 80.4747 28.523 80.611 28.2987C80.7474 28.0745 81.4906 27.3445 81.6973 26.8519C81.9039 26.3594 82.247 25.1237 82.247 25.1237C82.247 25.1237 85.9762 17.0144 85.8178 16.667C85.6595 16.3196 85.466 15.8579 85.3165 15.6028C85.167 15.3477 85.0878 14.5342 84.846 14.1516C83.9773 12.7842 82.7157 11.7112 81.2267 11.0732C80.092 10.5777 78.8383 10.4204 77.6163 10.6203Z" fill="#42855E"/>
<path d="M55.2673 4.16013C54.7352 2.76168 52.721 0.439735 50.0649 1.08179C47.2196 1.74583 45.3418 4.25688 44.5502 6.0731C43.9038 7.5463 42.8879 10.2728 44.7218 11.6713C46.5556 13.0697 49.8714 13.0565 51.5029 12.4233C53.1344 11.79 54.8055 10.4311 55.2805 8.42583C55.8082 6.18304 55.6191 5.08803 55.2673 4.16013Z" fill="#E5E494"/>
<path d="M48.8514 12.9687C47.387 12.9687 45.773 12.6344 44.6385 11.7637C42.5848 10.1981 43.9876 7.03625 44.4274 5.99401C45.3069 3.97111 47.2506 1.59639 50.0431 0.923548C52.8356 0.250711 54.9113 2.83212 55.4214 4.11183C55.8084 5.12768 55.9579 6.24908 55.4214 8.4347C54.9817 10.2245 53.5524 11.7549 51.5559 12.5289C50.6879 12.8356 49.7719 12.9846 48.8514 12.9687ZM50.9534 1.09506C50.6574 1.09603 50.3624 1.12995 50.0739 1.1962C47.387 1.82506 45.5136 4.14701 44.656 6.10835C44.2163 7.09782 42.897 10.1102 44.7836 11.5394C46.6702 12.9687 49.8936 12.8587 51.4284 12.2694C53.3414 11.5262 54.7222 10.0706 55.1224 8.37313C55.6237 6.25787 55.483 5.18045 55.1224 4.21297C54.7266 3.13995 53.1742 1.09506 50.9534 1.09506Z" fill="#333329"/>
<path d="M53.4907 8.49181C56.0985 5.19359 52.6508 1.35886 49.4097 2.45827C47.2109 3.21466 45.8916 4.93413 45.7333 6.72836C45.5706 8.41705 46.2478 10.3916 48.7017 10.5631C49.6097 10.6481 50.5245 10.5028 51.3615 10.1408C52.1985 9.77878 52.9308 9.21165 53.4907 8.49181Z" fill="#333329"/>
<path d="M52.7213 6.87791C53.5787 6.87791 54.2737 6.37978 54.2737 5.76531C54.2737 5.15084 53.5787 4.65271 52.7213 4.65271C51.864 4.65271 51.1689 5.15084 51.1689 5.76531C51.1689 6.37978 51.864 6.87791 52.7213 6.87791Z" fill="white"/>
<path d="M48.0867 6.06111C48.574 5.35574 48.6581 4.56904 48.2744 4.30398C47.8907 4.03891 47.1847 4.39585 46.6973 5.10123C46.21 5.8066 46.126 6.59329 46.5096 6.85836C46.8933 7.12342 47.5994 6.76648 48.0867 6.06111Z" fill="white"/>
<path opacity="0.2" d="M65.0038 16.1569C65.1793 16.119 65.34 16.0306 65.4658 15.9024C65.5916 15.7742 65.6771 15.612 65.7118 15.4357C65.6854 15.2686 65.1621 15.0971 65.1445 14.8464C65.1269 14.5958 65.4875 14.3187 65.4831 13.9669C65.4787 13.6151 65.769 12.973 65.5447 12.6476C65.2435 12.403 64.8873 12.2355 64.5068 12.1595C64.111 12.1595 62.783 12.5289 62.5543 12.8279C62.3256 13.127 61.9474 14.0065 62.0749 14.1472C62.3353 14.4292 62.6098 14.6978 62.8973 14.952C63.1568 15.1499 63.3371 15.1499 63.5833 15.3917C63.7419 15.6234 63.9535 15.8137 64.2006 15.9468C64.4478 16.0799 64.7231 16.152 65.0038 16.1569Z" fill="#333329"/>
<path d="M65.3645 12.8235C65.215 12.5508 63.7769 12.7355 63.4471 12.8499C62.5324 13.1665 61.6485 14.4374 62.827 15.2554C63.5439 15.7523 64.2695 15.0971 64.5597 14.7804C64.8499 14.4638 65.6811 13.382 65.3645 12.8235Z" fill="#E5E494"/>
<path d="M64.9336 13.2633C64.7577 12.9246 63.4692 12.9466 63.1746 13.4611C62.9899 13.769 63.3197 14.1252 63.6143 14.2615C63.8895 14.3476 64.1873 14.324 64.4455 14.1956C64.6302 14.0724 65.048 13.4875 64.9336 13.2633Z" fill="#333329"/>
<path opacity="0.2" d="M55.7994 11.3591C55.8918 10.9457 57.5145 11.038 58.3456 10.7874C59.1768 10.5367 60.4741 10.2772 60.65 11.3415C60.7555 12.0011 60.8259 13.6502 60.3686 13.6766C59.6122 13.7206 59.0888 13.0258 58.2621 12.6168C57.1099 12.0407 55.6807 11.9132 55.7994 11.3591Z" fill="#333329"/>
<path opacity="0.3" d="M65.9493 13.7865C66.2528 12.3793 68.2449 14.5385 69.9951 15.4356C72.0532 16.4911 74.0629 15.8754 74.0673 16.5966C74.0717 17.3178 71.2968 17.1595 70.1491 16.7505C69.0013 16.3415 65.7866 14.5385 65.9493 13.7865Z" fill="white"/>
<path opacity="0.2" d="M78.4387 20.6689C78.663 20.5017 78.3596 19.2044 77.5592 18.7559C77.0183 18.4437 75.9365 16.3944 75.3868 17.0628C74.8371 17.7312 75.2725 18.4569 75.3164 18.6723C75.3604 18.8878 75.1493 19.3584 75.2593 19.631C75.2988 19.7234 75.1273 21.4912 75.312 21.5308C75.4967 21.5704 75.6946 19.7717 76.1124 19.9432C76.7808 20.2291 77.9814 21.0251 78.4387 20.6689Z" fill="#333329"/>
<path opacity="0.3" d="M58.2621 2.63861C58.6271 2.63861 60.3466 6.08635 61.512 6.52172C62.2684 6.79877 64.2121 7.02744 67.6159 8.84367C71.0196 10.6599 72.3785 11.3987 73.4163 11.513C74.7796 11.6581 76.7629 10.7918 76.8289 10.9633C77.0356 11.4822 74.1507 12.0056 74.0672 12.1199C73.9836 12.2342 74.0056 12.7532 74.2959 12.8543C74.5861 12.9554 75.4656 13.3908 75.6152 13.6986C75.7647 14.0065 76.2616 14.93 76.1033 15.0179C75.945 15.1059 74.784 13.6063 74.3442 13.835C74.1244 13.9405 74.6916 14.8816 74.5289 15.0223C74.2255 15.2906 73.4999 14.112 72.5104 13.791C71.521 13.47 69.9862 13.6107 69.4321 13.3073C68.878 13.0038 65.7645 10.9809 65.8084 10.5851C65.8524 10.1893 69.1155 11.5702 69.199 11.2975C69.2826 11.0249 66.5868 9.46373 65.8084 9.03276C65.0301 8.6018 62.1144 8.09167 61.1645 7.3001C60.2147 6.50852 57.8927 2.63861 58.2621 2.63861Z" fill="white"/>
<path opacity="0.2" d="M80.268 26.2802C80.4703 26.5968 80.5846 26.7552 80.8045 26.6672C81.0244 26.5792 81.4509 25.6865 81.4509 25.6865C81.4509 25.6865 80.1668 25.0093 79.8634 24.2001C79.56 23.391 79.2829 20.7436 79.2829 20.7436C79.2829 20.7436 78.7024 22.8457 79.2829 24.0286C79.8634 25.2116 80.268 26.2802 80.268 26.2802Z" fill="#333329"/>
<path opacity="0.3" d="M78.4165 10.7654C78.4165 10.5719 80.4614 10.6027 81.9082 11.5262C83.1132 12.2958 84.626 13.9141 84.8107 14.7145C84.9954 15.5148 82.9549 13.5051 81.6708 12.4013C80.1052 11.0469 78.4165 11.1568 78.4165 10.7654Z" fill="white"/>
<path d="M84.635 14.543C83.7554 14.1956 82.4977 15.0179 81.9436 15.3434C80.3956 16.2229 78.8125 20.559 79.283 22.6566C79.7536 24.7543 80.6463 25.8757 81.5962 25.6602C82.5461 25.4447 85.4177 23.3383 85.8575 21.1087C86.2973 18.8791 86.3368 17.3003 85.7388 16.5439C84.8856 15.4313 85.2946 14.7981 84.635 14.543Z" fill="#E5E494"/>
<path d="M83.4872 15.4313C85.1891 15.4313 86.416 18.8527 85.9543 20.7568C85.5805 22.3048 84.4239 24.099 82.8099 24.143C81.2796 24.187 80.2681 20.7788 80.1714 20.7568C80.0746 20.7348 79.9823 22.6874 80.3561 23.7956C80.7299 24.9038 81.6754 25.4359 81.583 25.6602C81.4907 25.8845 81.2664 26.2187 81.0201 26.1C80.7739 25.9812 80.3737 25.1237 80.2725 24.6751C80.123 24.0287 79.7096 22.9557 79.5469 22.1773C79.3842 21.3989 79.006 20.1456 79.5469 18.6592C79.6876 18.2766 80.7123 14.8068 82.6692 14.3583C84.7933 13.8702 80.9805 15.6468 80.9893 16.3812C81.0201 16.9001 82.2163 15.4313 83.4872 15.4313Z" fill="#333329"/>
<path d="M81.5959 17.7972C82.1035 17.7972 82.515 17.4389 82.515 16.9968C82.515 16.5548 82.1035 16.1965 81.5959 16.1965C81.0883 16.1965 80.6768 16.5548 80.6768 16.9968C80.6768 17.4389 81.0883 17.7972 81.5959 17.7972Z" fill="white"/>
<path opacity="0.1" d="M85.057 20.8271C85.0262 20.5017 84.3226 20.5369 84.0631 21.1086C83.9576 21.3461 83.7597 22.2432 83.4035 22.4279C83.0473 22.6126 82.5987 21.9881 82.3437 21.865C82.2558 21.8209 82.16 21.7948 82.0619 21.7883C81.9638 21.7817 81.8654 21.7948 81.7725 21.8267C81.6795 21.8587 81.5938 21.9088 81.5205 21.9743C81.4472 22.0398 81.3876 22.1192 81.3454 22.208C81.2787 22.4304 81.2696 22.6661 81.3188 22.893C81.368 23.1198 81.474 23.3305 81.6269 23.5053C81.7983 23.638 82.0027 23.7217 82.218 23.7472C82.4334 23.7728 82.6516 23.7393 82.8494 23.6504C83.1264 23.5141 85.1581 21.7594 85.057 20.8271Z" fill="white"/>
<path opacity="0.1" d="M39.2689 14.0724C40.553 13.3336 41.0851 14.7497 42.0834 15.0531C43.0816 15.3565 44.5108 14.3407 46.0412 14.4726C47.5716 14.6046 51.0061 14.8596 52.2595 16.2097C53.415 17.5424 54.9129 18.5339 56.5911 19.0769C58.6442 19.6503 60.6426 20.4038 62.5631 21.3285C64.5113 22.3224 65.2017 23.7076 66.6309 24.3145C68.0601 24.9214 70.149 24.9214 71.952 25.2688C73.7551 25.6162 76.7499 27.0718 77.3128 27.7051C77.8757 28.3384 75.4086 28.8705 74.6302 28.7429C73.8518 28.6154 72.2643 27.9733 70.8394 27.6303C68.302 27.0191 67.4797 26.1967 66.3451 25.7262C65.5447 25.3963 64.4585 25.691 62.827 24.8466C61.6176 24.2002 60.6282 22.7753 59.0274 21.9046C57.4267 21.0339 56.4856 21.0251 55.2762 20.7524C54.0669 20.4798 53.0774 20.5501 50.949 19.697C49.4274 19.0813 48.5874 18.0611 47.0791 17.3707C46.1512 16.9309 44.8802 17.3707 44.4405 17.4586C42.6814 17.8764 39.9417 17.3707 39.9417 17.3707L38.3322 17.1772L38.1299 15.959C38.1299 15.959 38.4817 14.5122 39.2689 14.0724Z" fill="white"/>
<path opacity="0.2" d="M78.8035 33.2197C78.8035 33.2197 78.7156 31.2452 78.1483 30.6779C76.3892 28.9188 71.1868 27.8282 69.7488 27.2785C68.5483 26.8387 66.9431 25.9592 66.3451 25.7261C65.3556 25.3479 64.0803 25.6514 62.9457 24.873C61.8111 24.0946 60.4522 22.7621 58.7811 21.7727C57.11 20.7832 52.7036 20.5633 50.9709 19.7014C49.2383 18.8394 47.7211 17.5245 46.7492 17.2475C45.7773 16.9704 44.6911 17.6873 42.2548 17.5993C41.4193 17.5685 38.3585 17.1595 38.3585 17.1595L38.1562 18.5096C38.1562 18.5096 39.4272 18.6899 41.0411 18.8306C42.655 18.9714 45.6014 19.587 46.6701 19.6266C47.6481 19.6692 48.6123 19.8728 49.5241 20.2291C50.1046 20.4842 55.3202 22.9292 57.7741 23.7472C60.228 24.5652 62.6115 26.2187 63.491 26.4517C64.3705 26.6848 69.3179 28.5846 70.9054 28.7781C72.4929 28.9716 74.7181 29.5565 75.8395 30.3612C76.9816 31.1401 77.9837 32.1066 78.8035 33.2197Z" fill="#333329"/>
<path opacity="0.2" d="M43.1081 11.6054C43.1785 12.2474 43.5699 13.3952 44.2647 13.7558C45.6699 14.2821 47.1621 14.5373 48.6623 14.5078C49.9816 14.4066 49.8585 13.8262 49.7134 13.5975C49.5682 13.3688 48.1258 12.9422 46.7801 12.5816C45.0827 12.1199 43.9613 11.2843 43.7634 10.1453C43.6364 9.5365 43.6469 8.90699 43.7942 8.30273C43.7942 8.30273 42.9454 10.1497 43.1081 11.6054Z" fill="#333329"/>
<path opacity="0.2" d="M45.5749 12.8807C46.1034 13.0448 46.653 13.1308 47.2064 13.1357C47.3823 13.061 46.0806 12.6476 45.7112 12.4057C45.3418 12.1639 44.6734 11.7593 44.5194 11.8956C44.3655 12.0319 45.2143 12.7531 45.5749 12.8807Z" fill="white"/>
<path opacity="0.3" d="M40.0296 12.6256C40.1351 12.8235 41.1114 11.966 41.5556 11.3063C42.1839 10.5364 42.8548 9.80234 43.5653 9.10751C43.8819 8.76009 45.188 7.37484 44.9198 7.21653C44.6515 7.05821 43.4993 7.35725 43.1871 7.73545C42.8749 8.11364 41.9118 10.0398 41.4017 10.7082C40.8915 11.3767 39.9065 12.4321 40.0296 12.6256Z" fill="white"/>
<path opacity="0.3" d="M77.6999 34.0201C78.3199 34.196 78.2496 33.1801 78.6365 32.9822C79.0235 32.7843 79.4105 32.8503 79.714 32.4589C80.0174 32.0675 80.0966 30.9329 80.1186 30.4536C80.1405 29.9742 80.6375 29.8291 80.5583 28.3999C80.7583 28.0061 81.0332 27.6551 81.3675 27.3664C81.8732 26.9575 82.2162 25.1237 82.2162 25.1237C81.705 25.5538 81.2367 26.0324 80.8178 26.5529C80.6463 26.9135 80.6023 27.5643 80.378 27.6127C80.1537 27.6611 79.5864 26.1395 79.4061 26.2275C79.2258 26.3154 79.6172 27.6567 79.6524 27.9513C79.6876 28.246 79.6876 28.5758 79.5776 28.5538C79.4677 28.5318 79.4149 28.0657 79.195 28.0129C78.9752 27.9601 78.9752 28.7825 78.918 29.4509C78.8608 30.1194 78.2364 30.6207 78.4343 30.8362C78.6322 31.0517 79.2874 30.027 79.3754 29.8511C79.4633 29.6752 79.4589 28.9716 79.7316 29.02C80.0042 29.0683 79.6304 30.6075 79.3754 30.9109C77.8934 32.67 77.1282 32.0719 76.8731 32.4501C76.728 32.6744 77.0842 33.8617 77.6999 34.0201Z" fill="white"/>
<path opacity="0.3" d="M60.9534 26.1351C62.4222 27.0718 66.6219 29.4069 68.6536 29.5828C70.6853 29.7587 72.8534 29.7983 74.0671 30.6646C75.2809 31.531 76.455 32.2962 76.8948 32.9426C77.3346 33.5891 78.2888 32.7095 77.8843 32.1203C76.6566 30.7189 75.0353 29.7197 73.2316 29.253C71.2198 28.8897 69.236 28.3856 67.2948 27.7446C65.1839 27.0058 63.5788 26.5836 62.2639 25.8712C60.949 25.1588 55.298 22.6346 54.4141 22.3971C53.5302 22.1596 49.6383 19.996 48.6972 19.93C47.7561 19.8641 46.9777 20.062 47.246 20.405C47.5142 20.748 49.8846 21.8782 51.2038 22.1376C53.0773 22.5245 54.8956 23.142 56.6173 23.9758C58.2049 24.8422 60.9534 26.1351 60.9534 26.1351Z" fill="white"/>
<path opacity="0.18" d="M66.9828 48.22C66.7981 48.1628 66.0065 46.7116 65.8878 46.8304C65.8658 46.351 65.0654 45.0977 65.448 43.1496C65.7426 41.5928 64.3882 40.511 64.6476 39.8821C64.9071 39.2533 67.0268 38.6508 66.8465 38.2814C66.5078 37.6393 63.0381 38.5408 61.6748 38.9322C60.3116 39.3236 57.4047 38.6552 55.7029 38.0527C54.001 37.4502 49.7924 35.4141 49.1064 34.4466C48.4414 33.2742 48.0042 31.9865 47.8179 30.6515L47.7915 30.6955C48.051 30.159 48.2093 29.6488 47.9586 29.319C47.3518 28.5186 45.4476 28.9936 45.0826 27.7578C44.7176 26.5221 46.5514 26.0736 46.6393 24.3849C46.7273 22.6962 42.8442 22.7358 43.0113 21.5484C43.1784 20.361 45.8478 19.9257 46.6262 19.4507C47.4045 18.9758 44.8935 17.3838 44.8935 17.3838C44.0854 17.5899 43.2491 17.6627 42.4176 17.5993C40.8254 17.4353 39.2243 17.3736 37.6242 17.4146L35.2847 16.2712C35.2847 16.2712 41.0807 28.1009 43.0157 30.8758C49.8892 40.7265 52.088 42.4195 53.4029 42.0853C53.9062 41.9329 54.4419 41.9222 54.9509 42.0545C56.0899 42.4723 57.1497 42.9649 57.0134 43.3386C56.877 43.7124 56.4241 44.0555 56.644 44.3237C56.8638 44.592 58.6361 44.1786 59.2605 44.6623C59.885 45.1461 61.6441 47.3581 62.5939 48.8269C62.9765 49.425 64.696 49.3942 66.1516 48.9412C67.4137 48.6862 67.1851 48.4355 66.9828 48.22ZM47.0923 32.0235V31.9884V32.0235Z" fill="#333329"/>
<path d="M37.3295 19.5563C37.9232 19.5123 40.6981 19.8421 40.509 18.1842C40.3199 16.5263 38.8203 15.1411 37.7693 15.185C36.7183 15.229 35.8871 15.3302 35.3242 16.2801C35.6286 16.8936 35.9815 17.4818 36.3796 18.0391C36.903 18.8527 37.3295 19.5563 37.3295 19.5563Z" fill="#E5E494"/>
<path opacity="0.1" d="M35.5617 16.2712C35.6892 16.4516 36.3533 15.8315 36.9953 15.8623C37.6374 15.8931 38.6049 16.1349 38.8423 16.4032C39.0798 16.6714 40.0781 17.6917 40.0561 17.9907C40.0341 18.2898 40.0561 18.3337 40.1572 18.3513C40.2558 17.9528 40.2274 17.5334 40.076 17.1518C39.9246 16.7702 39.6578 16.4455 39.3129 16.2229C38.6073 15.7186 37.7567 15.4577 36.8898 15.4797C36.0718 15.5061 35.4298 16.0778 35.5617 16.2712Z" fill="#333329"/>
<path opacity="0.6" d="M38.4158 16.368C38.6981 16.5429 39.0248 16.6329 39.3569 16.6274C39.5416 16.5615 39.4536 16.1129 39.0798 15.9194C38.706 15.7259 38.0728 15.5104 37.8925 15.6248C37.7122 15.7391 38.1211 16.1525 38.4158 16.368Z" fill="white"/>
<path d="M55.0123 41.5884C53.8865 41.65 53.5655 42.336 53.1037 42.336C52.642 42.336 51.1116 41.7863 50.3904 42.336C49.6692 42.8857 48.8908 43.6553 49.4669 44.8471C50.043 46.0388 50.5663 46.7205 51.4282 46.8656C52.2902 47.0107 54.401 46.7205 55.0387 45.986C55.7417 45.3826 56.5 44.8466 57.3035 44.3853C57.8839 44.0115 59.322 44.5656 59.322 44.5656C59.322 44.5656 56.8109 41.4917 55.0123 41.5884Z" fill="#42855E"/>
<path opacity="0.3" d="M51.912 44.3941C52.1743 44.3941 52.3869 44.2129 52.3869 43.9895C52.3869 43.766 52.1743 43.5849 51.912 43.5849C51.6496 43.5849 51.437 43.766 51.437 43.9895C51.437 44.2129 51.6496 44.3941 51.912 44.3941Z" fill="white"/>
<path opacity="0.3" d="M54.0403 45.6694C54.0403 45.9552 53.9963 46.03 54.2998 46.1091C54.6032 46.1883 55.8301 46.3686 55.9885 46.5489C56.1673 46.6669 56.3684 46.7473 56.5793 46.7851C56.7902 46.8229 57.0067 46.8173 57.2154 46.7688C57.7783 46.6808 59.2339 46.6676 59.146 46.4082C59.058 46.1487 58.3544 45.8893 58.2093 46.0168C57.791 46.1864 57.3408 46.263 56.89 46.2411C56.5426 46.2411 55.5179 46.1619 55.4475 46.1751C55.3772 46.1883 54.6692 46.0168 54.568 45.8453C54.4669 45.6738 54.0403 45.6694 54.0403 45.6694Z" fill="white"/>
<path opacity="0.2" d="M70.9054 47.3185C70.133 47.2183 69.4282 46.8265 68.9353 46.2235C68.6318 45.8409 67.528 44.2973 67.1762 44.4908C66.8244 44.6843 67.0619 46.76 67.1762 47.0459C67.2905 47.3317 67.7391 48.5235 68.3855 48.2728C69.032 48.0221 70.2062 47.3361 70.9054 47.3185Z" fill="#333329"/>
<path opacity="0.3" d="M58.8296 49.2754C58.7592 48.7741 58.082 48.928 58.0952 49.016C58.1084 49.1039 58.3854 49.5481 57.9061 49.5481C57.4267 49.5481 56.147 48.8928 55.483 48.9324C54.8189 48.972 51.3228 48.5366 51.2568 48.7565C51.1909 48.9764 52.2507 49.1215 52.8048 49.1215C53.7188 49.1228 54.6309 49.2023 55.5313 49.359C56.257 49.5349 57.1541 50.498 57.7697 50.5068C58.3854 50.5156 58.9703 50.2605 58.8296 49.2754Z" fill="white"/>
<path opacity="0.3" d="M44.7703 48.5498C45.0278 48.5498 45.2365 48.4199 45.2365 48.2596C45.2365 48.0993 45.0278 47.9694 44.7703 47.9694C44.5129 47.9694 44.3042 48.0993 44.3042 48.2596C44.3042 48.4199 44.5129 48.5498 44.7703 48.5498Z" fill="white"/>
<path opacity="0.3" d="M47.8484 48.84C48.0257 48.84 48.1694 48.7396 48.1694 48.6158C48.1694 48.4919 48.0257 48.3915 47.8484 48.3915C47.6711 48.3915 47.5273 48.4919 47.5273 48.6158C47.5273 48.7396 47.6711 48.84 47.8484 48.84Z" fill="white"/>
<path opacity="0.3" d="M43.5521 46.1707C43.7901 46.1707 43.983 46.0684 43.983 45.9421C43.983 45.8158 43.7901 45.7134 43.5521 45.7134C43.314 45.7134 43.1211 45.8158 43.1211 45.9421C43.1211 46.0684 43.314 46.1707 43.5521 46.1707Z" fill="white"/>
<path opacity="0.3" d="M43.0904 45.3835C43.53 45.3835 43.8864 45.1768 43.8864 44.9218C43.8864 44.6668 43.53 44.46 43.0904 44.46C42.6508 44.46 42.2944 44.6668 42.2944 44.9218C42.2944 45.1768 42.6508 45.3835 43.0904 45.3835Z" fill="white"/>
<path opacity="0.3" d="M46.1599 48.84C46.3372 48.84 46.4809 48.7396 46.4809 48.6158C46.4809 48.4919 46.3372 48.3915 46.1599 48.3915C45.9826 48.3915 45.8389 48.4919 45.8389 48.6158C45.8389 48.7396 45.9826 48.84 46.1599 48.84Z" fill="white"/>
<path opacity="0.15" d="M40.7685 43.7916C40.7993 43.431 40.2408 43.5673 40.1397 43.8619C39.8922 44.6026 39.8922 45.4036 40.1397 46.1443C40.4255 46.9535 41.758 47.6747 41.9295 47.6747C42.101 47.6747 42.189 47.1338 41.9295 47.1558C41.4326 47.1909 40.5443 46.5049 40.3771 45.7133C40.1177 44.4732 40.7378 44.1522 40.7685 43.7916Z" fill="white"/>
<path opacity="0.15" d="M42.668 49.6932C42.3337 48.607 42.9626 47.9078 42.7427 47.5911C42.5976 47.3713 42.2722 48.0925 42.2018 48.541C42.1314 48.9896 42.0611 50.0274 42.5492 50.5024C43.0374 50.9773 43.8289 51.118 43.9081 50.9421C44.0488 50.6387 42.9934 50.8322 42.668 49.6932Z" fill="white"/>
<path opacity="0.2" d="M61.2879 53.352C61.4814 53.3872 61.2879 52.0547 61.156 51.7865C61.0241 51.5182 59.696 49.5129 59.5025 49.2315C59.309 48.95 59.0056 49.4206 59.0143 49.6009C59.0231 49.7812 59.6432 50.0406 59.7488 50.5068C59.8543 50.9729 59.696 51.3863 59.9686 51.8261C60.2413 52.2658 61.0373 53.3125 61.2879 53.352Z" fill="#333329"/>
<path opacity="0.2" d="M71.0639 50.8893C70.7033 50.8893 70.7033 52.2086 70.6769 52.578C70.6505 52.9474 70.1316 53.8973 70.2152 54.2799C70.2214 54.3504 70.2478 54.4176 70.2912 54.4735C70.3346 54.5295 70.3931 54.5717 70.4598 54.5954C70.5265 54.619 70.5986 54.623 70.6675 54.6068C70.7364 54.5906 70.7992 54.555 70.8484 54.5042C71.1757 53.8159 71.3569 53.0672 71.3805 52.3054C71.3673 51.5094 71.4245 50.8937 71.0639 50.8893Z" fill="#333329"/>
<path opacity="0.2" d="M64.4802 51.1136C64.8936 50.8894 65.584 52.2394 65.7995 52.8023C66.015 53.3652 66.5999 55.2958 66.3888 56.2413C66.1777 57.1868 64.3747 58.0487 63.7502 57.8332C63.4908 57.7409 64.5286 57.3011 64.832 57.0416C65.1355 56.7822 65.7116 56.5447 65.6148 55.2826C65.5181 54.0205 64.7353 52.2526 64.6297 51.9272C64.5242 51.6018 64.3659 51.1752 64.4802 51.1136Z" fill="#333329"/>
<path d="M52.4707 41.9534C53.0776 41.8127 55.1533 41.3333 55.8261 41.7995C56.4989 42.2656 57.1454 43.088 56.9739 43.4398C56.9438 43.5298 56.9361 43.6257 56.9514 43.7194C56.9667 43.813 57.0046 43.9015 57.0617 43.9773C57.1188 44.053 57.1935 44.1137 57.2794 44.1542C57.3652 44.1946 57.4596 44.2136 57.5544 44.2094C58.2301 44.1707 58.9017 44.3378 59.4805 44.6887C60.1885 45.1769 61.3715 47.081 61.3715 47.081C61.3715 47.081 60.0082 48.2156 59.1507 48.2332C58.2932 48.2508 55.1225 46.6501 54.6343 46.3554C54.1462 46.0608 55.7425 45.0361 55.4347 44.3941C55.1269 43.752 52.4707 41.9534 52.4707 41.9534Z" fill="#42855E"/>
<path opacity="0.2" d="M61.1383 50.2605C61.2702 50.155 59.9421 48.7917 59.2121 48.5015C58.9131 48.3827 55.5533 48.4267 55.329 47.9913C55.1047 47.556 55.2498 47.0195 55.0432 46.8919C54.8365 46.7644 53.6711 46.8919 53.6183 46.6105C53.596 46.4303 53.6226 46.2474 53.6954 46.0811C53.7681 45.9147 53.8843 45.771 54.0317 45.665C54.4055 45.3088 55.263 44.3809 55.8479 44.6184C56.3892 44.824 56.9776 44.8728 57.5454 44.7591C58.0155 44.6622 58.5024 44.6849 58.9614 44.825C59.2474 44.9151 59.5423 44.9741 59.841 45.001C59.841 45.001 58.3458 43.1539 57.2244 43.1803C56.9165 43.1803 56.9561 43.2991 56.5955 43.5805C56.2349 43.862 53.8514 45.4715 53.6183 45.5902C53.3852 45.709 53.3369 46.5533 53.0246 46.6413C52.7124 46.7292 51.0545 47.1074 50.43 46.2939C49.8056 45.4803 49.4845 44.4556 49.2603 44.6184C49.036 44.7811 49.0228 45.278 49.0976 45.5375C49.1723 45.7969 49.467 46.9227 50.3509 47.2965C51.2348 47.6703 52.6157 47.8506 53.1786 48.0749C53.8888 48.34 54.6263 48.5259 55.3774 48.629C55.9271 48.6818 57.7917 48.563 58.3722 48.7697C58.9526 48.9764 60.9931 50.3793 61.1383 50.2605Z" fill="#333329"/>
<path opacity="0.2" d="M53.0158 41.8347C53.0158 41.8347 52.299 41.8742 52.4397 42.1205C52.5804 42.3668 52.9982 42.7845 53.1609 43C53.3236 43.2155 53.8161 43.7696 53.803 44.1478C53.7898 44.526 53.8645 44.9394 54.058 44.9922C54.3485 45.0068 54.6382 44.951 54.9024 44.8294C55.0343 44.7547 53.7854 43.4662 53.671 43.2507C53.5567 43.0352 52.9278 42.5295 53.007 42.3228C53.0503 42.1633 53.0533 41.9956 53.0158 41.8347Z" fill="#333329"/>
</g>
<defs>
<filter id="filter0_d" x="-111" y="-20" width="1446" height="106" filterUnits="userSpaceOnUse" color-interpolation-filters="sRGB">
<feFlood flood-opacity="0" result="BackgroundImageFix"/>
<feColorMatrix in="SourceAlpha" type="matrix" values="0 0 0 0 0 0 0 0 0 0 0 0 0 0 0 0 0 0 127 0"/>
<feOffset dy="1"/>
<feGaussianBlur stdDeviation="1.5"/>
<feColorMatrix type="matrix" values="0 0 0 0 0 0 0 0 0 0 0 0 0 0 0 0 0 0 0.06 0"/>
<feBlend mode="normal" in2="BackgroundImageFix" result="effect1_dropShadow"/>
<feBlend mode="normal" in="SourceGraphic" in2="effect1_dropShadow" result="shape"/>
</filter>
<linearGradient id="paint0_linear" x1="80.9276" y1="25.713" x2="66.4066" y2="61.9494" gradientUnits="userSpaceOnUse">
<stop stop-color="#749B27"/>
<stop offset="0.95" stop-color="#55731D"/>
</linearGradient>
<clipPath id="clip0">
<rect width="1440" height="930" fill="white" transform="translate(-108 -18)"/>
</clipPath>
</defs>
</svg>
