<?xml version="1.0" encoding="UTF-8" standalone="no"?>
<svg
   xmlns:dc="http://purl.org/dc/elements/1.1/"
   xmlns:cc="http://creativecommons.org/ns#"
   xmlns:rdf="http://www.w3.org/1999/02/22-rdf-syntax-ns#"
   xmlns:svg="http://www.w3.org/2000/svg"
   xmlns="http://www.w3.org/2000/svg"
   xmlns:sodipodi="http://sodipodi.sourceforge.net/DTD/sodipodi-0.dtd"
   xmlns:inkscape="http://www.inkscape.org/namespaces/inkscape"
   width="184"
   height="62"
   viewBox="0 0 184 62"
   fill="none"
   version="1.1"
   id="svg175"
   sodipodi:docname="logo2.svg"
   inkscape:version="0.92.5 (2060ec1f9f, 2020-04-08)">
  <metadata
     id="metadata179">
    <rdf:RDF>
      <cc:Work
         rdf:about="">
        <dc:format>image/svg+xml</dc:format>
        <dc:type
           rdf:resource="http://purl.org/dc/dcmitype/StillImage" />
      </cc:Work>
    </rdf:RDF>
  </metadata>
  <sodipodi:namedview
     pagecolor="#ffffff"
     bordercolor="#666666"
     borderopacity="1"
     objecttolerance="10"
     gridtolerance="10"
     guidetolerance="10"
     inkscape:pageopacity="0"
     inkscape:pageshadow="2"
     inkscape:window-width="1855"
     inkscape:window-height="1056"
     id="namedview177"
     showgrid="false"
     inkscape:zoom="1.0307933"
     inkscape:cx="-269.64051"
     inkscape:cy="-69.235468"
     inkscape:window-x="65"
     inkscape:window-y="24"
     inkscape:window-maximized="1"
     inkscape:current-layer="svg175" />
  <rect
     width="184"
     height="62"
     fill="#E5E5E5"
     id="rect2" />
  <rect
     style="fill:#ffffff"
     y="-18"
     x="-108"
     id="rect4"
     height="930"
     width="1440" />
  <g
     style="filter:url(#filter0_d)"
     id="g8">
    <rect
       style="fill:#ffffff"
       id="rect6"
       height="100"
       width="1440"
       y="-18"
       x="-108" />
  </g>
  <path
     style="fill:#000000"
     inkscape:connector-curvature="0"
     id="path10"
     d="m 114.634,50.8807 c -0.103,0 -0.19,-0.0318 -0.262,-0.0954 -0.064,-0.0715 -0.095,-0.159 -0.095,-0.2624 v -8.9573 h 0.715 v 8.9573 c 0,0.1034 -0.036,0.1909 -0.107,0.2624 -0.064,0.0636 -0.147,0.0954 -0.251,0.0954 z m -3.375,-8.671 c -0.095,0 -0.175,-0.0278 -0.238,-0.0835 -0.056,-0.0636 -0.084,-0.1431 -0.084,-0.2385 0,-0.0955 0.028,-0.171 0.084,-0.2267 0.063,-0.0636 0.143,-0.0954 0.238,-0.0954 h 6.751 c 0.095,0 0.171,0.0318 0.226,0.0954 0.064,0.0557 0.096,0.1312 0.096,0.2267 0,0.0954 -0.032,0.1749 -0.096,0.2385 -0.055,0.0557 -0.131,0.0835 -0.226,0.0835 z" />
  <path
     style="fill:#000000"
     inkscape:connector-curvature="0"
     id="path12"
     d="m 131.053,51 c -0.684,0 -1.316,-0.1193 -1.896,-0.3578 -0.581,-0.2385 -1.09,-0.5725 -1.527,-1.0019 -0.429,-0.4373 -0.763,-0.9462 -1.002,-1.5267 -0.238,-0.5804 -0.358,-1.2126 -0.358,-1.8964 0,-0.6838 0.12,-1.312 0.358,-1.8845 0.239,-0.5804 0.573,-1.0853 1.002,-1.5147 0.437,-0.4374 0.946,-0.7753 1.527,-1.0138 0.58,-0.2386 1.212,-0.3578 1.896,-0.3578 0.684,0 1.312,0.1192 1.885,0.3578 0.58,0.2385 1.085,0.5764 1.514,1.0138 0.438,0.4294 0.776,0.9343 1.014,1.5147 0.239,0.5725 0.358,1.2007 0.358,1.8845 0,0.6838 -0.119,1.316 -0.358,1.8964 -0.238,0.5805 -0.576,1.0894 -1.014,1.5267 -0.429,0.4294 -0.934,0.7634 -1.514,1.0019 C 132.365,50.8807 131.737,51 131.053,51 Z m 0,-0.7156 c 0.573,0 1.105,-0.0994 1.598,-0.2982 0.493,-0.2067 0.923,-0.493 1.289,-0.8587 0.373,-0.3738 0.66,-0.8071 0.858,-1.3001 0.207,-0.493 0.31,-1.0297 0.31,-1.6102 0,-0.5725 -0.103,-1.1052 -0.31,-1.5982 -0.198,-0.493 -0.485,-0.9224 -0.858,-1.2882 -0.366,-0.3737 -0.796,-0.6599 -1.289,-0.8587 -0.493,-0.2068 -1.025,-0.3101 -1.598,-0.3101 -0.58,0 -1.117,0.1033 -1.61,0.3101 -0.493,0.1988 -0.926,0.485 -1.3,0.8587 -0.366,0.3658 -0.652,0.7952 -0.859,1.2882 -0.199,0.493 -0.298,1.0257 -0.298,1.5982 0,0.5805 0.099,1.1172 0.298,1.6102 0.207,0.493 0.493,0.9263 0.859,1.3001 0.374,0.3657 0.807,0.652 1.3,0.8587 0.493,0.1988 1.03,0.2982 1.61,0.2982 z" />
  <path
     style="fill:#000000"
     inkscape:connector-curvature="0"
     id="path14"
     d="m 145.722,50.8807 c -0.103,0 -0.19,-0.0318 -0.262,-0.0954 -0.064,-0.0715 -0.095,-0.159 -0.095,-0.2624 v -8.5995 c 0,-0.1113 0.031,-0.1987 0.095,-0.2624 0.072,-0.0636 0.159,-0.0954 0.262,-0.0954 h 2.147 c 0.684,0 1.308,0.1153 1.873,0.3459 0.572,0.2227 1.065,0.5447 1.479,0.9661 0.421,0.4135 0.743,0.9025 0.966,1.4671 0.231,0.5645 0.346,1.1887 0.346,1.8725 0,0.6838 -0.115,1.312 -0.346,1.8845 -0.223,0.5646 -0.545,1.0576 -0.966,1.479 -0.414,0.4135 -0.907,0.7355 -1.479,0.9661 -0.565,0.2226 -1.189,0.3339 -1.873,0.3339 z m 0.358,-0.644 h 1.789 c 0.772,0 1.451,-0.175 2.04,-0.5248 0.596,-0.3499 1.061,-0.827 1.395,-1.4313 0.342,-0.6043 0.513,-1.2921 0.513,-2.0634 0,-0.7713 -0.171,-1.4551 -0.513,-2.0515 -0.334,-0.6043 -0.799,-1.0814 -1.395,-1.4312 -0.589,-0.3499 -1.268,-0.5248 -2.04,-0.5248 h -1.789 z" />
  <path
     style="fill:#000000"
     inkscape:connector-curvature="0"
     id="path16"
     d="m 161.23,50.8807 c -0.151,0 -0.258,-0.0596 -0.322,-0.1789 -0.055,-0.1192 -0.055,-0.2306 0,-0.3339 l 3.614,-8.5518 c 0.064,-0.167 0.179,-0.2505 0.346,-0.2505 0.159,0 0.274,0.0835 0.346,0.2505 l 3.626,8.5518 c 0.063,0.1113 0.059,0.2266 -0.012,0.3459 -0.072,0.1113 -0.175,0.1669 -0.31,0.1669 -0.08,0 -0.147,-0.0159 -0.203,-0.0477 -0.048,-0.0397 -0.091,-0.0994 -0.131,-0.1789 l -3.507,-8.3609 h 0.382 l -3.495,8.3609 c -0.032,0.0795 -0.075,0.1392 -0.131,0.1789 -0.056,0.0318 -0.123,0.0477 -0.203,0.0477 z m 0.883,-2.3377 0.286,-0.644 h 4.962 l 0.274,0.644 z" />
  <path
     style="fill:#000000"
     inkscape:connector-curvature="0"
     id="path18"
     d="m 179.491,50.8807 c -0.103,0 -0.19,-0.0318 -0.262,-0.0954 -0.064,-0.0715 -0.095,-0.159 -0.095,-0.2624 V 47.398 l -3.292,-5.2718 c -0.056,-0.0954 -0.08,-0.1829 -0.072,-0.2624 0.016,-0.0875 0.052,-0.159 0.107,-0.2147 0.064,-0.0556 0.144,-0.0835 0.239,-0.0835 0.064,0 0.115,0.0119 0.155,0.0358 0.048,0.0239 0.091,0.0596 0.131,0.1073 l 3.352,5.4627 h -0.525 l 3.304,-5.3792 c 0.055,-0.0874 0.107,-0.1471 0.155,-0.1789 0.055,-0.0318 0.119,-0.0477 0.191,-0.0477 0.095,0 0.171,0.0279 0.226,0.0835 0.056,0.0557 0.088,0.1272 0.096,0.2147 0.016,0.0875 -0.004,0.1749 -0.06,0.2624 l -3.292,5.2718 v 3.1249 c 0,0.1034 -0.036,0.1909 -0.107,0.2624 -0.064,0.0636 -0.147,0.0954 -0.251,0.0954 z" />
  <path
     style="fill:#000000"
     inkscape:connector-curvature="0"
     id="path20"
     d="m 113.505,34.0858 -1.698,-0.4317 11.31,-14.1008 1.209,0.9496 z m -1.093,0.8921 c -0.518,0 -0.777,-0.259 -0.777,-0.777 0,-0.518 0.259,-0.777 0.777,-0.777 h 11.252 c 0.518,0 0.777,0.259 0.777,0.777 0,0.518 -0.259,0.777 -0.777,0.777 z m 0,-14.1872 c -0.518,0 -0.777,-0.259 -0.777,-0.777 0,-0.518 0.259,-0.777 0.777,-0.777 h 11.252 c 0.518,0 0.777,0.259 0.777,0.777 0,0.518 -0.259,0.777 -0.777,0.777 z" />
  <path
     style="fill:#000000"
     inkscape:connector-curvature="0"
     id="path22"
     d="m 134.949,35.1506 c -1.535,0 -2.916,-0.3454 -4.144,-1.036 -1.209,-0.7099 -2.168,-1.6691 -2.878,-2.8778 -0.69,-1.2278 -1.036,-2.5995 -1.036,-4.1151 0,-1.5348 0.346,-2.9065 1.036,-4.1151 0.71,-1.2279 1.669,-2.1871 2.878,-2.8778 1.228,-0.7098 2.609,-1.0647 4.144,-1.0647 1.535,0 2.906,0.3549 4.115,1.0647 1.209,0.6907 2.158,1.6499 2.849,2.8778 0.71,1.2086 1.065,2.5803 1.065,4.1151 l -0.72,1.1511 c 0,1.3046 -0.326,2.4748 -0.978,3.5108 -0.633,1.036 -1.497,1.8609 -2.59,2.4749 -1.094,0.5947 -2.341,0.8921 -3.741,0.8921 z m 0,-1.6116 c 1.208,0 2.283,-0.2782 3.223,-0.8345 0.959,-0.5756 1.707,-1.343 2.244,-2.3022 0.557,-0.9784 0.835,-2.072 0.835,-3.2806 0,-1.2278 -0.278,-2.3214 -0.835,-3.2806 -0.537,-0.9784 -1.285,-1.7458 -2.244,-2.3022 -0.94,-0.5755 -2.015,-0.8633 -3.223,-0.8633 -1.19,0 -2.264,0.2878 -3.223,0.8633 -0.959,0.5564 -1.717,1.3238 -2.274,2.3022 -0.556,0.9592 -0.834,2.0528 -0.834,3.2806 0,1.2086 0.278,2.3022 0.834,3.2806 0.557,0.9592 1.315,1.7266 2.274,2.3022 0.959,0.5563 2.033,0.8345 3.223,0.8345 z m 7.194,1.4389 c -0.268,0 -0.489,-0.0768 -0.662,-0.2302 -0.153,-0.1727 -0.23,-0.3837 -0.23,-0.6331 v -5.2663 l 0.547,-1.7266 h 1.18 v 6.9929 c 0,0.2494 -0.077,0.4604 -0.231,0.6331 -0.153,0.1534 -0.354,0.2302 -0.604,0.2302 z" />
  <path
     style="fill:#000000"
     inkscape:connector-curvature="0"
     id="path24"
     d="m 155.315,35.1506 c -1.497,0 -2.849,-0.3454 -4.058,-1.036 -1.208,-0.6907 -2.168,-1.6307 -2.878,-2.8202 -0.69,-1.1895 -1.055,-2.5324 -1.093,-4.0288 V 13.3662 c 0,-0.2686 0.077,-0.4796 0.23,-0.6331 0.173,-0.1535 0.384,-0.2302 0.633,-0.2302 0.269,0 0.48,0.0767 0.633,0.2302 0.154,0.1535 0.231,0.3645 0.231,0.6331 v 8.9785 c 0.613,-0.9976 1.467,-1.7938 2.561,-2.3885 1.112,-0.5948 2.359,-0.8921 3.741,-0.8921 1.535,0 2.906,0.3549 4.115,1.0647 1.228,0.6907 2.187,1.6403 2.878,2.849 0.709,1.2086 1.064,2.5803 1.064,4.1151 0,1.5348 -0.355,2.9161 -1.064,4.1439 -0.691,1.2087 -1.65,2.1679 -2.878,2.8778 -1.209,0.6906 -2.58,1.036 -4.115,1.036 z m 0,-1.6116 c 1.208,0 2.283,-0.2782 3.223,-0.8345 0.959,-0.5756 1.717,-1.343 2.273,-2.3022 0.557,-0.9784 0.835,-2.0815 0.835,-3.3094 0,-1.2278 -0.278,-2.3213 -0.835,-3.2806 -0.556,-0.9592 -1.314,-1.717 -2.273,-2.2734 -0.94,-0.5755 -2.015,-0.8633 -3.223,-0.8633 -1.19,0 -2.264,0.2878 -3.223,0.8633 -0.96,0.5564 -1.717,1.3142 -2.274,2.2734 -0.537,0.9593 -0.805,2.0528 -0.805,3.2806 0,1.2279 0.268,2.331 0.805,3.3094 0.557,0.9592 1.314,1.7266 2.274,2.3022 0.959,0.5563 2.033,0.8345 3.223,0.8345 z" />
  <path
     style="fill:#000000"
     inkscape:connector-curvature="0"
     id="path26"
     d="m 174.883,35.1506 c -1.535,0 -2.916,-0.3454 -4.144,-1.036 -1.209,-0.7099 -2.168,-1.6691 -2.878,-2.8778 -0.69,-1.2278 -1.036,-2.5995 -1.036,-4.1151 0,-1.5348 0.346,-2.9065 1.036,-4.1151 0.71,-1.2279 1.669,-2.1871 2.878,-2.8778 1.228,-0.7098 2.609,-1.0647 4.144,-1.0647 1.535,0 2.906,0.3549 4.115,1.0647 1.209,0.6907 2.158,1.6499 2.849,2.8778 0.71,1.2086 1.065,2.5803 1.065,4.1151 l -0.72,1.1511 c 0,1.3046 -0.326,2.4748 -0.978,3.5108 -0.633,1.036 -1.497,1.8609 -2.59,2.4749 -1.094,0.5947 -2.341,0.8921 -3.741,0.8921 z m 0,-1.6116 c 1.208,0 2.283,-0.2782 3.223,-0.8345 0.959,-0.5756 1.707,-1.343 2.245,-2.3022 0.556,-0.9784 0.834,-2.072 0.834,-3.2806 0,-1.2278 -0.278,-2.3214 -0.834,-3.2806 -0.538,-0.9784 -1.286,-1.7458 -2.245,-2.3022 -0.94,-0.5755 -2.015,-0.8633 -3.223,-0.8633 -1.19,0 -2.264,0.2878 -3.223,0.8633 -0.959,0.5564 -1.717,1.3238 -2.274,2.3022 -0.556,0.9592 -0.834,2.0528 -0.834,3.2806 0,1.2086 0.278,2.3022 0.834,3.2806 0.557,0.9592 1.315,1.7266 2.274,2.3022 0.959,0.5563 2.033,0.8345 3.223,0.8345 z m 7.194,1.4389 c -0.268,0 -0.489,-0.0768 -0.662,-0.2302 -0.153,-0.1727 -0.23,-0.3837 -0.23,-0.6331 v -5.2663 l 0.547,-1.7266 h 1.18 v 6.9929 c 0,0.2494 -0.077,0.4604 -0.231,0.6331 -0.153,0.1534 -0.354,0.2302 -0.604,0.2302 z" />
  <defs
     id="defs173">
    <filter
       id="filter0_d"
       x="-111"
       y="-20"
       width="1446"
       height="106"
       filterUnits="userSpaceOnUse"
       color-interpolation-filters="sRGB">
      <feFlood
         flood-opacity="0"
         result="BackgroundImageFix"
         id="feFlood150" />
      <feColorMatrix
         in="SourceAlpha"
         type="matrix"
         values="0 0 0 0 0 0 0 0 0 0 0 0 0 0 0 0 0 0 127 0"
         id="feColorMatrix152" />
      <feOffset
         dy="1"
         id="feOffset154" />
      <feGaussianBlur
         stdDeviation="1.5"
         id="feGaussianBlur156" />
      <feColorMatrix
         type="matrix"
         values="0 0 0 0 0 0 0 0 0 0 0 0 0 0 0 0 0 0 0.06 0"
         id="feColorMatrix158" />
      <feBlend
         mode="normal"
         in2="BackgroundImageFix"
         result="effect1_dropShadow"
         id="feBlend160" />
      <feBlend
         mode="normal"
         in="SourceGraphic"
         in2="effect1_dropShadow"
         result="shape"
         id="feBlend162" />
    </filter>
    <linearGradient
       id="paint0_linear"
       x1="80.9276"
       y1="25.713"
       x2="66.4066"
       y2="61.9494"
       gradientUnits="userSpaceOnUse">
      <stop
         stop-color="#749B27"
         id="stop165" />
      <stop
         offset="0.95"
         stop-color="#55731D"
         id="stop167" />
    </linearGradient>
    <clipPath
       id="clip0">
      <rect
         width="1440"
         height="930"
         fill="white"
         transform="translate(-108 -18)"
         id="rect170" />
    </clipPath>
    <style
       id="style2">.cls-1{fill:#091b34;}.cls-1,.cls-5{fill-rule:evenodd;}.cls-2,.cls-5{fill:#9fcb47;}.cls-3{fill:#2b645c;}.cls-4{opacity:0.03;isolation:isolate;}</style>
  </defs>
  <g
     data-name="Layer 2"
     id="Layer_2"
     transform="matrix(0.4082073,0,0,0.4082073,-0.40702198,2.9247095)">
    <g
       data-name="Layer 1"
       id="Layer_1-2">
      <g
         id="zaba">
        <path
           id="path6"
           d="M 54.39,30.1 A 10.07,10.07 0 0 0 64.49,20 13.61,13.61 0 0 0 64.29,17.9 4.54,4.54 0 0 1 60,21 4.5,4.5 0 0 1 60,12 h 0.5 a 10.28,10.28 0 0 0 -6,-2 10.07,10.07 0 0 0 -10.1,10.1 9.9,9.9 0 0 0 9.99,10 z"
           class="cls-1"
           inkscape:connector-curvature="0"
           style="fill:#091b34;fill-rule:evenodd" />
        <path
           id="path8"
           d="m 38.49,19.7 c -0.2,-5.6 5,-14.2 11.4,-16 0.3,-0.1 0.3,-0.6 0,-0.6 -9.8,0.2 -13.9,13.5 -11.7,16.7 0.1,0.2 0.3,0.1 0.3,-0.1 z"
           class="cls-2"
           inkscape:connector-curvature="0"
           style="fill:#9fcb47" />
        <path
           id="path10-3"
           d="M 164,30.1 A 10.07,10.07 0 0 1 153.89,20 a 14.92,14.92 0 0 1 0.2,-2.1 4.54,4.54 0 0 0 4.3,3.1 4.5,4.5 0 0 0 0,-9 h -0.5 a 10.28,10.28 0 0 1 6,-2 10.07,10.07 0 0 1 10.11,10.1 9.9,9.9 0 0 1 -10,10 z"
           class="cls-1"
           inkscape:connector-curvature="0"
           style="fill:#091b34;fill-rule:evenodd" />
        <path
           id="path12-6"
           d="m 179.79,19.7 c 0.2,-5.6 -5,-14.2 -11.4,-16 -0.3,-0.1 -0.3,-0.6 0,-0.6 9.8,0.2 13.9,13.5 11.7,16.7 0,0.2 -0.3,0.1 -0.3,-0.1 z"
           class="cls-2"
           inkscape:connector-curvature="0"
           style="fill:#9fcb47" />
        <path
           style="fill:#8aaaa5;fill-opacity:1"
           id="path14-7"
           d="m 216.89,78.3 c -9.1,-21.4 -39,-4.2 -50.7,9.8 -7.8,8.4 -15.3,22.4 -13,29.2 1.1,3.2 5.5,8.1 8.1,8.7 l 1,0.3 a 6.83,6.83 0 0 1 3.2,1.4 c 3.9,3.2 -0.5,10.4 -5.9,6.8 -1.5,-1 -2,-3.3 -2.4,-4.7 a 1.55,1.55 0 0 0 -0.2,-0.8 c -0.7,-2 -6.6,-10.6 -11,-6.2 -2.9,2.9 -1.6,9.8 -1.3,11 a 8.76,8.76 0 0 0 1.2,2.4 14.68,14.68 0 0 1 2,4.2 c 1.3,5.5 -9.1,6.4 -9.1,0.9 a 14.28,14.28 0 0 1 2,-5.9 c 0.9,-1.6 0.9,-12 -4.2,-12.6 -3,-0.3 -5.6,3.6 -7.1,5.9 a 12.61,12.61 0 0 1 -0.9,1.3 c -0.4,0.4 -0.4,1.3 -0.5,2.3 a 8.25,8.25 0 0 1 -1.1,4.2 4.4,4.4 0 0 1 -7.5,-4.6 8.91,8.91 0 0 1 2.8,-2.5 32.62,32.62 0 0 0 6.6,-5.7 c 3.6,-4.1 7.2,-19 8.7,-26.2 a 2.9,2.9 0 0 0 1.4,0.3 3.9,3.9 0 1 0 -3.9,-3.9 4.55,4.55 0 0 0 0.5,2 77.67,77.67 0 0 0 -10.5,6.4 c -2.8,1.9 -5,3.3 -5.6,3.3 -0.8,0 -1.9,-1.6 -3.3,-3.6 l -0.1,-0.1 c -1.4,-2.2 -3.1,-4.7 -5,-6 a 1.36,1.36 0 0 1 0.7,-1.1 4.71,4.71 0 0 0 1.2,-3.1 3.68,3.68 0 0 0 -4,-3.9 h -0.1 a 3.68,3.68 0 0 0 -4,3.9 4.71,4.71 0 0 0 1.2,3.1 1.36,1.36 0 0 1 0.7,1.1 c -1.9,1.3 -3.6,3.8 -5,6 l -0.1,0.1 c -1.4,2 -2.5,3.6 -3.3,3.6 -0.6,0 -2.8,-1.4 -5.6,-3.3 a 77.67,77.67 0 0 0 -10.5,-6.4 4.55,4.55 0 0 0 0.5,-2 3.9,3.9 0 1 0 -3.9,3.9 2.9,2.9 0 0 0 1.4,-0.3 c 1.5,7.2 5.1,22.1 8.7,26.2 a 32.62,32.62 0 0 0 6.6,5.7 8.91,8.91 0 0 1 2.8,2.5 4.4,4.4 0 0 1 -7.5,4.6 8.25,8.25 0 0 1 -1.1,-4.2 c -0.1,-1 -0.1,-1.9 -0.5,-2.3 a 12.61,12.61 0 0 1 -0.9,-1.3 c -1.5,-2.3 -4.1,-6.2 -7.1,-5.9 -5.1,0.6 -5.1,11 -4.2,12.6 a 14.28,14.28 0 0 1 2,5.9 c 0,5.5 -10.4,4.6 -9.1,-0.9 a 14.68,14.68 0 0 1 2,-4.2 8.76,8.76 0 0 0 1.2,-2.4 c 0.3,-1.2 1.6,-8.1 -1.3,-11 -4.4,-4.4 -10.3,4.2 -11,6.2 a 1.55,1.55 0 0 0 -0.2,0.8 c -0.4,1.4 -0.9,3.7 -2.4,4.7 -5.4,3.6 -9.8,-3.6 -5.9,-6.8 a 6.83,6.83 0 0 1 3.2,-1.4 l 1,-0.3 c 2.6,-0.6 7,-5.5 8.1,-8.7 2.3,-6.8 -5.2,-20.8 -13,-29.2 C 40,74.1 10.09,56.9 1,78.3 c -8.1,19.1 35.9,49.3 44.9,59.5 3.7,4.1 -17.9,7.4 -19.5,13.4 -2.5,9.3 40,1 82.5,1 0.08,0 0.08,-0.09 0.1,0 42.5,0 85,8.3 82.5,-1 -1.6,-6 -23.2,-9.3 -19.5,-13.4 9,-10.2 53,-40.4 44.89,-59.5 z"
           class="cls-3"
           inkscape:connector-curvature="0" />
        <path
           d="m 26.39,151.3 c 1.6,-6 23.2,-9.3 19.5,-13.4 -9,-10.2 -53,-40.4 -44.9,-59.5 11.5,-8.9 14.9,20 51.4,57.2 5.7,11.7 -23.1,11 -13,14.9 12,1.9 70.8,-6.3 69.4,1.9 -42.4,-0.1 -84.79,8.2 -82.4,-1.1 z"
           class="cls-4"
           id="shadow-1"
           inkscape:connector-curvature="0"
           style="opacity:0.02999998;isolation:isolate" />
        <path
           d="m 191.39,151.3 c -1.6,-6 -23.2,-9.3 -19.5,-13.4 9,-10.2 53,-40.4 44.9,-59.5 -11.5,-8.9 -14.9,20 -51.4,57.2 -5.7,11.7 23.1,11 13,14.9 -12,1.9 -70.8,-6.3 -69.4,1.9 42.4,-0.1 84.9,8.2 82.4,-1.1 z"
           class="cls-4"
           id="shadow-2"
           inkscape:connector-curvature="0"
           style="opacity:0.02999998;isolation:isolate" />
        <path
           style="fill:#a0cb48;fill-opacity:1;fill-rule:evenodd"
           id="path18-5"
           d="m 194.09,67.8 c 0,0 -3.06,-5.44 -5.28,-9.25 -2.7,-4.88 -16.93,-23.59 -19.22,-22.45 -8,4.3 -15.4,-0.7 -18.2,-8.4 -4.7,-17.3 5.4,-22.4 9.7,-24.5 1.3,-0.7 2.1,-1.1 1.7,-1.4 -4.4,-4 -11.5,-0.7 -20.8,3.6 -9.09,4.2 -20.17,9.39 -32.75,9.4 C 96.66,14.81 85.58,9.6 76.49,5.4 67.19,1.1 60.09,-2.2 55.69,1.8 c -0.4,0.3 0.4,0.7 1.7,1.4 4.3,2.1 14.4,7.2 9.7,24.5 -2.8,7.7 -10.2,12.7 -18.2,8.4 -1.92,-1 -12.83,11.65 -17.41,19 v 0 c -1.1,1.6 -7.38,12.7 -7.38,12.7 l 1.5,1.1 c 0,0 7.48,-9.36 9.3,-10.8 1.82,-1.44 4.3,-3.1 6.5,-3.1 1.9,0 4.5,2.9 7.6,6.4 4.5,5 9.9,11.1 15.5,11.1 4,0 10.6,-3.1 17.9,-6.5 9.08,-4.19 19.16,-9 26.85,-9 7.69,0 17.77,4.8 26.85,9 7.3,3.4 13.9,6.5 17.9,6.5 5.6,0 11,-6.1 15.5,-11.1 3.1,-3.5 5.7,-6.4 7.6,-6.4 2.2,0 4.57,1.61 6.5,3.1 2.12,1.64 9,10.8 9,10.8 z m -93.7,-17.9 a 8.4,8.4 0 0 1 -1.2,0.4 9.05,9.05 0 0 0 -2,1 c -2.7,1.6 -6.7,3.8 -6.7,0.3 0,-4.6 10.4,-9.4 12.3,-4.9 1,2.4 -0.79,2.8 -2.4,3.2 z m 21,1.4 a 9.05,9.05 0 0 0 -2,-1 8.4,8.4 0 0 1 -1.2,-0.4 c -1.7,-0.4 -3.5,-0.8 -2.4,-3.2 1.9,-4.5 12.3,0.3 12.3,4.9 0,3.5 -4,1.3 -6.7,-0.3 z"
           class="cls-5"
           inkscape:connector-curvature="0" />
      </g>
    </g>
  </g>
</svg>
