<svg width="16" height="18" viewBox="0 0 16 18" fill="none" xmlns="http://www.w3.org/2000/svg">
<path d="M7.89264 8.91589C9.01834 8.91589 9.99311 8.51215 10.7896 7.71557C11.586 6.91912 11.9898 5.94461 11.9898 4.81878C11.9898 3.69334 11.586 2.7187 10.7894 1.92199C9.99285 1.12567 9.01822 0.721924 7.89264 0.721924C6.76681 0.721924 5.79231 1.12567 4.99586 1.92212C4.1994 2.71857 3.79553 3.69321 3.79553 4.81878C3.79553 5.94461 4.1994 6.91925 4.99598 7.7157C5.79257 8.51202 6.7672 8.91589 7.89264 8.91589Z" fill="#749B27"/>
<path d="M15.0615 13.8021C15.0385 13.4706 14.992 13.109 14.9237 12.7272C14.8546 12.3426 14.7657 11.9789 14.6593 11.6466C14.5494 11.303 14.3999 10.9638 14.2151 10.6387C14.0232 10.3013 13.798 10.0075 13.5451 9.76568C13.2808 9.51274 12.9571 9.30938 12.5828 9.16104C12.2099 9.01348 11.7965 8.93873 11.3544 8.93873C11.1807 8.93873 11.0128 9.00998 10.6885 9.22113C10.4889 9.35129 10.2554 9.50184 9.99479 9.66834C9.77196 9.81032 9.47009 9.94335 9.09724 10.0638C8.73347 10.1815 8.36412 10.2412 7.99957 10.2412C7.63502 10.2412 7.2658 10.1815 6.90164 10.0638C6.52918 9.94347 6.22731 9.81045 6.00474 9.66847C5.74661 9.50353 5.51301 9.35298 5.31043 9.221C4.9865 9.00985 4.81844 8.9386 4.64479 8.9386C4.20251 8.9386 3.78929 9.01348 3.41644 9.16117C3.04242 9.30925 2.71862 9.51261 2.454 9.76581C2.20132 10.0077 1.97589 10.3014 1.78434 10.6387C1.59967 10.9638 1.45016 11.3029 1.34011 11.6467C1.23382 11.9791 1.14492 12.3426 1.07588 12.7272C1.00749 13.1085 0.961026 13.4702 0.938055 13.8024C0.915473 14.1279 0.904053 14.4657 0.904053 14.8069C0.904053 15.6949 1.18632 16.4137 1.74294 16.9439C2.29268 17.467 3.02009 17.7324 3.90467 17.7324H12.0953C12.9798 17.7324 13.707 17.4671 14.2569 16.9439C14.8136 16.4141 15.0959 15.6951 15.0959 14.8068C15.0957 14.4641 15.0842 14.126 15.0615 13.8021Z" fill="#749B27"/>
</svg>
