<svg width="53" height="53" viewBox="0 0 53 53" fill="none" xmlns="http://www.w3.org/2000/svg">
<path fill-rule="evenodd" clip-rule="evenodd" d="M4.75512 6.21856H32.9423C34.7733 6.21856 36.2698 7.71508 36.2698 9.54617V48.8986C36.2698 50.7296 34.7734 52.229 32.9423 52.229H4.75512C2.92403 52.229 1.42751 50.7296 1.42751 48.8986V9.54617C1.42751 7.71508 2.92403 6.21856 4.75512 6.21856Z" fill="#FFF8EF"/>
<path fill-rule="evenodd" clip-rule="evenodd" d="M29.9288 6.21856H32.9423C34.7733 6.21856 36.2699 7.71508 36.2699 9.54617V48.8986C36.2699 50.7296 34.7734 52.229 32.9423 52.229H29.9288C31.7598 52.229 33.2564 50.7296 33.2564 48.8986V9.54617C33.2563 7.71508 31.7598 6.21856 29.9288 6.21856Z" fill="#FFF1DD"/>
<path fill-rule="evenodd" clip-rule="evenodd" d="M10.4712 3.49837H12.2259C12.7951 3.49837 12.7951 3.29589 12.9095 2.83815C13.2088 1.65859 14.2799 0.781189 15.5475 0.781189H22.1497C23.4202 0.781189 24.4942 1.66449 24.7877 2.84705C24.8786 3.20791 25.0458 3.49837 25.4714 3.49837H27.2261C28.7226 3.49837 29.9462 4.72213 29.9462 6.21855C29.9462 7.71218 28.7226 8.93574 27.2261 8.93574H10.4711C8.97453 8.93574 7.75388 7.71218 7.75388 6.21855C7.75398 4.72213 8.97464 3.49837 10.4712 3.49837Z" fill="#FFE781"/>
<path fill-rule="evenodd" clip-rule="evenodd" d="M19.1362 0.781189H22.1498C23.4203 0.781189 24.4943 1.66449 24.7877 2.84705C24.8786 3.20791 25.0459 3.49837 25.4715 3.49837H27.2262C28.7227 3.49837 29.9462 4.72213 29.9462 6.21855C29.9462 7.71218 28.7227 8.93574 27.2262 8.93574H24.2126C25.7091 8.93574 26.9327 7.71218 26.9327 6.21855C26.9327 4.72213 25.7091 3.49837 24.2126 3.49837H22.4579C22.0295 3.49837 21.8651 3.20791 21.7742 2.84705C21.4807 1.66449 20.4068 0.781189 19.1362 0.781189Z" fill="#ECBD83"/>
<path fill-rule="evenodd" clip-rule="evenodd" d="M47.6287 51.7066L49.4128 48.6168L51.499 45.0045L47.3527 44.6525L43.1567 45.0045L45.24 48.6168L47.0241 51.7066C47.2178 52.0382 47.4409 52.0294 47.6287 51.7066ZM45.2959 10.6728H49.3601C50.5366 10.6728 51.4991 11.6352 51.4991 12.8119V18.3431H43.1568V12.8119C43.1568 11.6352 44.1193 10.6728 45.2959 10.6728Z" fill="#FFE781"/>
<path fill-rule="evenodd" clip-rule="evenodd" d="M47.6286 51.7066L49.4127 48.6168L51.499 45.0045H48.4824L46.3991 48.6168L45.8209 49.6174L47.0241 51.7066C47.2178 52.0382 47.4409 52.0294 47.6286 51.7066ZM46.3434 10.6728H49.36C50.5366 10.6728 51.4991 11.6352 51.4991 12.8119V18.3431H48.4825V12.8119C48.4825 11.6352 47.52 10.6728 46.3434 10.6728Z" fill="#ECBD83"/>
<path fill-rule="evenodd" clip-rule="evenodd" d="M43.1567 17.8385H51.4991V45.0046H43.1567V17.8385Z" fill="#749B27"/>
<path fill-rule="evenodd" clip-rule="evenodd" d="M48.4825 17.8385H51.4991V45.0046H48.4825V17.8385Z" fill="#749B27"/>
<path d="M30.634 5.4402H32.9405C34.029 5.4402 35.0678 5.87155 35.8395 6.64326C36.582 7.38568 37.0455 8.41276 37.0455 9.54242V11.5525C37.0455 11.9809 36.6963 12.3301 36.2679 12.3301C35.8394 12.3301 35.4903 11.9809 35.4903 11.5525V9.54242C35.4903 8.84121 35.2056 8.20438 34.742 7.74084C34.2608 7.26249 33.6182 6.98662 32.9404 6.98662H30.6339C30.4844 7.64105 30.1527 8.22508 29.692 8.68283C29.061 9.31666 28.1866 9.70981 27.2242 9.70981H20.6043C20.1759 9.70981 19.8297 9.36065 19.8297 8.9322C19.8297 8.50375 20.176 8.15759 20.6043 8.15759H27.2242C27.7582 8.15759 28.2424 7.93752 28.5945 7.58536C28.9465 7.2332 29.1666 6.74616 29.1666 6.21502C29.1666 5.68098 28.9465 5.19684 28.5945 4.84178C28.2424 4.48962 27.7582 4.27244 27.2242 4.27244H25.4696C25.0088 4.27244 24.6742 4.09936 24.4249 3.8235C24.2195 3.59462 24.108 3.32176 24.0346 3.02829C23.9289 2.59984 23.6796 2.22728 23.3422 1.96311C23.0135 1.70784 22.5997 1.55226 22.1478 1.55226H15.5457C15.0939 1.55226 14.6829 1.70494 14.3543 1.96011C13.9288 2.29177 13.7116 2.79942 13.6353 3.11628C13.4418 3.91438 13.3567 4.27234 12.224 4.27234H10.4693C9.93527 4.27234 9.45103 4.48951 9.09597 4.84168C8.74391 5.19673 8.52674 5.68077 8.52674 6.21491C8.52674 6.74605 8.74391 7.23309 9.09597 7.58525C9.45103 7.93741 9.93517 8.15749 10.4693 8.15749H17.0891C17.5176 8.15749 17.8637 8.50375 17.8637 8.9321C17.8637 9.36044 17.5175 9.70971 17.0891 9.70971H10.4693C9.50682 9.70971 8.63243 9.31655 7.9986 8.68273C7.54085 8.22498 7.20919 7.64105 7.05961 6.98652H4.75318C4.05196 6.98652 3.41514 7.27709 2.95159 7.74073C2.48795 8.20438 2.20038 8.8411 2.20038 9.54232V43.3694C2.20038 43.7978 1.85412 44.144 1.42577 44.144C0.997425 44.144 0.648163 43.7977 0.648163 43.3694V9.54242C0.648163 8.41276 1.10881 7.38568 1.85412 6.64326C2.62583 5.87155 3.66161 5.4402 4.75318 5.4402H7.05961C7.20919 4.78878 7.54085 4.20195 7.9986 3.7442C8.63243 3.11328 9.50682 2.72002 10.4693 2.72002H12.1389C12.3208 1.94831 12.7462 1.25289 13.4006 0.742353C13.9964 0.278707 14.7417 -6.10352e-05 15.5457 -6.10352e-05H22.1478C22.9519 -6.10352e-05 23.7002 0.278707 24.293 0.745251C24.9532 1.26169 25.3464 1.91311 25.5546 2.72002H27.2243C28.1867 2.72002 29.0611 3.11328 29.6921 3.7442C30.1528 4.20195 30.4845 4.78878 30.634 5.4402ZM12.3003 45.8314C12.4412 45.9723 12.5292 46.1659 12.5292 46.3831C12.5292 46.8116 12.1829 47.1607 11.7546 47.1607C11.5374 47.1607 11.3409 47.0697 11.2 46.9289L9.49823 45.227L7.79333 46.932C7.48806 47.2342 6.99802 47.2342 6.69285 46.932C6.39059 46.6297 6.39059 46.1367 6.69285 45.8345L8.40076 44.1266L6.69275 42.4217C6.39048 42.1194 6.39048 41.6264 6.69275 41.3243C6.99791 41.019 7.48796 41.019 7.79322 41.3243L9.49813 43.0291L11.2058 41.3243C11.5081 41.019 11.9981 41.019 12.3032 41.3243C12.6055 41.6265 12.6055 42.1195 12.3032 42.4217L10.5955 44.1265L12.3003 45.8314ZM17.7758 43.299C17.3473 43.299 16.9981 42.9528 16.9981 42.5245C16.9981 42.096 17.3473 41.7469 17.7758 41.7469H31.6787C32.1101 41.7469 32.4563 42.096 32.4563 42.5245C32.4563 42.9529 32.1101 43.299 31.6787 43.299H17.7758ZM17.7758 46.5093C17.3473 46.5093 16.9981 46.1601 16.9981 45.7317C16.9981 45.3031 17.3473 44.9569 17.7758 44.9569H27.9374C28.3658 44.9569 28.712 45.3032 28.712 45.7317C28.712 46.1601 28.3657 46.5093 27.9374 46.5093H17.7758ZM17.7758 34.2026C17.3473 34.2026 16.9981 33.8563 16.9981 33.4279C16.9981 32.9995 17.3473 32.6503 17.7758 32.6503H31.6787C32.1101 32.6503 32.4563 32.9995 32.4563 33.4279C32.4563 33.8564 32.1101 34.2026 31.6787 34.2026H17.7758ZM17.7758 37.4128C17.3473 37.4128 16.9981 37.0635 16.9981 36.6352C16.9981 36.2067 17.3473 35.8605 17.7758 35.8605H27.9374C28.3658 35.8605 28.712 36.2068 28.712 36.6352C28.712 37.0635 28.3657 37.4128 27.9374 37.4128H17.7758ZM17.7758 25.1061C17.3473 25.1061 16.9981 24.7599 16.9981 24.3316C16.9981 23.9031 17.3473 23.5539 17.7758 23.5539H31.6787C32.1101 23.5539 32.4563 23.9031 32.4563 24.3316C32.4563 24.76 32.1101 25.1061 31.6787 25.1061H17.7758ZM17.7758 28.3163C17.3473 28.3163 16.9981 27.9672 16.9981 27.5387C16.9981 27.1103 17.3473 26.764 17.7758 26.764H27.9374C28.3658 26.764 28.712 27.1104 28.712 27.5387C28.712 27.9672 28.3657 28.3163 27.9374 28.3163H17.7758ZM17.7758 16.0098C17.3473 16.0098 16.9981 15.6634 16.9981 15.2351C16.9981 14.8065 17.3473 14.4573 17.7758 14.4573H31.6787C32.1101 14.4573 32.4563 14.8065 32.4563 15.2351C32.4563 15.6635 32.1101 16.0098 31.6787 16.0098H17.7758ZM17.7758 19.2199C17.3473 19.2199 16.9981 18.8736 16.9981 18.4423C16.9981 18.0138 17.3473 17.6677 17.7758 17.6677H27.9374C28.3658 17.6677 28.712 18.0139 28.712 18.4423C28.712 18.8736 28.3657 19.2199 27.9374 19.2199H17.7758ZM12.3238 32.3247C12.626 32.0224 13.116 32.0224 13.4213 32.3247C13.7234 32.6269 13.7234 33.1199 13.4213 33.4221L9.10487 37.7385C8.79971 38.0408 8.30966 38.0408 8.0045 37.7385L5.57478 35.3088C5.27252 35.0066 5.27252 34.5136 5.57478 34.2113C5.87995 33.9092 6.36999 33.9092 6.67515 34.2113L8.55613 36.0923L12.3238 32.3247ZM12.3238 23.2283C12.626 22.9261 13.116 22.9261 13.4213 23.2283C13.7234 23.5305 13.7234 24.0235 13.4213 24.3258L9.10487 28.6421C8.79971 28.9472 8.30966 28.9472 8.0045 28.6421L5.57478 26.2125C5.27252 25.9102 5.27252 25.4172 5.57478 25.115C5.87995 24.8127 6.36999 24.8127 6.67515 25.115L8.55613 26.9959L12.3238 23.2283ZM12.3238 14.1317C12.626 13.8294 13.116 13.8294 13.4213 14.1317C13.7234 14.434 13.7234 14.9269 13.4213 15.2293L9.10487 19.5457C8.79971 19.8508 8.30966 19.8508 8.0045 19.5457L5.57478 17.1159C5.27252 16.8138 5.27252 16.3207 5.57478 16.0185C5.87995 15.7163 6.36999 15.7163 6.67515 16.0185L8.55613 17.8994L12.3238 14.1317ZM48.1022 18.6125V44.2234H50.7196V18.6125H48.1022ZM46.5471 44.2234V18.6125H43.9296V29.6603C43.9296 30.0887 43.5833 30.435 43.152 30.435C42.7235 30.435 42.3774 30.0886 42.3774 29.6603C42.3774 24.044 42.3774 18.4247 42.3774 12.8083C42.3774 12.0073 42.706 11.2766 43.2312 10.7485C43.7594 10.2203 44.49 9.89469 45.2911 9.89469H49.3553C50.1593 9.89469 50.8869 10.2203 51.415 10.7485C51.9433 11.2767 52.2718 12.0073 52.2718 12.8083V45.001C52.2718 45.2006 52.2219 45.2856 52.128 45.45L47.9994 52.6038C47.7088 53.1174 46.9548 53.135 46.6556 52.6097L42.5269 45.4617C42.433 45.2914 42.3773 45.2094 42.3773 45.001V33.1756C42.3773 32.7471 42.7235 32.401 43.1519 32.401C43.5832 32.401 43.9295 32.7472 43.9295 33.1756V44.2234H46.5471ZM44.4929 45.7757L47.3246 50.6789L50.1563 45.7757H44.4929ZM49.3553 11.4468H45.2911C44.9184 11.4468 44.578 11.5994 44.3316 11.8457C44.0822 12.0952 43.9296 12.4356 43.9296 12.8082V17.0601H50.7197V12.8082C50.7197 12.4356 50.5671 12.0952 50.3176 11.8457C50.0712 11.5994 49.7308 11.4468 49.3553 11.4468ZM35.4904 15.0707C35.4904 14.6393 35.8395 14.2931 36.268 14.2931C36.6964 14.2931 37.0456 14.6393 37.0456 15.0707V48.8948C37.0456 50.0246 36.582 51.0516 35.8396 51.7969C35.0942 52.5393 34.0703 52.9999 32.9405 52.9999H4.75318C3.62351 52.9999 2.59653 52.5393 1.85412 51.7969C1.10881 51.0516 0.648163 50.0246 0.648163 48.8948V46.8849C0.648163 46.4565 0.997321 46.1102 1.42577 46.1102C1.85422 46.1102 2.20038 46.4566 2.20038 46.8849V48.8948C2.20038 49.5961 2.48795 50.2359 2.95159 50.6965C3.41514 51.1602 4.05196 51.4477 4.75318 51.4477H32.9406C33.6418 51.4477 34.2786 51.1602 34.7422 50.6965C35.2058 50.2359 35.4905 49.5961 35.4905 48.8948V15.0707H35.4904Z" fill="black"/>
</svg>
