<svg width="18" height="16" viewBox="0 0 18 16" fill="none" xmlns="http://www.w3.org/2000/svg">
<path d="M5.2674 4.40564H5.07349L4.71112 6.21792H5.62977L5.2674 4.40564Z" fill="#749B27"/>
<path d="M13.597 8.03018C13.7926 8.55571 14.0528 8.98112 14.3408 9.34309C14.6288 8.98112 14.9192 8.55568 15.1148 8.03018H13.597Z" fill="#749B27"/>
<path d="M16.1833 3.01617H10.5566L11.7298 12.4303C11.7506 12.8154 11.6453 13.1779 11.394 13.4617L9.40723 15.7323H16.1833C16.9328 15.7323 17.5425 15.1226 17.5425 14.3731V4.40559C17.5425 3.65609 16.9328 3.01617 16.1833 3.01617ZM16.1833 8.03015H16.0623C15.8045 8.85724 15.3956 9.50444 14.9708 10.0147C15.3036 10.3189 15.6595 10.5686 16.0134 10.8481C16.2085 11.0043 16.2403 11.2892 16.0837 11.4848C15.9278 11.6801 15.6417 11.7117 15.447 11.5552C15.0625 11.2517 14.7017 10.9977 14.3408 10.6665C13.9799 10.9977 13.6492 11.2517 13.2647 11.5552C13.07 11.7117 12.784 11.6801 12.628 11.4848C12.4714 11.2892 12.5033 11.0043 12.6984 10.8481C13.0522 10.5686 13.3779 10.3189 13.7108 10.0147C13.2859 9.50447 12.9073 8.85728 12.6495 8.03015H12.5285C12.2781 8.03015 12.0754 7.82751 12.0754 7.57708C12.0754 7.32665 12.2781 7.12401 12.5285 7.12401H13.8877V6.67094C13.8877 6.42051 14.0903 6.21787 14.3408 6.21787C14.5912 6.21787 14.7938 6.42051 14.7938 6.67094V7.12401H16.1833C16.4337 7.12401 16.6363 7.32665 16.6363 7.57708C16.6363 7.82751 16.4337 8.03015 16.1833 8.03015Z" fill="#749B27"/>
<path d="M9.45257 1.45822C9.36806 0.779488 8.78801 0.267579 8.10399 0.267579L1.81679 0.267578C1.06729 0.267578 0.457581 0.87729 0.457581 1.62679V11.6547C0.457581 12.4042 1.06729 13.014 1.81679 13.014C4.52524 13.014 8.09375 13.014 10.5818 13.014C10.714 12.8629 10.8248 12.7683 10.8295 12.5711C10.8306 12.5216 9.4587 1.50727 9.45257 1.45822ZM6.63365 8.92747C6.3934 8.97692 6.15004 8.82094 6.1005 8.57217L5.81093 7.12404H4.52992L4.24035 8.57217C4.19169 8.81728 3.9554 8.97834 3.70721 8.92747C3.4621 8.87836 3.3028 8.63989 3.35191 8.39433L4.25802 3.86363C4.30049 3.65213 4.48634 3.49948 4.70224 3.49948H5.63858C5.85449 3.49948 6.04034 3.65213 6.0828 3.86363L6.98894 8.39433C7.03806 8.63989 6.87879 8.87836 6.63365 8.92747Z" fill="#749B27"/>
<path d="M7.3714 13.9201L7.44915 14.5417C7.50098 14.9581 7.77759 15.3826 8.23259 15.5946C9.09125 14.6493 8.57176 15.2212 9.75367 13.9201H7.3714Z" fill="#749B27"/>
</svg>
