<svg width="50" height="48" viewBox="0 0 50 48" fill="none" xmlns="http://www.w3.org/2000/svg">
<path d="M47.8715 22.0091C46.6746 21.0003 44.8887 21.1479 43.8739 22.3455C42.8142 23.4416 39.1887 27.1899 37.418 29.021H37.425C37.0734 27.8138 35.9585 26.9318 34.6381 26.9318H23.6556C23.4657 26.9318 23.2807 26.8921 23.1037 26.8209C21.1194 26.0119 19.0286 25.8105 16.9082 26.1172C13.0797 26.6736 9.89851 28.9391 8.37744 32.7508L16.7932 41.1863L18.1956 39.8325C19.1974 38.8666 20.5345 38.3262 21.9254 38.3262H34.4589C36.4292 38.3262 38.3222 37.5577 39.7335 36.1832L48.2079 26.0067C49.219 24.8106 49.0684 23.0206 47.8715 22.0091Z" fill="#FED2A4"/>
<path d="M15.8625 44.417L12.9465 47.333L2.18994 36.5909L5.12044 33.6749C6.4657 32.3282 8.66441 32.3085 10.0304 33.6749L15.8625 39.507C17.2145 40.856 17.2245 43.0565 15.8625 44.417Z" fill="#749B27"/>
<path d="M23.138 33.1383C23.5082 32.767 23.5082 32.1661 23.138 31.7949C22.7667 31.4243 22.1655 31.4243 21.7942 31.7949C21.4241 32.1661 21.4241 32.767 21.7942 33.1383C22.1655 33.5088 22.7667 33.5088 23.138 33.1383Z" fill="black"/>
<path d="M42.9834 21.3602L42.0421 22.3016L40.1594 24.2784L37.4296 27.1024C36.6765 26.2552 35.5469 25.6904 34.4173 25.6904H23.4037C23.3095 25.6904 23.3095 25.6904 23.2154 25.6904C21.8034 25.1256 20.3914 24.8432 18.8853 24.749C18.4146 24.749 17.0967 24.8432 16.5319 24.9373C15.873 25.0314 15.7789 25.0314 15.7789 25.0314C12.1077 25.7845 9.18952 28.0437 7.58925 31.4325C6.36552 31.3384 5.14178 31.809 4.20045 32.7504L1.28231 35.6685C1.18817 35.7626 1.18817 35.7626 1.09404 35.8568C0.905774 36.2333 0.999908 36.704 1.28231 36.9864L12.0135 47.7176C12.2018 47.9059 12.4842 48 12.6725 48C12.9549 48 13.1431 47.9059 13.3314 47.7176L16.2495 44.7995C17.1909 43.8581 17.6615 42.5403 17.5674 41.2224L18.6029 40.1869C19.4501 39.4339 20.4855 38.9632 21.7093 38.9632H34.229C36.4882 38.9632 38.5592 38.116 40.1594 36.5157C40.1594 36.5157 40.1594 36.4216 40.2536 36.4216L48.7256 26.161C50.0434 24.5608 49.8552 22.2074 48.2549 20.7954C46.6546 19.5717 44.3013 19.76 42.9834 21.3602ZM14.9317 43.4816L12.6725 45.7408L3.25911 36.3274L5.51831 34.0682C6.55378 33.0328 8.15405 33.1269 9.09539 34.0682L14.9317 39.9045C15.9671 40.8459 15.9671 42.4461 14.9317 43.4816ZM47.3136 25.0314L38.8416 35.1978C37.6178 36.4216 35.9234 37.0805 34.229 37.0805H21.7093C20.109 37.0805 18.5087 37.7395 17.285 38.8691L16.9085 39.2456C16.7202 38.9632 16.5319 38.7749 16.3437 38.4925L10.5074 32.6562C10.225 32.3738 9.84845 32.0914 9.47192 31.9032C10.8839 29.0792 13.5197 27.1965 16.8143 26.7258C18.697 26.4434 20.6738 26.6317 22.5565 27.3848C22.8389 27.573 23.1213 27.573 23.4037 27.573H34.4173C35.4528 27.573 36.3 28.4202 36.3 29.4557C36.3 30.4912 35.4528 31.3384 34.4173 31.3384H26.1335C25.5687 31.3384 25.1922 31.809 25.1922 32.2797C25.1922 32.8445 25.6629 33.221 26.1335 33.221H34.4173C36.4882 33.221 38.1826 31.5266 38.1826 29.4557C38.1826 29.2674 38.1826 29.0792 38.1826 28.985C38.3709 28.7968 44.113 22.8664 44.3013 22.6781C44.9602 21.925 46.184 21.7368 46.937 22.4898C47.8784 23.0546 47.9725 24.2784 47.3136 25.0314Z" fill="black"/>
<path d="M37.4263 17.9536V21.9433L14.9263 22.442L14.4263 17.4549L11.9263 3.9897L20.4263 8.97681L25.4263 1.49615L26.4263 0.997437L31.4263 8.97681H32.4263L39.9263 4.48841L37.4263 17.9536Z" fill="#FFE781"/>
<path d="M26.9885 18.3244C26.9885 18.8409 26.5688 19.2596 26.0509 19.2596C25.5334 19.2596 25.1133 18.8409 25.1133 18.3244C25.1133 17.8078 25.5334 17.3892 26.0509 17.3892C26.5688 17.3892 26.9885 17.8078 26.9885 18.3244Z" fill="#020202"/>
<path d="M14.7062 23H37.2089C37.7268 23 38.1465 22.5813 38.1465 22.0652V18.4149L40.9861 3.92022C41.0587 3.54979 40.9008 3.17205 40.5858 2.96272C40.2708 2.75339 39.8606 2.75339 39.5456 2.96272L31.8871 8.05524L26.7818 0.416461C26.6078 0.156356 26.3152 0 26.0017 0C25.6881 0 25.3955 0.156356 25.2215 0.416461L20.1158 8.05488L12.4577 2.96272C12.1434 2.75376 11.7347 2.75303 11.4197 2.9609C11.1051 3.16876 10.9461 3.54467 11.0165 3.91474L13.7685 18.412V22.0652C13.7685 22.5813 14.1883 23 14.7062 23ZM19.8558 10.1302C20.2869 10.4167 20.8689 10.3005 21.156 9.87087L26.0017 2.62115L30.8473 9.87087C31.1345 10.3005 31.7164 10.4167 32.1472 10.1302L38.7142 5.76361L36.4368 17.3891H30.2704C29.7525 17.3891 29.3328 17.8077 29.3328 18.3243C29.3328 18.8409 29.7525 19.2595 30.2704 19.2595H36.2713V21.1299H15.6438V19.2595H21.8321C22.35 19.2595 22.7698 18.8409 22.7698 18.3243C22.7698 17.8077 22.35 17.3891 21.8321 17.3891H15.483L13.2737 5.75338L19.8558 10.1302Z" fill="#020202"/>
</svg>
