<svg width="42" height="48" viewBox="0 0 42 48" fill="none" xmlns="http://www.w3.org/2000/svg">
<path d="M27.1013 12.2034H14.898C14.4489 12.2034 14.0845 11.8389 14.0845 11.3899V6.91516C14.0842 3.10209 17.1863 0 20.9996 0C24.813 0 27.9148 3.10209 27.9148 6.91516V11.3897C27.9148 11.8389 27.5504 12.2034 27.1013 12.2034ZM15.7114 10.5762H26.2876V6.91516C26.2876 3.99946 23.9153 1.62696 20.9994 1.62696C18.0835 1.62696 15.7114 3.99946 15.7114 6.91516V10.5762Z" fill="black"/>
<path d="M38.8977 15.4575H3.10107L5.54175 11.3899H36.457L38.8977 15.4575Z" fill="#8C6B3B"/>
<path d="M38.8979 16.2712H3.10126C2.80785 16.2712 2.5378 16.1134 2.39337 15.8584C2.24893 15.6034 2.2525 15.2907 2.40361 15.0387L4.84429 10.9709C4.99111 10.7256 5.25591 10.5759 5.54193 10.5759H36.4572C36.7432 10.5759 37.008 10.7256 37.1549 10.9709L39.5955 15.0387C39.7464 15.2902 39.7502 15.6034 39.6058 15.8584C39.4613 16.1132 39.1911 16.2712 38.8979 16.2712ZM4.53801 14.644H37.4611L35.9967 12.2034H6.00289L4.53801 14.644Z" fill="black"/>
<path d="M20.9804 17.2511L32.0703 19.8445L34.8489 7.96252L23.759 5.36915L20.9804 17.2511Z" fill="#E5E494"/>
<path d="M32.0713 20.6618C32.0098 20.6618 31.9476 20.6549 31.8849 20.6404L20.7944 18.0465C20.5842 17.9971 20.4023 17.867 20.2884 17.6832C20.1744 17.5002 20.1382 17.279 20.1875 17.069L22.9671 5.18668C23.0692 4.74907 23.5065 4.4764 23.9446 4.57984L35.0351 7.17377C35.2454 7.22311 35.4272 7.35325 35.5411 7.53702C35.6551 7.72007 35.6913 7.94125 35.642 8.15124L32.8624 20.0336C32.7749 20.409 32.4403 20.6618 32.0713 20.6618ZM21.957 16.6474L31.4635 18.8709L33.872 8.57335L24.3655 6.34981L21.957 16.6474Z" fill="black"/>
<path d="M7.99743 19.4728L21.605 17.8642L19.8814 3.28448L6.27388 4.8931L7.99743 19.4728Z" fill="#E5E494"/>
<path d="M7.99615 20.2874C7.58929 20.2874 7.2382 19.983 7.1891 19.569L5.46609 4.99004C5.41366 4.54385 5.73256 4.13938 6.17827 4.08646L19.7855 2.4781C20.0007 2.45283 20.215 2.51385 20.3847 2.64732C20.5544 2.7808 20.6638 2.97648 20.6891 3.19075L22.4121 17.7702C22.4374 17.9842 22.3768 18.2002 22.2429 18.3694C22.1094 18.5391 21.9137 18.6485 21.6999 18.6738L8.09268 20.2817C8.06002 20.2852 8.02785 20.2874 7.99615 20.2874ZM7.17719 5.60712L8.70952 18.5703L20.701 17.1536L19.1687 4.18991L7.17719 5.60712Z" fill="black"/>
<path d="M15.6694 25.569L28.7769 22.4172L25.4599 8.62302L12.3524 11.7749L15.6694 25.569Z" fill="#749B27"/>
<path d="M15.6684 26.3824C15.3012 26.3824 14.9675 26.1321 14.8781 25.7591L11.5612 11.9657C11.4564 11.5288 11.7252 11.0896 12.1621 10.9847L25.2681 7.83303C25.4788 7.78298 25.6993 7.81801 25.883 7.9298C26.0668 8.04254 26.1986 8.22392 26.2492 8.43343L29.566 22.2273C29.6165 22.4373 29.5815 22.6585 29.4687 22.8422C29.356 23.0265 29.1751 23.1578 28.9651 23.2083L15.8591 26.3598C15.7955 26.3755 15.7311 26.3824 15.6684 26.3824ZM13.3331 12.3762L16.2696 24.5881L27.7936 21.8171L24.8572 9.60538L13.3331 12.3762Z" fill="black"/>
<path d="M40.5249 47.1863H1.47412L3.10108 15.4575H38.8977L40.5249 47.1863Z" fill="#FFCE54"/>
<path d="M40.525 48H1.4742C1.25135 48 1.03802 47.9085 0.884291 47.7469C0.731034 47.5853 0.650472 47.3674 0.661675 47.1448L2.28887 15.4161C2.31128 14.9837 2.66832 14.6443 3.10163 14.6443H38.8983C39.3316 14.6443 39.6886 14.9835 39.711 15.4161L41.3382 47.1448C41.3497 47.3677 41.2691 47.5853 41.1156 47.7469C40.9609 47.9085 40.7478 48 40.525 48ZM2.33034 46.3728H39.6686L38.1248 16.2712H3.87412L2.33034 46.3728Z" fill="black"/>
<path d="M27.1013 21.9661C28 21.9661 28.7285 21.2375 28.7285 20.3389C28.7285 19.4402 28 18.7117 27.1013 18.7117C26.2026 18.7117 25.4741 19.4402 25.4741 20.3389C25.4741 21.2375 26.2026 21.9661 27.1013 21.9661Z" fill="#8C6B3B"/>
<path d="M27.1013 22.7795C25.7554 22.7795 24.6606 21.6848 24.6606 20.3389C24.6606 18.9929 25.7554 17.8982 27.1013 17.8982C28.4473 17.8982 29.542 18.9929 29.542 20.3389C29.542 21.6848 28.4473 22.7795 27.1013 22.7795ZM27.1013 19.5254C26.6527 19.5254 26.2878 19.8903 26.2878 20.3389C26.2878 20.7874 26.6527 21.1523 27.1013 21.1523C27.5499 21.1523 27.9148 20.7874 27.9148 20.3389C27.9148 19.8903 27.5499 19.5254 27.1013 19.5254Z" fill="black"/>
<path d="M14.8977 21.9661C15.7964 21.9661 16.5249 21.2375 16.5249 20.3389C16.5249 19.4402 15.7964 18.7117 14.8977 18.7117C13.999 18.7117 13.2705 19.4402 13.2705 20.3389C13.2705 21.2375 13.999 21.9661 14.8977 21.9661Z" fill="#8C6B3B"/>
<path d="M14.8977 22.7795C13.5518 22.7795 12.457 21.6848 12.457 20.3389C12.457 18.9929 13.5518 17.8982 14.8977 17.8982C16.2437 17.8982 17.3384 18.9929 17.3384 20.3389C17.3384 21.6848 16.2437 22.7795 14.8977 22.7795ZM14.8977 19.5254C14.4491 19.5254 14.0842 19.8903 14.0842 20.3389C14.0842 20.7874 14.4491 21.1523 14.8977 21.1523C15.3463 21.1523 15.7112 20.7874 15.7112 20.3389C15.7112 19.8903 15.3463 19.5254 14.8977 19.5254Z" fill="black"/>
<path d="M20.9996 32.5422C17.1866 32.5422 14.0845 29.4402 14.0845 25.6271V21.1526C14.0845 20.7035 14.4489 20.3391 14.898 20.3391C15.347 20.3391 15.7114 20.7035 15.7114 21.1526V25.6271C15.7114 28.5428 18.0837 30.9153 20.9996 30.9153C23.9156 30.9153 26.2878 28.543 26.2878 25.6271V21.4663C26.2471 21.37 26.2252 21.2637 26.2252 21.1526C26.2252 20.7035 26.5896 20.3391 27.0386 20.3391H27.1013C27.5504 20.3391 27.9148 20.7035 27.9148 21.1526V25.6271C27.9148 29.4402 24.8127 32.5422 20.9996 32.5422Z" fill="black"/>
</svg>
