<svg width="14" height="14" viewBox="0 0 14 14" fill="none" xmlns="http://www.w3.org/2000/svg">
<path d="M13.6233 6.08932L13.6223 6.08836L10.9114 0.377686C10.668 0.134155 7.34436 0 7.00011 0C6.65585 0 3.33221 0.134048 3.08868 0.377579L0.380782 6.08537C0.37886 6.0873 0.376937 6.08932 0.375014 6.09125C-0.124864 6.59401 -0.124009 7.40973 0.377471 7.91121C0.606582 8.14043 0.909179 8.27319 1.23271 8.28708C1.24585 8.28836 1.25909 8.289 1.27244 8.289H1.50006V12.4917C1.50006 13.3233 2.17671 14 3.00856 14H5.24284C5.46928 14 5.653 13.8164 5.653 13.5898V10.2949C5.653 9.91542 5.96168 9.60674 6.34119 9.60674H7.65903C8.03853 9.60674 8.34721 9.91542 8.34721 10.2949V13.5898C8.34721 13.8164 8.53082 14 8.75737 14H10.9917C11.8235 14 12.5002 13.3233 12.5002 12.4917V8.289H12.7112C13.0554 8.289 13.379 8.15495 13.6226 7.91142C14.1246 7.40909 14.1249 6.59198 13.6233 6.08932Z" fill="#749B27"/>
</svg>
