<svg width="21" height="24" viewBox="0 0 21 24" fill="none" xmlns="http://www.w3.org/2000/svg">
<path d="M9.85974 11.5607C11.448 11.5607 12.8231 10.991 13.947 9.86713C15.0706 8.74341 15.6404 7.36847 15.6404 5.78003C15.6404 4.19214 15.0707 2.81702 13.9468 1.69293C12.8229 0.569397 11.4478 -0.000244141 9.85974 -0.000244141C8.2713 -0.000244141 6.89636 0.569397 5.77264 1.69312C4.64893 2.81683 4.0791 4.19196 4.0791 5.78003C4.0791 7.36847 4.64893 8.74359 5.77264 9.86731C6.89673 10.9908 8.27185 11.5607 9.85974 11.5607ZM6.76727 2.68756C7.62952 1.82532 8.64099 1.40619 9.85974 1.40619C11.0783 1.40619 12.09 1.82532 12.9524 2.68756C13.8146 3.54999 14.2339 4.56165 14.2339 5.78003C14.2339 6.99878 13.8146 8.01025 12.9524 8.87268C12.09 9.73511 11.0783 10.1542 9.85974 10.1542C8.64136 10.1542 7.62988 9.73492 6.76727 8.87268C5.90485 8.01044 5.48553 6.99878 5.48553 5.78003C5.48553 4.56165 5.90485 3.54999 6.76727 2.68756Z" fill="#749B27"/>
<path d="M19.9748 18.4546C19.9424 17.9869 19.8768 17.4768 19.7803 16.9381C19.6829 16.3954 19.5575 15.8823 19.4073 15.4134C19.2521 14.9287 19.0413 14.4501 18.7804 13.9914C18.5099 13.5153 18.1921 13.1008 17.8354 12.7596C17.4624 12.4028 17.0057 12.1158 16.4777 11.9066C15.9514 11.6984 15.3682 11.5929 14.7444 11.5929C14.4994 11.5929 14.2625 11.6934 13.8049 11.9913C13.5233 12.175 13.1938 12.3874 12.8262 12.6223C12.5118 12.8226 12.0859 13.0103 11.5598 13.1802C11.0466 13.3463 10.5255 13.4305 10.0109 13.4305C9.49677 13.4305 8.97565 13.3463 8.46204 13.1802C7.93652 13.0105 7.51044 12.8228 7.19659 12.6225C6.8324 12.3898 6.50281 12.1774 6.21698 11.9911C5.75977 11.6932 5.52283 11.5927 5.27783 11.5927C4.65381 11.5927 4.0708 11.6984 3.54474 11.9067C3.01703 12.1157 2.56018 12.4026 2.18683 12.7598C1.83014 13.1011 1.51227 13.5155 1.242 13.9914C0.981445 14.4501 0.770508 14.9285 0.615234 15.4136C0.465271 15.8825 0.339844 16.3954 0.242432 16.9381C0.145752 17.4761 0.0803833 17.9864 0.0479737 18.4551C0.0161133 18.9135 0 19.3904 0 19.8724C0 21.1252 0.398254 22.1394 1.18359 22.8874C1.95923 23.6255 2.98535 23.9998 4.23358 23.9998H15.7897C17.0376 23.9998 18.0637 23.6255 18.8395 22.8874C19.6251 22.14 20.0233 21.1254 20.0233 19.8722C20.0231 19.3886 20.0068 18.9116 19.9748 18.4546ZM17.8698 21.8684C17.3573 22.3562 16.6769 22.5933 15.7896 22.5933H4.23358C3.34607 22.5933 2.66565 22.3562 2.15332 21.8686C1.6507 21.3901 1.40643 20.737 1.40643 19.8724C1.40643 19.4227 1.42126 18.9786 1.45093 18.5524C1.47986 18.1342 1.539 17.6747 1.62671 17.1866C1.71332 16.7045 1.82355 16.252 1.95465 15.8424C2.08044 15.4496 2.25201 15.0607 2.46478 14.6861C2.66785 14.329 2.90149 14.0227 3.1593 13.7759C3.40045 13.545 3.70441 13.356 4.06256 13.2143C4.3938 13.0832 4.76605 13.0114 5.17017 13.0006C5.21942 13.0268 5.30713 13.0768 5.44922 13.1694C5.73834 13.3578 6.07159 13.5728 6.44 13.8081C6.85529 14.0729 7.39032 14.312 8.02954 14.5184C8.68304 14.7297 9.34955 14.837 10.0111 14.837C10.6727 14.837 11.3394 14.7297 11.9925 14.5186C12.6323 14.3118 13.1671 14.0729 13.5829 13.8077C13.96 13.5668 14.2839 13.358 14.573 13.1694C14.7151 13.077 14.8028 13.0268 14.8521 13.0006C15.2563 13.0114 15.6286 13.0832 15.96 13.2143C16.318 13.356 16.6219 13.5452 16.8631 13.7759C17.1209 14.0225 17.3546 14.3289 17.5576 14.6863C17.7706 15.0607 17.9423 15.4498 18.0679 15.8422C18.1992 16.2524 18.3096 16.7047 18.3961 17.1864C18.4836 17.6755 18.5429 18.1351 18.5718 18.5526V18.5529C18.6017 18.9775 18.6167 19.4214 18.6169 19.8724C18.6167 20.7372 18.3724 21.3901 17.8698 21.8684Z" fill="#749B27"/>
</svg>
