<?xml version="1.0" encoding="UTF-8" standalone="no"?>
<svg
   xmlns:dc="http://purl.org/dc/elements/1.1/"
   xmlns:cc="http://creativecommons.org/ns#"
   xmlns:rdf="http://www.w3.org/1999/02/22-rdf-syntax-ns#"
   xmlns:svg="http://www.w3.org/2000/svg"
   xmlns="http://www.w3.org/2000/svg"
   xmlns:sodipodi="http://sodipodi.sourceforge.net/DTD/sodipodi-0.dtd"
   xmlns:inkscape="http://www.inkscape.org/namespaces/inkscape"
   viewBox="0 0 217.88 155.72"
   version="1.1"
   id="svg23"
   sodipodi:docname="svg-4 1.svg"
   inkscape:version="0.92.5 (2060ec1f9f, 2020-04-08)">
  <metadata
     id="metadata27">
    <rdf:RDF>
      <cc:Work
         rdf:about="">
        <dc:format>image/svg+xml</dc:format>
        <dc:type
           rdf:resource="http://purl.org/dc/dcmitype/StillImage" />
        <dc:title></dc:title>
      </cc:Work>
    </rdf:RDF>
  </metadata>
  <sodipodi:namedview
     pagecolor="#ffffff"
     bordercolor="#666666"
     borderopacity="1"
     objecttolerance="10"
     gridtolerance="10"
     guidetolerance="10"
     inkscape:pageopacity="0"
     inkscape:pageshadow="2"
     inkscape:window-width="1855"
     inkscape:window-height="1056"
     id="namedview25"
     showgrid="false"
     inkscape:zoom="1.2805214"
     inkscape:cx="-9.371182"
     inkscape:cy="77.860003"
     inkscape:window-x="65"
     inkscape:window-y="24"
     inkscape:window-maximized="1"
     inkscape:current-layer="Layer_2" />
  <defs
     id="defs4">
    <style
       id="style2">.cls-1{fill:#091b34;}.cls-1,.cls-5{fill-rule:evenodd;}.cls-2,.cls-5{fill:#9fcb47;}.cls-3{fill:#2b645c;}.cls-4{opacity:0.03;isolation:isolate;}</style>
  </defs>
  <g
     id="Layer_2"
     data-name="Layer 2">
    <g
       id="Layer_1-2"
       data-name="Layer 1">
      <g
         id="zaba">
        <g
           id="g831">
          <path
             id="path6"
             d="M54.39,30.1A10.07,10.07,0,0,0,64.49,20a13.61,13.61,0,0,0-.2-2.1A4.54,4.54,0,0,1,60,21a4.5,4.5,0,0,1,0-9h.5a10.28,10.28,0,0,0-6-2,10.07,10.07,0,0,0-10.1,10.1A9.9,9.9,0,0,0,54.39,30.1Z"
             class="cls-1" />
          <path
             id="path8"
             d="M38.49,19.7c-.2-5.6,5-14.2,11.4-16,.3-.1.3-.6,0-.6-9.8.2-13.9,13.5-11.7,16.7C38.29,20,38.49,19.9,38.49,19.7Z"
             class="cls-2" />
          <path
             id="path10"
             d="M164,30.1A10.07,10.07,0,0,1,153.89,20a14.92,14.92,0,0,1,.2-2.1,4.54,4.54,0,0,0,4.3,3.1,4.5,4.5,0,0,0,0-9h-.5a10.28,10.28,0,0,1,6-2A10.07,10.07,0,0,1,174,20.1,9.9,9.9,0,0,1,164,30.1Z"
             class="cls-1" />
          <path
             id="path12"
             d="M179.79,19.7c.2-5.6-5-14.2-11.4-16-.3-.1-.3-.6,0-.6,9.8.2,13.9,13.5,11.7,16.7C180.09,20,179.79,19.9,179.79,19.7Z"
             class="cls-2" />
          <path
             style="fill:#8aaaa5;fill-opacity:1"
             id="path14"
             d="M216.89,78.3c-9.1-21.4-39-4.2-50.7,9.8-7.8,8.4-15.3,22.4-13,29.2,1.1,3.2,5.5,8.1,8.1,8.7l1,.3a6.83,6.83,0,0,1,3.2,1.4c3.9,3.2-.5,10.4-5.9,6.8-1.5-1-2-3.3-2.4-4.7a1.55,1.55,0,0,0-.2-.8c-.7-2-6.6-10.6-11-6.2-2.9,2.9-1.6,9.8-1.3,11a8.76,8.76,0,0,0,1.2,2.4,14.68,14.68,0,0,1,2,4.2c1.3,5.5-9.1,6.4-9.1.9a14.28,14.28,0,0,1,2-5.9c.9-1.6.9-12-4.2-12.6-3-.3-5.6,3.6-7.1,5.9a12.61,12.61,0,0,1-.9,1.3c-.4.4-.4,1.3-.5,2.3a8.25,8.25,0,0,1-1.1,4.2,4.4,4.4,0,0,1-7.5-4.6,8.91,8.91,0,0,1,2.8-2.5,32.62,32.62,0,0,0,6.6-5.7c3.6-4.1,7.2-19,8.7-26.2a2.9,2.9,0,0,0,1.4.3,3.9,3.9,0,1,0-3.9-3.9,4.55,4.55,0,0,0,.5,2,77.67,77.67,0,0,0-10.5,6.4c-2.8,1.9-5,3.3-5.6,3.3-.8,0-1.9-1.6-3.3-3.6l-.1-.1c-1.4-2.2-3.1-4.7-5-6a1.36,1.36,0,0,1,.7-1.1,4.71,4.71,0,0,0,1.2-3.1,3.68,3.68,0,0,0-4-3.9h-.1a3.68,3.68,0,0,0-4,3.9,4.71,4.71,0,0,0,1.2,3.1,1.36,1.36,0,0,1,.7,1.1c-1.9,1.3-3.6,3.8-5,6l-.1.1c-1.4,2-2.5,3.6-3.3,3.6-.6,0-2.8-1.4-5.6-3.3a77.67,77.67,0,0,0-10.5-6.4,4.55,4.55,0,0,0,.5-2,3.9,3.9,0,1,0-3.9,3.9,2.9,2.9,0,0,0,1.4-.3c1.5,7.2,5.1,22.1,8.7,26.2a32.62,32.62,0,0,0,6.6,5.7,8.91,8.91,0,0,1,2.8,2.5,4.4,4.4,0,0,1-7.5,4.6,8.25,8.25,0,0,1-1.1-4.2c-.1-1-.1-1.9-.5-2.3a12.61,12.61,0,0,1-.9-1.3c-1.5-2.3-4.1-6.2-7.1-5.9-5.1.6-5.1,11-4.2,12.6a14.28,14.28,0,0,1,2,5.9c0,5.5-10.4,4.6-9.1-.9a14.68,14.68,0,0,1,2-4.2,8.76,8.76,0,0,0,1.2-2.4c.3-1.2,1.6-8.1-1.3-11-4.4-4.4-10.3,4.2-11,6.2a1.55,1.55,0,0,0-.2.8c-.4,1.4-.9,3.7-2.4,4.7-5.4,3.6-9.8-3.6-5.9-6.8a6.83,6.83,0,0,1,3.2-1.4l1-.3c2.6-.6,7-5.5,8.1-8.7,2.3-6.8-5.2-20.8-13-29.2C40,74.1,10.09,56.9,1,78.3c-8.1,19.1,35.9,49.3,44.9,59.5,3.7,4.1-17.9,7.4-19.5,13.4-2.5,9.3,40,1,82.5,1,.08,0,.08-.09.1,0,42.5,0,85,8.3,82.5-1-1.6-6-23.2-9.3-19.5-13.4C181,127.6,225,97.4,216.89,78.3Z"
             class="cls-3" />
          <path
             d="M26.39,151.3c1.6-6,23.2-9.3,19.5-13.4-9-10.2-53-40.4-44.9-59.5,11.5-8.9,14.9,20,51.4,57.2,5.7,11.7-23.1,11-13,14.9,12,1.9,70.8-6.3,69.4,1.9C66.39,152.3,24,160.6,26.39,151.3Z"
             class="cls-4"
             id="shadow-1" />
          <path
             d="M191.39,151.3c-1.6-6-23.2-9.3-19.5-13.4,9-10.2,53-40.4,44.9-59.5-11.5-8.9-14.9,20-51.4,57.2-5.7,11.7,23.1,11,13,14.9-12,1.9-70.8-6.3-69.4,1.9C151.39,152.3,193.89,160.6,191.39,151.3Z"
             class="cls-4"
             id="shadow-2" />
          <path
             style="fill:#a0cb48;fill-opacity:1"
             id="path18"
             d="M194.09,67.8s-3.06-5.44-5.28-9.25c-2.7-4.88-16.93-23.59-19.22-22.45-8,4.3-15.4-.7-18.2-8.4-4.7-17.3,5.4-22.4,9.7-24.5,1.3-.7,2.1-1.1,1.7-1.4-4.4-4-11.5-.7-20.8,3.6-9.09,4.2-20.17,9.39-32.75,9.4S85.58,9.6,76.49,5.4c-9.3-4.3-16.4-7.6-20.8-3.6-.4.3.4.7,1.7,1.4,4.3,2.1,14.4,7.2,9.7,24.5-2.8,7.7-10.2,12.7-18.2,8.4-1.92-1-12.83,11.65-17.41,19h0c-1.1,1.6-7.38,12.7-7.38,12.7l1.5,1.1s7.48-9.36,9.3-10.8,4.3-3.1,6.5-3.1c1.9,0,4.5,2.9,7.6,6.4,4.5,5,9.9,11.1,15.5,11.1,4,0,10.6-3.1,17.9-6.5,9.08-4.19,19.16-9,26.85-9s17.77,4.8,26.85,9c7.3,3.4,13.9,6.5,17.9,6.5,5.6,0,11-6.1,15.5-11.1,3.1-3.5,5.7-6.4,7.6-6.4,2.2,0,4.57,1.61,6.5,3.1,2.12,1.64,9,10.8,9,10.8Zm-93.7-17.9a8.4,8.4,0,0,1-1.2.4,9.05,9.05,0,0,0-2,1c-2.7,1.6-6.7,3.8-6.7.3,0-4.6,10.4-9.4,12.3-4.9C103.79,49.1,102,49.5,100.39,49.9Zm21,1.4a9.05,9.05,0,0,0-2-1,8.4,8.4,0,0,1-1.2-.4c-1.7-.4-3.5-.8-2.4-3.2,1.9-4.5,12.3.3,12.3,4.9C128.09,55.1,124.09,52.9,121.39,51.3Z"
             class="cls-5" />
        </g>
      </g>
    </g>
  </g>
</svg>
