<svg width="120" height="120" viewBox="0 0 120 120" fill="none" xmlns="http://www.w3.org/2000/svg">
<path d="M60 112C31.6364 112 8 88.3636 8 60C8 31.6364 31.6364 8 60 8C88.3636 8 112 31.6364 112 60C112 88.3636 88.3636 112 60 112Z" fill="#CFB5F2"/>
<path d="M96.4638 70.7447C97.9311 72.0121 98.2782 74.1493 97.2874 75.8159L92.0282 84.6622C91.0064 86.3808 88.8725 87.081 87.0312 86.3019L81.7424 84.064C80.5815 83.5728 79.2569 83.6576 78.168 84.2928L71.944 87.924C70.9308 88.5151 70.2281 89.5211 70.0219 90.6759L68.9458 96.7031C68.6052 98.6108 66.946 100 65.0081 100H54.7141C52.7235 100 51.0358 98.5362 50.7543 96.5656L49.9266 90.7704C49.7538 89.561 49.0377 88.4967 47.9824 87.8811L41.7347 84.2361C40.701 83.633 39.4517 83.5245 38.3296 83.9401L32.5086 86.0963C30.6865 86.7713 28.6429 86.0391 27.6639 84.3607L22.72 75.8843C21.7292 74.1856 22.1202 72.0187 23.6421 70.7733L28.2882 66.9715C29.2167 66.2117 29.7551 65.0754 29.7551 63.8758V56.5222C29.7551 55.3226 29.2167 54.1863 28.2882 53.4266L23.6645 49.643C22.1328 48.3896 21.748 46.2045 22.7594 44.5033L27.9718 35.7358C28.9936 34.0172 31.1275 33.317 32.9688 34.0961L38.2576 36.334C39.4185 36.8252 40.7431 36.7404 41.832 36.1052L48.0435 32.4813C49.0639 31.886 49.7689 30.8701 49.9696 29.7059L51.0704 23.3205C51.4012 21.4018 53.0653 20 55.0123 20H65.2859C67.2765 20 68.9642 21.4638 69.2457 23.4344L70.0734 29.2295C70.2462 30.439 70.9623 31.5033 72.0176 32.1189L78.2653 35.7639C79.299 36.367 80.5483 36.4755 81.6704 36.0599L87.4914 33.9037C89.3135 33.2287 91.3571 33.9609 92.3361 35.6393L97.28 44.1157C98.2708 45.8144 97.8798 47.9813 96.3579 49.2267L91.7118 53.0285C90.7833 53.7883 90.2449 54.9246 90.2449 56.1242V63.5426C90.2449 64.705 90.7505 65.8099 91.6302 66.5697L96.4638 70.7447Z" fill="white"/>
<path d="M64 43C64 40.7909 62.2091 39 60 39C57.7909 39 56 40.7909 56 43H64ZM60 60H56V61.6569L57.1716 62.8284L60 60ZM69.1716 74.8284C70.7337 76.3905 73.2663 76.3905 74.8284 74.8284C76.3905 73.2663 76.3905 70.7337 74.8284 69.1716L69.1716 74.8284ZM56 43V60H64V43H56ZM57.1716 62.8284L69.1716 74.8284L74.8284 69.1716L62.8284 57.1716L57.1716 62.8284Z" fill="#CFB5F2"/>
</svg>
