<svg width="31" height="20" viewBox="0 0 31 20" fill="none" xmlns="http://www.w3.org/2000/svg">
<path d="M28.8202 0.131592H1.84655C1.11986 0.131592 0.530762 0.720691 0.530762 1.44738V18.5526C0.530762 19.2793 1.11986 19.8684 1.84655 19.8684H28.8202C29.5469 19.8684 30.136 19.2793 30.136 18.5526V1.44738C30.136 0.720691 29.5469 0.131592 28.8202 0.131592Z" fill="white"/>
<path d="M28.8205 20H1.84678C1.46313 19.9993 1.09539 19.8466 0.824107 19.5753C0.552823 19.304 0.40011 18.9363 0.399414 18.5526L0.399414 1.44737C0.40011 1.06372 0.552823 0.695976 0.824107 0.424693C1.09539 0.153409 1.46313 0.000695654 1.84678 0L28.8205 0C29.2041 0.000695654 29.5719 0.153409 29.8431 0.424693C30.1144 0.695976 30.2671 1.06372 30.2678 1.44737V18.5526C30.2671 18.9363 30.1144 19.304 29.8431 19.5753C29.5719 19.8466 29.2041 19.9993 28.8205 20ZM1.84678 0.263158C1.53292 0.263853 1.23212 0.388841 1.01019 0.610773C0.788255 0.832705 0.663267 1.13351 0.662572 1.44737V18.5526C0.663267 18.8665 0.788255 19.1673 1.01019 19.3892C1.23212 19.6112 1.53292 19.7361 1.84678 19.7368H28.8205C29.1343 19.7361 29.4351 19.6112 29.6571 19.3892C29.879 19.1673 30.004 18.8665 30.0047 18.5526V1.44737C30.004 1.13351 29.879 0.832705 29.6571 0.610773C29.4351 0.388841 29.1343 0.263853 28.8205 0.263158H1.84678Z" fill="black"/>
<path d="M30.136 6.71051H0.530762V13.2895H30.136V6.71051Z" fill="#0039A6"/>
<path d="M1.84655 0.131592H28.8202C29.1692 0.131592 29.5039 0.270219 29.7506 0.516978C29.9974 0.763736 30.136 1.09841 30.136 1.44738V6.71054H0.530762V1.44738C0.530762 1.09841 0.669389 0.763736 0.916148 0.516978C1.16291 0.270219 1.49758 0.131592 1.84655 0.131592Z" fill="white"/>
<path d="M0.530762 13.2895H30.136V18.5526C30.136 18.9016 29.9974 19.2363 29.7506 19.4831C29.5039 19.7298 29.1692 19.8684 28.8202 19.8684H1.84655C1.49758 19.8684 1.16291 19.7298 0.916148 19.4831C0.669389 19.2363 0.530762 18.9016 0.530762 18.5526V13.2895Z" fill="#D00B0E"/>
</svg>
