<svg width="30" height="20" viewBox="0 0 30 20" fill="none" xmlns="http://www.w3.org/2000/svg">
<path d="M28.4867 0.131592H1.51306C0.786365 0.131592 0.197266 0.720691 0.197266 1.44738V18.5526C0.197266 19.2793 0.786365 19.8684 1.51306 19.8684H28.4867C29.2134 19.8684 29.8025 19.2793 29.8025 18.5526V1.44738C29.8025 0.720691 29.2134 0.131592 28.4867 0.131592Z" fill="white"/>
<path d="M28.487 20H1.51329C1.12963 19.9993 0.761894 19.8466 0.490611 19.5753C0.219327 19.304 0.0666136 18.9363 0.065918 18.5526L0.065918 1.44737C0.0666136 1.06372 0.219327 0.695976 0.490611 0.424693C0.761894 0.153409 1.12963 0.000695654 1.51329 0L28.487 0C28.8706 0.000695654 29.2384 0.153409 29.5096 0.424693C29.7809 0.695976 29.9336 1.06372 29.9343 1.44737V18.5526C29.9336 18.9363 29.7809 19.304 29.5096 19.5753C29.2384 19.8466 28.8706 19.9993 28.487 20ZM1.51329 0.263158C1.19943 0.263853 0.898623 0.388841 0.676691 0.610773C0.454759 0.832705 0.329771 1.13351 0.329076 1.44737V18.5526C0.329771 18.8665 0.454759 19.1673 0.676691 19.3892C0.898623 19.6112 1.19943 19.7361 1.51329 19.7368H28.487C28.8008 19.7361 29.1016 19.6112 29.3236 19.3892C29.5455 19.1673 29.6705 18.8665 29.6712 18.5526V1.44737C29.6705 1.13351 29.5455 0.832705 29.3236 0.610773C29.1016 0.388841 28.8008 0.263853 28.487 0.263158H1.51329Z" fill="black"/>
<path d="M0.197266 10H29.8025V18.5526C29.8025 18.9016 29.6639 19.2363 29.4171 19.483C29.1704 19.7298 28.8357 19.8684 28.4867 19.8684H1.51306C1.16409 19.8684 0.82941 19.7298 0.582651 19.483C0.335893 19.2363 0.197266 18.9016 0.197266 18.5526V10Z" fill="#FFD445"/>
<path d="M1.51306 0.131592H28.4867C28.8357 0.131592 29.1704 0.270219 29.4171 0.516978C29.6639 0.763736 29.8025 1.09841 29.8025 1.44738V10H0.197266V1.44738C0.197266 1.09841 0.335893 0.763736 0.582651 0.516978C0.82941 0.270219 1.16409 0.131592 1.51306 0.131592Z" fill="#0024C6"/>
</svg>
