<svg width="31" height="20" viewBox="0 0 31 20" fill="none" xmlns="http://www.w3.org/2000/svg">
<path d="M29.1537 0.131592H2.18005C1.45336 0.131592 0.864258 0.720691 0.864258 1.44738V18.5526C0.864258 19.2793 1.45336 19.8684 2.18005 19.8684H29.1537C29.8804 19.8684 30.4695 19.2793 30.4695 18.5526V1.44738C30.4695 0.720691 29.8804 0.131592 29.1537 0.131592Z" fill="white"/>
<path d="M29.1535 20H2.17979C1.79614 19.9993 1.4284 19.8466 1.15711 19.5753C0.885831 19.304 0.733118 18.9363 0.732422 18.5526L0.732422 1.44737C0.733118 1.06372 0.885831 0.695976 1.15711 0.424693C1.4284 0.153409 1.79614 0.000695654 2.17979 0L29.1535 0C29.5371 0.000695654 29.9049 0.153409 30.1762 0.424693C30.4474 0.695976 30.6001 1.06372 30.6008 1.44737V18.5526C30.6001 18.9363 30.4474 19.304 30.1762 19.5753C29.9049 19.8466 29.5371 19.9993 29.1535 20ZM2.17979 0.263158C1.86593 0.263853 1.56513 0.388841 1.34319 0.610773C1.12126 0.832705 0.996275 1.13351 0.99558 1.44737V18.5526C0.996275 18.8665 1.12126 19.1673 1.34319 19.3892C1.56513 19.6112 1.86593 19.7361 2.17979 19.7368H29.1535C29.4673 19.7361 29.7681 19.6112 29.9901 19.3892C30.212 19.1673 30.337 18.8665 30.3377 18.5526V1.44737C30.337 1.13351 30.212 0.832705 29.9901 0.610773C29.7681 0.388841 29.4673 0.263853 29.1535 0.263158H2.17979Z" fill="black"/>
<path d="M0.864258 10H30.4695V18.5526C30.4695 18.9016 30.3309 19.2363 30.0841 19.483C29.8374 19.7298 29.5027 19.8684 29.1537 19.8684H2.18005C1.83108 19.8684 1.4964 19.7298 1.24964 19.483C1.00289 19.2363 0.864258 18.9016 0.864258 18.5526V10Z" fill="#DC143C"/>
<path d="M2.18005 0.131592H29.1537C29.5027 0.131592 29.8374 0.270219 30.0841 0.516978C30.3309 0.763736 30.4695 1.09841 30.4695 1.44738V10H0.864258V1.44738C0.864258 1.09841 1.00289 0.763736 1.24964 0.516978C1.4964 0.270219 1.83108 0.131592 2.18005 0.131592Z" fill="white"/>
</svg>
