<svg width="43" height="52" viewBox="0 0 43 52" fill="none" xmlns="http://www.w3.org/2000/svg">
<path d="M34.9161 35.7486H7.34851C5.27999 39.4358 3.82837 45.2214 10.6697 49.98C11.8587 50.807 13.2785 51.2377 14.7268 51.2377H27.5379C28.9861 51.2377 30.4061 50.807 31.595 49.98C38.4363 45.2214 36.9847 39.4358 34.9161 35.7486Z" fill="#FFB25A"/>
<path d="M9.39548 42.3335C9.39548 39.9403 10.0983 37.694 11.3284 35.7487H7.34839C5.27987 39.4359 3.82824 45.2215 10.6696 49.9801C11.3709 50.4679 12.1529 50.8166 12.9734 51.0217C10.7425 48.6804 9.39548 45.6475 9.39548 42.3335Z" fill="#FF9C20"/>
<path d="M34.9161 35.7485C31.6432 38.0307 26.6833 38.625 21.1323 38.625C15.5813 38.625 10.6214 38.0307 7.34848 35.7485C8.60013 33.5173 10.0772 32.0546 10.0772 32.0546H32.1876C32.1876 32.0546 33.6645 33.5173 34.9161 35.7485Z" fill="#FC5C70"/>
<path d="M4.50364 0.779156C3.22731 0.830039 2.12647 1.69017 1.7508 2.91105C0.844353 5.85676 -0.112059 11.7288 3.71531 17.8924L16.3498 4.60003C16.3498 4.60003 12.5898 0.456798 4.50364 0.779156Z" fill="#FF8F00"/>
<path d="M14.1157 7.30327C14.1157 7.30327 14.1297 7.31993 14.1592 7.34999C14.0369 7.22507 11.4284 4.63442 5.805 4.63442C5.80378 4.63442 5.80266 4.63442 5.80144 4.63442C5.59161 4.63442 5.40971 4.77833 5.35802 4.98166C4.73087 7.45064 4.33072 11.77 7.15374 16.3161L14.1157 7.30327Z" fill="#FFBFC5"/>
<path d="M37.761 0.779156C39.0373 0.830039 40.1382 1.69017 40.5138 2.91105C41.4203 5.85676 42.3767 11.7288 38.5493 17.8924L25.9149 4.60003C25.9149 4.60003 29.6748 0.456798 37.761 0.779156Z" fill="#FF9C20"/>
<path d="M28.1489 7.30327C28.1489 7.30327 28.1349 7.31993 28.1055 7.34999C28.2277 7.22507 30.8363 4.63442 36.4597 4.63442H36.4632C36.6731 4.63442 36.8549 4.77833 36.9066 4.98166C37.5338 7.45064 37.9339 11.77 35.1109 16.3161L28.1489 7.30327Z" fill="#FFBFC5"/>
<path d="M14.7667 32.0546H10.0772C10.0772 32.0546 8.60023 33.5173 7.34848 35.7485C8.27016 36.3912 9.32569 36.8999 10.4905 37.2994C11.4201 35.2509 12.8999 33.4541 14.7667 32.0546Z" fill="#F8485E"/>
<path d="M38.4297 25.8146C36.4676 32.1882 29.4671 33.5285 21.1323 33.5285C12.7975 33.5285 5.79714 32.1881 3.83496 25.8146L19.1233 4.06299C19.7828 3.98854 20.4535 3.95086 21.1323 3.95086C21.8112 3.95086 22.4819 3.98854 23.1413 4.06299L38.4297 25.8146Z" fill="#FDE9B6"/>
<path d="M7.93676 20.8092C7.93676 20.52 7.94498 20.2327 7.9592 19.9468L3.83496 25.8146C5.14887 30.0824 8.72204 32.0933 13.442 32.9562C10.0264 29.9339 7.93676 25.7558 7.93676 20.8092Z" fill="#F9D888"/>
<path d="M3.83496 25.8145C3.47614 24.6515 3.28561 23.3193 3.28561 21.7975C3.28561 12.6199 10.2127 5.06079 19.1233 4.06294C19.1233 4.06294 22.2382 25.8145 3.83496 25.8145Z" fill="#FFB25A"/>
<path d="M38.9791 21.7976C38.9791 23.3194 38.7885 24.6516 38.4297 25.8146C20.0265 25.8146 23.1414 4.06287 23.1414 4.06287C32.052 5.06082 38.9791 12.6199 38.9791 21.7976Z" fill="#FFB25A"/>
<path d="M21.1324 41.0725C22.4841 41.0725 23.5799 39.9767 23.5799 38.625C23.5799 37.2732 22.4841 36.1774 21.1324 36.1774C19.7806 36.1774 18.6848 37.2732 18.6848 38.625C18.6848 39.9767 19.7806 41.0725 21.1324 41.0725Z" fill="#F9D888"/>
<path d="M7.93677 20.8091C7.93677 13.514 12.4798 7.18852 19.1224 4.06294C10.2122 5.0612 3.28552 12.6201 3.28552 21.7974C3.28552 23.3192 3.47615 24.6514 3.83487 25.8144C5.59261 25.8144 7.15342 25.6155 8.54005 25.2564C8.1469 23.8587 7.93677 22.3727 7.93677 20.8091Z" fill="#FF9C20"/>
<path d="M21.9025 24.4743C21.9025 24.0536 21.5615 23.7126 21.1408 23.7126C20.7201 23.7126 20.3791 24.0536 20.3791 24.4743C20.3791 25.1546 19.8256 25.7081 19.1452 25.7081C18.4648 25.7081 17.9113 25.1546 17.9113 24.4743C17.9113 24.0536 17.5703 23.7126 17.1496 23.7126C16.7289 23.7126 16.3879 24.0536 16.3879 24.4743C16.3879 26.9563 19.4297 28.1708 21.1408 26.374C22.8515 28.1703 25.8937 26.9574 25.8937 24.4743C25.8937 24.0536 25.5527 23.7126 25.132 23.7126C24.7113 23.7126 24.3703 24.0536 24.3703 24.4743C24.3703 25.1546 23.8167 25.7081 23.1364 25.7081C22.456 25.7081 21.9025 25.1546 21.9025 24.4743Z" fill="black"/>
<path d="M11.3069 18.2969C10.8862 18.2969 10.5451 18.6379 10.5451 19.0586V21.0594C10.5451 21.4801 10.8862 21.8211 11.3069 21.8211C11.7275 21.8211 12.0686 21.4801 12.0686 21.0594V19.0586C12.0686 18.6379 11.7275 18.2969 11.3069 18.2969Z" fill="black"/>
<path d="M30.9244 18.2969C30.5037 18.2969 30.1627 18.6379 30.1627 19.0586V21.0594C30.1627 21.4801 30.5037 21.8211 30.9244 21.8211C31.345 21.8211 31.6861 21.4801 31.6861 21.0594V19.0586C31.6861 18.6379 31.3451 18.2969 30.9244 18.2969Z" fill="black"/>
<path d="M19.1187 21.6632C19.1187 22.2975 20.0181 22.8117 21.1275 22.8117C22.237 22.8117 23.1363 22.2975 23.1363 21.6632C23.1363 21.0289 22.237 21.0226 21.1275 21.0226C20.0181 21.0226 19.1187 21.0289 19.1187 21.6632Z" fill="black"/>
<path d="M0.917302 8.51191C1.33848 8.52531 1.68948 8.19534 1.70289 7.77487C1.76545 5.80832 2.15687 4.16636 2.47415 3.1353C2.75609 2.21921 3.58189 1.57825 4.52926 1.54047C8.93696 1.36477 12.4796 2.58057 14.8108 4.28997C14.0159 4.57759 13.2425 4.91742 12.4841 5.31574C11.0783 4.61771 8.86109 3.87295 5.79656 3.87295C5.23867 3.87305 4.7529 4.25198 4.61508 4.79443C4.13327 6.6911 3.78146 9.6166 4.77372 12.9162C4.23869 13.9005 3.80319 14.9161 3.47423 15.9015C2.65016 14.2306 2.10771 12.4813 1.85685 10.6807C1.79876 10.2641 1.41384 9.97329 0.997333 10.0314C0.580624 10.0895 0.289952 10.4743 0.347944 10.8909C0.695389 13.3852 1.55582 15.7849 2.90355 18.0295C1.94278 22.6891 3.09774 26.0047 3.10221 26.0388C3.99159 28.9278 5.85607 30.9991 8.78533 32.3448C6.4301 35.1395 4.56075 38.8507 4.90474 42.5334C5.19429 45.6331 6.98595 48.3489 10.2299 50.6053C11.5411 51.5173 13.0945 51.9995 14.722 51.9995H16.2044H16.2045H16.2047H26.0503H26.0505H26.0508H27.533C29.1605 51.9995 30.7138 51.5174 32.0251 50.6054C34.3898 48.9606 35.9941 47.0543 36.7934 44.9395C36.9421 44.5461 36.7438 44.1064 36.3502 43.9577C35.9566 43.809 35.5171 44.0074 35.3684 44.4009C34.6799 46.2224 33.2624 47.8891 31.1552 49.3549C30.1117 50.0807 28.8744 50.4674 27.5746 50.4755C28.5693 48.992 29.4612 47.048 29.4612 44.8442C29.4612 44.4235 29.1201 44.0825 28.6994 44.0825C28.2788 44.0825 27.9377 44.4235 27.9377 44.8442C27.9377 47.1217 26.7631 49.1227 25.6889 50.4762H21.8894V44.8442C21.8894 44.4235 21.5483 44.0825 21.1277 44.0825C20.707 44.0825 20.366 44.4235 20.366 44.8442V50.476H16.5663C15.4922 49.1225 14.3175 47.1215 14.3175 44.844C14.3175 44.4233 13.9765 44.0822 13.5558 44.0822C13.1351 44.0822 12.7941 44.4233 12.7941 44.844C12.7941 47.0478 13.6859 48.9918 14.6805 50.4753C13.3807 50.4672 12.1434 50.0805 11.0998 49.3546C8.24136 47.3664 6.66735 45.0237 6.42157 42.3917C6.25856 40.6468 6.66481 38.7814 7.62955 36.8373C10.6231 38.6027 14.5109 39.1386 17.9926 39.3133C18.3076 40.7515 19.596 41.8344 21.1276 41.8344C22.6458 41.8344 23.9451 40.7654 24.2626 39.3133C27.6957 39.1407 31.6743 38.5971 34.6255 36.8373C35.4573 38.515 35.8747 40.1409 35.8674 41.6801C35.8654 42.1008 36.2049 42.4434 36.6256 42.4454C37.0431 42.4475 37.3889 42.1079 37.3908 41.6872C37.4067 38.2909 35.6347 34.9138 33.4697 32.3447C38.2913 30.1296 38.9499 26.4043 39.1527 26.0391C39.9121 23.5769 39.8784 20.5858 39.3519 18.0311C43.1481 11.7115 42.1703 5.71986 41.237 2.68711C40.7652 1.15423 39.3786 0.0816332 37.7865 0.0181568C30.7212 -0.263475 26.8148 2.7254 25.6878 3.75321C22.7497 3.01252 19.6004 2.98855 16.5673 3.75321C15.4404 2.7255 11.534 -0.263475 4.46853 0.0182584C2.87644 0.0817348 1.48981 1.15423 1.01805 2.68721C0.516639 4.31657 0.234804 6.01205 0.180265 7.72632C0.166859 8.14679 0.496835 8.4985 0.917302 8.51191ZM18.444 4.92219C19.0943 12.4256 17.1844 21.016 10.1186 23.9259C8.31002 24.6718 6.35464 24.9921 4.40668 25.0445C4.16486 24.0692 4.04258 22.9799 4.04258 21.7978C4.04258 13.2615 10.3096 6.19954 18.444 4.92219ZM6.03573 5.39791C8.08323 5.42594 9.6871 5.81594 10.8699 6.26962C8.96123 7.52939 7.25936 9.17166 5.8972 11.1043C5.46678 8.82929 5.69875 6.82628 6.03573 5.39791ZM31.9684 32.9403C32.3854 33.4048 33.1462 34.3126 33.8837 35.505C31.1473 37.1432 27.3933 37.6291 24.2258 37.7892C23.848 36.3903 22.571 35.4157 21.1276 35.4157C19.6958 35.4157 18.4096 36.3816 18.0294 37.7893C14.8296 37.6246 11.1218 37.1482 8.37146 35.5051C9.10891 34.3126 9.86971 33.4048 10.2867 32.9404C13.5621 34.0627 17.6851 34.2904 21.1276 34.2904C24.588 34.2903 28.7065 34.0587 31.9684 32.9403ZM21.1276 40.3109C20.1973 40.3109 19.4417 39.5488 19.4418 38.625L19.442 38.6186C19.4458 37.6885 20.2127 36.9391 21.1276 36.9391C22.0181 36.9391 22.7785 37.6519 22.8105 38.5661C22.8436 39.5302 22.0717 40.3109 21.1276 40.3109ZM23.8119 4.92229C27.5019 5.50191 30.9112 7.29824 33.5008 10.0175C37.5493 14.2685 38.9963 20.4135 37.8485 25.0445C26.9989 24.7515 22.887 15.7095 23.8119 4.92229ZM31.3853 6.26972C32.5676 5.81624 34.171 5.42634 36.2194 5.39801C36.5563 6.82638 36.7883 8.82939 36.358 11.1044C35.0437 9.23209 33.3897 7.60597 31.3853 6.26972ZM27.4443 4.28997C29.7753 2.58047 33.3187 1.36467 37.7259 1.54037C38.6733 1.57815 39.4991 2.21901 39.781 3.1351C40.5726 5.70737 41.3989 10.5952 38.781 15.9017C38.4577 14.9334 38.0118 13.8926 37.4814 12.9161C38.4736 9.6164 38.1218 6.691 37.64 4.79432C37.5023 4.25198 37.0164 3.87305 36.4548 3.87285C33.3936 3.87285 31.1767 4.6176 29.771 5.31564C29.004 4.91274 28.2005 4.56134 27.4443 4.28997ZM22.2933 4.75187C21.2342 16.237 25.8663 26.0155 37.3441 26.5514C35.4701 30.8954 30.527 32.767 21.1275 32.767C11.728 32.767 6.78486 30.8954 4.91083 26.5514C7.7043 26.421 10.4557 25.7549 12.8493 24.2246C18.9581 20.3223 20.6196 11.9072 19.9605 4.75197C20.7341 4.69977 21.5197 4.69977 22.2933 4.75187Z" fill="black"/>
</svg>
