<svg width="18" height="19" viewBox="0 0 18 19" fill="none" xmlns="http://www.w3.org/2000/svg">
<path d="M9.00002 0.721924C4.14047 0.721924 0.187256 4.67513 0.187256 9.53469C0.187256 14.3942 4.14047 18.3475 9.00002 18.3475C13.8596 18.3475 17.8128 14.3942 17.8128 9.53469C17.8128 4.67513 13.8596 0.721924 9.00002 0.721924ZM12.8556 10.269H9.73437V13.3903C9.73437 13.7957 9.40545 14.1246 9.00002 14.1246C8.59459 14.1246 8.26567 13.7957 8.26567 13.3903V10.269H5.14444C4.739 10.269 4.41008 9.94012 4.41008 9.53469C4.41008 9.12925 4.739 8.80034 5.14444 8.80034H8.26567V5.6791C8.26567 5.27367 8.59459 4.94475 9.00002 4.94475C9.40545 4.94475 9.73437 5.27367 9.73437 5.6791V8.80034H12.8556C13.261 8.80034 13.59 9.12925 13.59 9.53469C13.59 9.94012 13.261 10.269 12.8556 10.269Z" fill="#749B27"/>
</svg>
