<svg width="40" height="40" viewBox="0 0 40 40" fill="none" xmlns="http://www.w3.org/2000/svg">
<path d="M17.0834 18.75H1.25C0.559998 18.75 0 18.19 0 17.5C0 16.81 0.559998 16.25 1.25 16.25H17.0834C17.7734 16.25 18.3334 16.81 18.3334 17.5C18.3334 18.19 17.7734 18.75 17.0834 18.75Z" fill="#749B27"/>
<path d="M10.8337 25C10.5135 25 10.1937 24.8782 9.9502 24.6335C9.46191 24.1449 9.46191 23.3533 9.9502 22.865L15.317 17.4985L9.9502 12.1335C9.46191 11.6449 9.46191 10.8533 9.9502 10.365C10.4385 9.87671 11.2301 9.87671 11.7187 10.365L17.9687 16.615C18.457 17.1033 18.457 17.8949 17.9687 18.3835L11.7187 24.6335C11.4736 24.8782 11.1535 25 10.8337 25Z" fill="#749B27"/>
<path d="M26.6666 40C24.8282 40 23.3335 38.5049 23.3335 36.6666V6.66656C23.3335 5.24169 24.2402 3.97003 25.59 3.50158L35.6034 0.163264C37.8434 -0.523381 40.0001 1.1383 40.0001 3.33343V33.3334C40.0001 34.7568 39.0934 36.0266 37.7451 36.4966L27.7283 39.8367C27.3633 39.9499 27.0252 40 26.6666 40ZM36.6666 2.49999C36.5583 2.49999 36.4667 2.51342 36.3685 2.54333L26.3969 5.86822C26.07 5.98175 25.8335 6.31164 25.8335 6.66656V36.6666C25.8335 37.2351 26.45 37.6184 26.9651 37.4567L36.9367 34.1318C37.2617 34.0182 37.5001 33.6883 37.5001 33.3334V3.33343C37.5001 2.87506 37.1268 2.49999 36.6666 2.49999Z" fill="#749B27"/>
<path d="M14.5835 8.33344C13.8935 8.33344 13.3335 7.77344 13.3335 7.08344V4.58344C13.3335 2.05505 15.3882 0 17.9166 0H36.6666C37.3566 0 37.9166 0.559998 37.9166 1.25C37.9166 1.94 37.3566 2.5 36.6666 2.5H17.9166C16.7682 2.5 15.8335 3.43506 15.8335 4.58344V7.08344C15.8335 7.77344 15.2735 8.33344 14.5835 8.33344Z" fill="#749B27"/>
<path d="M24.5835 35H17.9166C15.3882 35 13.3335 32.9449 13.3335 30.4166V27.9166C13.3335 27.2266 13.8935 26.6666 14.5835 26.6666C15.2735 26.6666 15.8335 27.2266 15.8335 27.9166V30.4166C15.8335 31.5649 16.7682 32.5 17.9166 32.5H24.5835C25.2735 32.5 25.8335 33.06 25.8335 33.75C25.8335 34.44 25.2735 35 24.5835 35Z" fill="#749B27"/>
</svg>
