<svg viewBox="0 0 210 151" fill="none" xmlns="http://www.w3.org/2000/svg">
<path fill-rule="evenodd" clip-rule="evenodd" d="M153.071 62.1506C142.16 86.8098 134.064 113.441 127.733 135.314C127.661 135.604 127.704 135.911 127.854 136.171C128.003 136.43 128.248 136.621 128.535 136.704C128.823 136.788 129.131 136.756 129.396 136.617C129.661 136.477 129.861 136.241 129.956 135.957C136.287 114.091 144.347 87.5958 155.186 63.0724C166.026 38.5489 163.975 37.5128 153.071 62.1506Z" fill="#32663D"/>
<path d="M137.995 104.474C147.741 87.1315 153.586 91.4474 164.926 78.7927C178.503 63.6513 210 71.247 210 71.247C210 71.247 206.427 98.2571 193.873 114.306C159.667 160.688 103.61 141.28 103.61 141.28C111.728 120.137 141.367 93.6982 137.995 104.474Z" fill="#749B27"/>
<path opacity="0.3" d="M137.995 104.474C147.741 87.1315 153.586 91.4474 164.926 78.7927C178.503 63.6513 210 71.247 210 71.247C210 71.247 206.427 98.2571 193.873 114.306C159.667 160.688 103.61 141.28 103.61 141.28C111.728 120.137 141.367 93.6982 137.995 104.474Z" fill="#333329"/>
<path d="M71.0053 38.7561C72.8203 39.2277 78.501 41.4428 84.3532 42.186C90.2054 42.9291 109.098 46.6019 109.098 46.6019L125.576 52.5041L140.153 58.8636C140.153 58.8636 149.52 61.3646 149.592 61.7218C149.663 62.0791 166.805 67.2882 167.006 67.8813C167.206 68.4744 172.236 72.8832 172.236 72.8832C172.236 72.8832 172.443 77.3491 172.393 77.5921C172.343 77.835 170.014 83.8015 161.761 87.7459C156.1 90.6062 151.625 95.3667 149.12 101.194C141.26 119.529 118.044 132.684 118.044 132.684C118.044 132.684 84.2674 107.989 74.8496 77.5849C70.8124 64.5586 60.287 52.3255 57.5575 49.16C56.6214 48.0739 71.0053 38.7561 71.0053 38.7561Z" fill="#E5E494"/>
<path d="M169.663 25.5583C168.663 25.7726 163.175 27.9949 159.881 27.5876C156.587 27.1803 146.64 21.2066 142.91 19.6418C139.18 18.0769 133.886 16.5263 132.135 15.9547C128.098 14.647 126.418 0.806152 111.641 0.806152C96.4215 0.806152 93.2632 14.2397 88.9901 18.4413C88.2756 19.1559 83.8668 25.7941 81.8446 28.0592C79.8224 30.3243 75.6566 31.7606 73.3343 34.6474C72.3677 35.9038 71.5768 37.2861 70.9834 38.7561L74.056 44.0652C77.6898 42.4533 81.6938 41.8604 85.6389 42.3503C92.3986 43.1291 97.2289 43.9008 110.034 47.6237C122.839 51.3465 135.365 59.8139 152.571 64.8158C156.737 66.0305 164.197 68.2099 166.612 69.5247C168.663 70.6323 170.556 71.7255 171.135 72.633C171.983 74.1385 172.366 75.8618 172.236 77.5849C172.236 77.5849 174.172 77.2848 174.865 75.8271C175.558 74.3694 175.215 72.0971 175.58 71.3325C176.023 70.5056 176.332 69.6131 176.494 68.6887C176.544 67.9027 176.337 67.2596 176.652 66.7594C176.966 66.2592 178.752 64.5371 179.188 63.3938C179.624 62.2506 180.482 59.3995 180.482 59.3995C180.482 59.3995 189.178 40.4996 188.806 39.685C188.434 38.8704 187.984 37.7914 187.634 37.2055C187.284 36.6195 187.105 34.7117 186.534 33.8256C185.048 31.5033 182.018 28.1092 178.102 26.6444C175.38 25.594 172.507 24.9366 169.663 25.5583Z" fill="#42845D"/>
<path d="M117.573 10.5099C116.329 7.24439 111.642 1.83522 105.425 3.27862C98.7941 4.8292 94.421 10.6742 92.5632 14.9115C91.0626 18.3414 88.6903 24.7009 92.9634 27.9593C97.2364 31.2176 104.968 31.1891 108.769 29.7099C112.571 28.2308 116.472 25.0653 117.58 20.4207C118.837 15.2188 118.394 12.6607 117.573 10.5099Z" fill="#E5E494"/>
<path d="M102.617 31.0318C99.209 31.0318 95.4718 30.253 92.7994 28.2236C88.0119 24.5794 91.2345 17.2052 92.2921 14.7829C94.3214 10.0954 98.8731 4.47903 105.376 2.94988C112.021 1.3993 116.744 7.40869 117.88 10.3812C118.788 12.7464 119.138 15.3831 117.93 20.4636C116.937 24.6294 113.571 28.195 108.92 30.01C106.895 30.7164 104.762 31.0623 102.617 31.0318ZM107.526 3.36432C106.852 3.36403 106.181 3.44318 105.526 3.60013C99.2518 5.09354 94.8859 10.467 92.8923 15.0473C91.8848 17.3481 88.8194 24.3365 93.1924 27.702C97.5655 31.0675 105.097 30.8175 108.677 29.3883C113.136 27.652 116.351 24.2579 117.251 20.3064C118.423 15.376 118.095 12.8607 117.251 10.6099C116.315 8.12325 112.693 3.36432 107.526 3.36432Z" fill="#333329"/>
<path d="M113.443 20.5922C119.516 12.9108 111.471 3.9717 103.925 6.52266C98.7516 8.30189 95.7505 12.3105 95.3503 16.5264C94.9788 20.4636 96.5508 25.101 102.274 25.4583C104.395 25.6538 106.531 25.3102 108.483 24.4595C110.436 23.6088 112.142 22.2785 113.443 20.5922Z" fill="#333329"/>
<path d="M111.642 16.8264C113.639 16.8264 115.258 15.6683 115.258 14.2398C115.258 12.8112 113.639 11.6531 111.642 11.6531C109.645 11.6531 108.026 12.8112 108.026 14.2398C108.026 15.6683 109.645 16.8264 111.642 16.8264Z" fill="white"/>
<path d="M141.118 30.6888C140.76 30.06 137.409 30.4887 136.637 30.7531C134.494 31.4677 132.45 34.4545 135.208 36.3695C136.88 37.5271 138.581 35.9979 139.253 35.2548C139.924 34.5117 141.846 31.9964 141.118 30.6888Z" fill="#E5E494"/>
<path d="M140.103 31.7249C139.695 30.9317 136.694 31.0103 135.973 32.1822C135.537 32.8967 136.308 33.7256 137.009 34.0472C137.649 34.2491 138.343 34.1953 138.945 33.8971C139.402 33.6256 140.374 32.2465 140.103 31.7249Z" fill="#333329"/>
<path opacity="0.2" d="M175.852 62.0578C176.324 62.7724 176.566 63.1654 177.095 62.9653C177.624 62.7652 178.639 60.6716 178.639 60.6716C178.639 60.6716 175.645 59.0996 174.937 57.2132C174.23 55.3268 173.587 49.1602 173.587 49.1602C173.587 49.1602 172.229 54.0548 173.587 56.813C174.944 59.5712 175.852 62.0578 175.852 62.0578Z" fill="#333329"/>
<path d="M186.034 34.7046C183.962 33.8972 181.032 35.8122 179.753 36.5696C176.145 38.6632 172.451 48.717 173.558 53.6188C174.666 58.5207 176.724 61.1145 178.946 60.6143C181.168 60.1141 187.856 55.198 188.871 50.0103C189.886 44.8227 189.993 41.1356 188.642 39.3921C186.563 36.7697 187.563 35.2977 186.034 34.7046Z" fill="#E5E494"/>
<path d="M183.347 36.7697C187.32 36.7697 190.178 44.7512 189.099 49.1886C188.228 52.7971 185.527 56.9772 181.768 57.0844C178.195 57.1845 175.852 49.2243 175.651 49.1886C175.451 49.1529 175.208 53.6832 176.087 56.277C176.966 58.8708 179.131 60.0927 178.946 60.6143C178.76 61.1359 178.231 61.9219 177.631 61.6861C177.031 61.4503 171.15 56.0912 174.222 44.3011C174.458 43.3793 176.938 35.3191 181.496 34.2973C186.441 33.1683 177.552 37.2985 177.581 39.0134C177.602 40.1995 180.389 36.7697 183.347 36.7697Z" fill="#333329"/>
<path d="M178.945 42.2859C180.129 42.2859 181.089 41.4509 181.089 40.4209C181.089 39.3909 180.129 38.5559 178.945 38.5559C177.762 38.5559 176.802 39.3909 176.802 40.4209C176.802 41.4509 177.762 42.2859 178.945 42.2859Z" fill="white"/>
<path d="M75.6424 46.3875C77.0215 46.2874 83.5025 47.0591 83.0523 43.1934C82.6021 39.3277 79.6082 36.5695 76.6642 36.1979C73.7202 35.8264 71.8981 36.8625 70.9478 38.756C69.9974 40.6496 71.7695 42.1144 72.7056 43.5435C73.4706 44.69 74.4719 45.6597 75.6424 46.3875Z" fill="#E5E494"/>
<path d="M81.7306 76.0843C65.4816 41.2998 4.28732 18.1055 0 19.7561C1.78638 21.4067 3.67995 32.4608 3.47273 37.9629C3.17262 45.9016 2.75817 55.7624 4.64459 69.3318C14.8556 143.717 110.041 167.104 162.918 139.151C173.994 133.313 108.026 132.37 81.7306 76.0843Z" fill="#749B27"/>
</svg>
