<svg width="120" height="120" viewBox="0 0 120 120" fill="none" xmlns="http://www.w3.org/2000/svg">
<path fill-rule="evenodd" clip-rule="evenodd" d="M41.2053 118.006L1.9896 78.79C-0.666634 76.1337 -0.662692 71.8259 1.9984 69.1745L69.2178 2.2009C70.6325 0.791375 72.5481 -3.61535e-05 74.5451 0L99.1274 0.000445045C101.129 0.000481285 103.049 0.79568 104.464 2.21111L117.74 15.4866C119.155 16.9021 119.95 18.8218 119.95 20.8236L119.95 45.4082C119.95 47.4035 119.16 49.3176 117.753 50.732L50.8238 117.994C48.1729 120.658 43.8627 120.663 41.2053 118.006ZM98.0923 25.834C100.767 25.834 102.936 23.6653 102.936 20.9901C102.936 18.3148 100.767 16.1461 98.0923 16.1461C95.417 16.1461 93.2483 18.3148 93.2483 20.9901C93.2483 23.6653 95.417 25.834 98.0923 25.834Z" fill="#71A5EF"/>
<path d="M8.19769 76.1169L43.8805 111.8C45.0617 112.981 46.9778 112.978 48.1559 111.794L111.735 47.8682C112.861 46.7367 113.492 45.2059 113.492 43.6101L113.492 22.6203C113.492 21.0189 112.856 19.483 111.724 18.3507L101.601 8.22754C100.468 7.09519 98.9327 6.45904 97.3313 6.459L76.3434 6.45855C74.7461 6.45852 73.2139 7.09136 72.0822 8.21852L8.20197 71.843C7.01891 73.0213 7.01699 74.9362 8.19769 76.1169Z" stroke="white"/>
<path d="M60.8569 38.5183L61.2569 46.5183H66.6169L67.0169 38.5183H60.8569ZM61.2569 68.4383L60.8569 75.7183H66.9769L66.5769 68.4383H61.2569ZM68.4569 52.2783L74.9769 48.6783C74.3102 47.6383 73.5235 46.6783 72.6169 45.7983C71.7102 44.8916 70.5635 44.1716 69.1769 43.6383C67.7902 43.1049 66.0035 42.8383 63.8169 42.8383C61.6302 42.8383 59.7102 43.2116 58.0569 43.9583C56.4302 44.7049 55.1502 45.6916 54.2169 46.9183C53.3102 48.1183 52.8569 49.4249 52.8569 50.8383C52.8569 52.2516 53.1235 53.4783 53.6569 54.5183C54.2169 55.5316 54.9102 56.3983 55.7369 57.1183C56.5902 57.8383 57.4569 58.4383 58.3369 58.9183C59.2435 59.3716 60.0435 59.7316 60.7369 59.9983C61.8569 60.4249 62.8035 60.7983 63.5769 61.1183C64.3769 61.4116 64.9902 61.7183 65.4169 62.0383C65.8435 62.3316 66.0569 62.7183 66.0569 63.1983C66.0569 63.5983 65.9635 63.9316 65.7769 64.1983C65.6169 64.4383 65.3502 64.6249 64.9769 64.7583C64.6035 64.8649 64.1102 64.9183 63.4969 64.9183C62.6169 64.9183 61.8169 64.7716 61.0969 64.4783C60.3769 64.1849 59.6835 63.7183 59.0169 63.0783C58.3769 62.4383 57.7102 61.6116 57.0169 60.5983L51.0969 64.9183C51.6835 66.0649 52.5902 67.1449 53.8169 68.1583C55.0702 69.1716 56.5102 70.0116 58.1369 70.6783C59.7902 71.3183 61.5102 71.6383 63.2969 71.6383C65.6969 71.6383 67.8035 71.3316 69.6169 70.7183C71.4302 70.0783 72.8435 69.1316 73.8569 67.8783C74.8702 66.6249 75.3769 65.0783 75.3769 63.2383C75.3769 62.0649 75.2035 61.0116 74.8569 60.0783C74.5369 59.1449 74.0569 58.3183 73.4169 57.5983C72.7769 56.8516 72.0169 56.2116 71.1369 55.6783C70.2835 55.1449 69.3102 54.6783 68.2169 54.2783C67.0969 53.8516 66.0435 53.4916 65.0569 53.1983C64.0969 52.9049 63.3235 52.5716 62.7369 52.1983C62.1502 51.8249 61.8569 51.3183 61.8569 50.6783C61.8569 50.3849 61.9369 50.1049 62.0969 49.8383C62.2569 49.5716 62.4969 49.3449 62.8169 49.1583C63.1635 48.9716 63.6035 48.8783 64.1369 48.8783C64.6435 48.8783 65.1502 48.9983 65.6569 49.2383C66.1635 49.4783 66.6569 49.8516 67.1369 50.3583C67.6169 50.8649 68.0569 51.5049 68.4569 52.2783Z" fill="white"/>
</svg>
