<svg width="120" height="120" viewBox="0 0 120 120" fill="none" xmlns="http://www.w3.org/2000/svg">
<path d="M14 47.0628L111 19V111C111 111.552 110.552 112 110 112H15C14.4477 112 14 111.552 14 111V47.0628Z" fill="#FFDB57"/>
<path d="M14 47.0628L12.8884 43.2203L10 44.056V47.0628H14ZM111 19H115V13.6787L109.888 15.1576L111 19ZM110 108H15V116H110V108ZM18 111V47.0628H10V111H18ZM15.1116 50.9052L112.112 22.8424L109.888 15.1576L12.8884 43.2203L15.1116 50.9052ZM107 19V111H115V19H107ZM15 108C16.6569 108 18 109.343 18 111H10C10 113.761 12.2386 116 15 116V108ZM110 116C112.761 116 115 113.761 115 111H107C107 109.343 108.343 108 110 108V116Z" fill="#FFDB57"/>
<path d="M63 50C63 48.8954 63.8954 48 65 48H73V73H63V50Z" fill="white"/>
<rect x="77" y="48" width="10" height="25" fill="white"/>
<path d="M91 48H99C100.105 48 101 48.8954 101 50V73H91V48Z" fill="white"/>
<path d="M63 77H73V102H65C63.8954 102 63 101.105 63 100V77Z" fill="white"/>
<rect x="77" y="77" width="10" height="25" fill="white"/>
<path d="M91 77H101V100C101 101.105 100.105 102 99 102H91V77Z" fill="white"/>
<path d="M24 71C24 64.3726 29.3726 59 36 59C42.6274 59 48 64.3726 48 71V102H24V71Z" fill="white"/>
<circle cx="44" cy="82" r="2" fill="#FFDB57"/>
<path d="M120 10.5V2L0 37V45.5L120 10.5Z" fill="#FFDB57"/>
</svg>
