<svg width="120" height="121" viewBox="0 0 120 121" fill="none" xmlns="http://www.w3.org/2000/svg">
<path d="M26 31.8976L60 6L94 31.8976V71C94 71.5523 93.5523 72 93 72H27C26.4477 72 26 71.5523 26 71V31.8976Z" fill="#FFDB57"/>
<path d="M26 31.8976L23.5763 28.7155L22 29.9161V31.8976H26ZM94 31.8976H98V29.9161L96.4237 28.7155L94 31.8976ZM60 6L62.4237 2.81795L60 0.971797L57.5763 2.81795L60 6ZM90 31.8976V71H98V31.8976H90ZM93 68H27V76H93V68ZM30 71V31.8976H22V71H30ZM28.4237 35.0796L62.4237 9.18205L57.5763 2.81795L23.5763 28.7155L28.4237 35.0796ZM57.5763 9.18205L91.5763 35.0796L96.4237 28.7155L62.4237 2.81795L57.5763 9.18205ZM27 68C28.6569 68 30 69.3431 30 71H22C22 73.7614 24.2386 76 27 76V68ZM90 71C90 69.3431 91.3431 68 93 68V76C95.7614 76 98 73.7614 98 71H90Z" fill="#FFDB57"/>
<path d="M60 6L62.3765 2.78254L60 1.02714L57.6235 2.78254L60 6ZM18.3765 41.7175L62.3765 9.21746L57.6235 2.78254L13.6235 35.2825L18.3765 41.7175ZM57.6235 9.21746L101.623 41.7175L106.377 35.2825L62.3765 2.78254L57.6235 9.21746Z" fill="#FFDB57"/>
<path d="M31 1H43V17.6432L31 24V1Z" fill="#FFDB57"/>
<rect x="54" y="72" width="12" height="49" fill="#FFDB57"/>
<rect x="62" y="45" width="10" height="10" fill="white"/>
<rect x="48" y="45" width="10" height="10" fill="white"/>
<rect x="62" y="31" width="10" height="10" fill="white"/>
<rect x="48" y="31" width="10" height="10" fill="white"/>
<circle cx="60" cy="67" r="2" fill="white"/>
<circle cx="60" cy="14" r="2" fill="white"/>
</svg>
