<svg width="30" height="20" viewBox="0 0 30 20" fill="none" xmlns="http://www.w3.org/2000/svg">
<path d="M28.4867 0.131592H1.51306C0.786365 0.131592 0.197266 0.720691 0.197266 1.44738V18.5526C0.197266 19.2793 0.786365 19.8684 1.51306 19.8684H28.4867C29.2134 19.8684 29.8025 19.2793 29.8025 18.5526V1.44738C29.8025 0.720691 29.2134 0.131592 28.4867 0.131592Z" fill="white"/>
<path d="M28.487 20H1.51329C1.12963 19.9993 0.761894 19.8466 0.490611 19.5753C0.219327 19.304 0.0666136 18.9363 0.065918 18.5526L0.065918 1.44737C0.0666136 1.06372 0.219327 0.695976 0.490611 0.424693C0.761894 0.153409 1.12963 0.000695654 1.51329 0L28.487 0C28.8706 0.000695654 29.2384 0.153409 29.5096 0.424693C29.7809 0.695976 29.9336 1.06372 29.9343 1.44737V18.5526C29.9336 18.9363 29.7809 19.304 29.5096 19.5753C29.2384 19.8466 28.8706 19.9993 28.487 20ZM1.51329 0.263158C1.19943 0.263853 0.898623 0.388841 0.676691 0.610773C0.454759 0.832705 0.329771 1.13351 0.329076 1.44737V18.5526C0.329771 18.8665 0.454759 19.1673 0.676691 19.3892C0.898623 19.6112 1.19943 19.7361 1.51329 19.7368H28.487C28.8008 19.7361 29.1016 19.6112 29.3236 19.3892C29.5455 19.1673 29.6705 18.8665 29.6712 18.5526V1.44737C29.6705 1.13351 29.5455 0.832705 29.3236 0.610773C29.1016 0.388841 28.8008 0.263853 28.487 0.263158H1.51329Z" fill="black"/>
<path d="M28.2631 19.8684H1.64463C0.928845 19.8684 0.197266 19.1 0.197266 18.3711V1.71054C0.197266 0.984223 1.0499 0.131592 1.77621 0.131592H28.3736C29.0999 0.131592 29.8025 0.921065 29.8025 1.65001V18.35C29.8025 19.0763 28.9894 19.8684 28.2631 19.8684Z" fill="white"/>
<path d="M2.03467 0.131592H28.5399C28.7093 0.135013 28.8763 0.171764 29.0314 0.239747C29.1866 0.30773 29.3268 0.405611 29.4441 0.527801C29.5614 0.64999 29.6535 0.794093 29.7151 0.951878C29.7767 1.10966 29.8066 1.27804 29.8031 1.44738V1.65001H2.03467V0.131592Z" fill="#B22234"/>
<path d="M29.8025 3.16846H0.197266V4.68688H29.8025V3.16846Z" fill="#B22234"/>
<path d="M29.8025 6.20532H0.197266V7.72374H29.8025V6.20532Z" fill="#B22234"/>
<path d="M29.8025 9.24207H0.197266V10.7605H29.8025V9.24207Z" fill="#B22234"/>
<path d="M29.8025 12.2763H0.197266V13.7947H29.8025V12.2763Z" fill="#B22234"/>
<path d="M29.8025 15.3132H0.197266V16.8316H29.8025V15.3132Z" fill="#B22234"/>
<path d="M0.197266 18.35H29.8025V18.5527C29.8025 18.9016 29.6639 19.2363 29.4171 19.4831C29.1704 19.7298 28.8357 19.8685 28.4867 19.8685H1.51306C1.16409 19.8685 0.82941 19.7298 0.582651 19.4831C0.335893 19.2363 0.197266 18.9016 0.197266 18.5527V18.35Z" fill="#B22234"/>
<path d="M14.4078 0.131592V10.7579H0.197266V1.44738C0.197266 1.09841 0.335893 0.763736 0.582651 0.516978C0.82941 0.270219 1.16409 0.131592 1.51306 0.131592H14.4078Z" fill="#3C3B6E"/>
<path d="M1.24995 9.97895L0.923633 10.2316L1.05258 9.82895L0.723633 9.58159L1.1289 9.58422L1.24995 9.17896L1.371 9.58422L1.77626 9.58159L1.44732 9.82895L1.57626 10.2316L1.24995 9.97895Z" fill="white"/>
<path d="M3.67134 9.97895L3.34502 10.2316L3.47397 9.82895L3.14502 9.58159L3.55028 9.58422L3.67134 9.17896L3.79239 9.58422L4.19765 9.58159L3.8687 9.82895L3.99765 10.2316L3.67134 9.97895Z" fill="white"/>
<path d="M6.09223 9.97895L5.76592 10.2316L5.89487 9.82895L5.56592 9.58159L5.97118 9.58422L6.09223 9.17896L6.21329 9.58422L6.61855 9.58159L6.2896 9.82895L6.41855 10.2316L6.09223 9.97895Z" fill="white"/>
<path d="M8.51362 9.97895L8.1873 10.2316L8.31625 9.82895L7.9873 9.58159L8.39257 9.58422L8.51362 9.17896L8.63467 9.58422L9.03994 9.58159L8.71099 9.82895L8.83994 10.2316L8.51362 9.97895Z" fill="white"/>
<path d="M10.9345 9.97895L10.6082 10.2316L10.7372 9.82895L10.4082 9.58159L10.8135 9.58422L10.9345 9.17896L11.0556 9.58422L11.4608 9.58159L11.1319 9.82895L11.2608 10.2316L10.9345 9.97895Z" fill="white"/>
<path d="M13.3554 9.97895L13.0291 10.2316L13.158 9.82895L12.8291 9.58159L13.2344 9.58422L13.3554 9.17896L13.4765 9.58422L13.8817 9.58159L13.5528 9.82895L13.6817 10.2316L13.3554 9.97895Z" fill="white"/>
<path d="M1.24995 7.85005L0.923633 8.10268L1.05258 7.70005L0.723633 7.45268L1.1289 7.45531L1.24995 7.05005L1.371 7.45531L1.77626 7.45268L1.44732 7.70005L1.57626 8.10268L1.24995 7.85005Z" fill="white"/>
<path d="M3.67134 7.85005L3.34502 8.10268L3.47397 7.70005L3.14502 7.45268L3.55028 7.45531L3.67134 7.05005L3.79239 7.45531L4.19765 7.45268L3.8687 7.70005L3.99765 8.10268L3.67134 7.85005Z" fill="white"/>
<path d="M6.09223 7.85005L5.76592 8.10268L5.89487 7.70005L5.56592 7.45268L5.97118 7.45531L6.09223 7.05005L6.21329 7.45531L6.61855 7.45268L6.2896 7.70005L6.41855 8.10268L6.09223 7.85005Z" fill="white"/>
<path d="M8.51362 7.85005L8.1873 8.10268L8.31625 7.70005L7.9873 7.45268L8.39257 7.45531L8.51362 7.05005L8.63467 7.45531L9.03994 7.45268L8.71099 7.70005L8.83994 8.10268L8.51362 7.85005Z" fill="white"/>
<path d="M10.9345 7.85005L10.6082 8.10268L10.7372 7.70005L10.4082 7.45268L10.8135 7.45531L10.9345 7.05005L11.0556 7.45531L11.4608 7.45268L11.1319 7.70005L11.2608 8.10268L10.9345 7.85005Z" fill="white"/>
<path d="M13.3554 7.85005L13.0291 8.10268L13.158 7.70005L12.8291 7.45268L13.2344 7.45531L13.3554 7.05005L13.4765 7.45531L13.8817 7.45268L13.5528 7.70005L13.6817 8.10268L13.3554 7.85005Z" fill="white"/>
<path d="M1.24995 5.7184L0.923633 5.97103L1.05258 5.5684L0.723633 5.32103L1.1289 5.32366L1.24995 4.9184L1.371 5.32366L1.77626 5.32103L1.44732 5.5684L1.57626 5.97103L1.24995 5.7184Z" fill="white"/>
<path d="M3.67134 5.7184L3.34502 5.97103L3.47397 5.5684L3.14502 5.32103L3.55028 5.32366L3.67134 4.9184L3.79239 5.32366L4.19765 5.32103L3.8687 5.5684L3.99765 5.97103L3.67134 5.7184Z" fill="white"/>
<path d="M6.09223 5.7184L5.76592 5.97103L5.89487 5.5684L5.56592 5.32103L5.97118 5.32366L6.09223 4.9184L6.21329 5.32366L6.61855 5.32103L6.2896 5.5684L6.41855 5.97103L6.09223 5.7184Z" fill="white"/>
<path d="M8.51362 5.7184L8.1873 5.97103L8.31625 5.5684L7.9873 5.32103L8.39257 5.32366L8.51362 4.9184L8.63467 5.32366L9.03994 5.32103L8.71099 5.5684L8.83994 5.97103L8.51362 5.7184Z" fill="white"/>
<path d="M10.9345 5.7184L10.6082 5.97103L10.7372 5.5684L10.4082 5.32103L10.8135 5.32366L10.9345 4.9184L11.0556 5.32366L11.4608 5.32103L11.1319 5.5684L11.2608 5.97103L10.9345 5.7184Z" fill="white"/>
<path d="M13.3554 5.7184L13.0291 5.97103L13.158 5.5684L12.8291 5.32103L13.2344 5.32366L13.3554 4.9184L13.4765 5.32366L13.8817 5.32103L13.5528 5.5684L13.6817 5.97103L13.3554 5.7184Z" fill="white"/>
<path d="M1.24995 3.58943L0.923633 3.84206L1.05258 3.4368L0.723633 3.18943L1.1289 3.19469L1.24995 2.78943L1.371 3.19469L1.77626 3.18943L1.44732 3.4368L1.57626 3.84206L1.24995 3.58943Z" fill="white"/>
<path d="M3.67134 3.58943L3.34502 3.84206L3.47397 3.4368L3.14502 3.18943L3.55028 3.19469L3.67134 2.78943L3.79239 3.19469L4.19765 3.18943L3.8687 3.4368L3.99765 3.84206L3.67134 3.58943Z" fill="white"/>
<path d="M6.09223 3.58943L5.76592 3.84206L5.89487 3.4368L5.56592 3.18943L5.97118 3.19469L6.09223 2.78943L6.21329 3.19469L6.61855 3.18943L6.2896 3.4368L6.41855 3.84206L6.09223 3.58943Z" fill="white"/>
<path d="M8.51362 3.58943L8.1873 3.84206L8.31625 3.4368L7.9873 3.18943L8.39257 3.19469L8.51362 2.78943L8.63467 3.19469L9.03994 3.18943L8.71099 3.4368L8.83994 3.84206L8.51362 3.58943Z" fill="white"/>
<path d="M10.9345 3.58943L10.6082 3.84206L10.7372 3.4368L10.4082 3.18943L10.8135 3.19469L10.9345 2.78943L11.0556 3.19469L11.4608 3.18943L11.1319 3.4368L11.2608 3.84206L10.9345 3.58943Z" fill="white"/>
<path d="M13.3554 3.58943L13.0291 3.84206L13.158 3.4368L12.8291 3.18943L13.2344 3.19469L13.3554 2.78943L13.4765 3.19469L13.8817 3.18943L13.5528 3.4368L13.6817 3.84206L13.3554 3.58943Z" fill="white"/>
<path d="M1.24995 1.4579L0.923633 1.71053L1.05258 1.3079L0.723633 1.06053L1.1289 1.06316L1.24995 0.657898L1.371 1.06316L1.77626 1.06053L1.44732 1.3079L1.57626 1.71053L1.24995 1.4579Z" fill="white"/>
<path d="M3.67134 1.4579L3.34502 1.71053L3.47397 1.3079L3.14502 1.06053L3.55028 1.06316L3.67134 0.657898L3.79239 1.06316L4.19765 1.06053L3.8687 1.3079L3.99765 1.71053L3.67134 1.4579Z" fill="white"/>
<path d="M6.09223 1.4579L5.76592 1.71053L5.89487 1.3079L5.56592 1.06053L5.97118 1.06316L6.09223 0.657898L6.21329 1.06316L6.61855 1.06053L6.2896 1.3079L6.41855 1.71053L6.09223 1.4579Z" fill="white"/>
<path d="M8.51362 1.4579L8.1873 1.71053L8.31625 1.3079L7.9873 1.06053L8.39257 1.06316L8.51362 0.657898L8.63467 1.06316L9.03994 1.06053L8.71099 1.3079L8.83994 1.71053L8.51362 1.4579Z" fill="white"/>
<path d="M10.9345 1.4579L10.6082 1.71053L10.7372 1.3079L10.4082 1.06053L10.8135 1.06316L10.9345 0.657898L11.0556 1.06316L11.4608 1.06053L11.1319 1.3079L11.2608 1.71053L10.9345 1.4579Z" fill="white"/>
<path d="M13.3554 1.4579L13.0291 1.71053L13.158 1.3079L12.8291 1.06053L13.2344 1.06316L13.3554 0.657898L13.4765 1.06316L13.8817 1.06053L13.5528 1.3079L13.6817 1.71053L13.3554 1.4579Z" fill="white"/>
<path d="M2.46089 8.92634L2.13457 9.17897L2.26352 8.77634L1.93457 8.52897L2.33983 8.53161L2.46089 8.12634L2.58194 8.53161L2.9872 8.52897L2.65825 8.77634L2.7872 9.17897L2.46089 8.92634Z" fill="white"/>
<path d="M4.88178 8.92634L4.55547 9.17897L4.68442 8.77634L4.35547 8.52897L4.76073 8.53161L4.88178 8.12634L5.00284 8.53161L5.4081 8.52897L5.07915 8.77634L5.2081 9.17897L4.88178 8.92634Z" fill="white"/>
<path d="M7.30268 8.92634L6.97637 9.17897L7.10531 8.77634L6.77637 8.52897L7.18163 8.53161L7.30268 8.12634L7.42374 8.53161L7.829 8.52897L7.50005 8.77634L7.629 9.17897L7.30268 8.92634Z" fill="white"/>
<path d="M9.72407 8.92634L9.39775 9.17897L9.5267 8.77634L9.19775 8.52897L9.60302 8.53161L9.72407 8.12634L9.84512 8.53161L10.2504 8.52897L9.92144 8.77634L10.0504 9.17897L9.72407 8.92634Z" fill="white"/>
<path d="M12.145 8.92634L11.8187 9.17897L11.9476 8.77634L11.6187 8.52897L12.0239 8.53161L12.145 8.12634L12.266 8.53161L12.6713 8.52897L12.3423 8.77634L12.4713 9.17897L12.145 8.92634Z" fill="white"/>
<path d="M2.46089 6.79738L2.13457 7.05001L2.26352 6.64738L1.93457 6.40001L2.33983 6.40264L2.46089 5.99738L2.58194 6.40264L2.9872 6.40001L2.65825 6.64738L2.7872 7.05001L2.46089 6.79738Z" fill="white"/>
<path d="M4.88178 6.79738L4.55547 7.05001L4.68442 6.64738L4.35547 6.40001L4.76073 6.40264L4.88178 5.99738L5.00284 6.40264L5.4081 6.40001L5.07915 6.64738L5.2081 7.05001L4.88178 6.79738Z" fill="white"/>
<path d="M7.30268 6.79738L6.97637 7.05001L7.10531 6.64738L6.77637 6.40001L7.18163 6.40264L7.30268 5.99738L7.42374 6.40264L7.829 6.40001L7.50005 6.64738L7.629 7.05001L7.30268 6.79738Z" fill="white"/>
<path d="M9.72407 6.79738L9.39775 7.05001L9.5267 6.64738L9.19775 6.40001L9.60302 6.40264L9.72407 5.99738L9.84512 6.40264L10.2504 6.40001L9.92144 6.64738L10.0504 7.05001L9.72407 6.79738Z" fill="white"/>
<path d="M12.145 6.79738L11.8187 7.05001L11.9476 6.64738L11.6187 6.40001L12.0239 6.40264L12.145 5.99738L12.266 6.40264L12.6713 6.40001L12.3423 6.64738L12.4713 7.05001L12.145 6.79738Z" fill="white"/>
<path d="M2.46089 4.72627L2.13457 4.9789L2.26352 4.57627L1.93457 4.3289L2.33983 4.33153L2.46089 3.92627L2.58194 4.33153L2.9872 4.3289L2.65825 4.57627L2.7872 4.9789L2.46089 4.72627Z" fill="white"/>
<path d="M4.88178 4.72627L4.55547 4.9789L4.68442 4.57627L4.35547 4.3289L4.76073 4.33153L4.88178 3.92627L5.00284 4.33153L5.4081 4.3289L5.07915 4.57627L5.2081 4.9789L4.88178 4.72627Z" fill="white"/>
<path d="M7.30268 4.72627L6.97637 4.9789L7.10531 4.57627L6.77637 4.3289L7.18163 4.33153L7.30268 3.92627L7.42374 4.33153L7.829 4.3289L7.50005 4.57627L7.629 4.9789L7.30268 4.72627Z" fill="white"/>
<path d="M9.72407 4.72627L9.39775 4.9789L9.5267 4.57627L9.19775 4.3289L9.60302 4.33153L9.72407 3.92627L9.84512 4.33153L10.2504 4.3289L9.92144 4.57627L10.0504 4.9789L9.72407 4.72627Z" fill="white"/>
<path d="M12.145 4.72627L11.8187 4.9789L11.9476 4.57627L11.6187 4.3289L12.0239 4.33153L12.145 3.92627L12.266 4.33153L12.6713 4.3289L12.3423 4.57627L12.4713 4.9789L12.145 4.72627Z" fill="white"/>
<path d="M2.46089 2.53688L2.13457 2.78951L2.26352 2.38425L1.93457 2.13688L2.33983 2.14214L2.46089 1.73688L2.58194 2.14214L2.9872 2.13688L2.65825 2.38425L2.7872 2.78951L2.46089 2.53688Z" fill="white"/>
<path d="M4.88178 2.53688L4.55547 2.78951L4.68442 2.38425L4.35547 2.13688L4.76073 2.14214L4.88178 1.73688L5.00284 2.14214L5.4081 2.13688L5.07915 2.38425L5.2081 2.78951L4.88178 2.53688Z" fill="white"/>
<path d="M7.30268 2.53688L6.97637 2.78951L7.10531 2.38425L6.77637 2.13688L7.18163 2.14214L7.30268 1.73688L7.42374 2.14214L7.829 2.13688L7.50005 2.38425L7.629 2.78951L7.30268 2.53688Z" fill="white"/>
<path d="M9.72407 2.53688L9.39775 2.78951L9.5267 2.38425L9.19775 2.13688L9.60302 2.14214L9.72407 1.73688L9.84512 2.14214L10.2504 2.13688L9.92144 2.38425L10.0504 2.78951L9.72407 2.53688Z" fill="white"/>
<path d="M12.145 2.53688L11.8187 2.78951L11.9476 2.38425L11.6187 2.13688L12.0239 2.14214L12.145 1.73688L12.266 2.14214L12.6713 2.13688L12.3423 2.38425L12.4713 2.78951L12.145 2.53688Z" fill="white"/>
</svg>
